CSLSans-LightItalic.ufo
<glyph name="quotedbl" format="2">
  <advance width="395"/>
  <unicode hex="0022"/>
  <outline>
    <contour>
      <point x="182" y="472" type="line"/>
      <point x="236" y="740" type="line"/>
      <point x="185" y="740" type="line"/>
      <point x="131" y="472" type="line"/>
    </contour>
    <contour>
      <point x="349" y="472" type="line"/>
      <point x="403" y="740" type="line"/>
      <point x="352" y="740" type="line"/>
      <point x="298" y="472" type="line"/>
    </contour>
  </outline>
</glyph>
<glyph name="ampersand" format="2">
  <advance width="673"/>
  <unicode hex="0026"/>
  <outline>
    <contour>
      <point x="220" y="-12" type="qcurve"/>
      <point x="287" y="-12"/>
      <point x="403" y="46"/>
      <point x="448" y="97" type="qcurve"/>
      <point x="521" y="0" type="line"/>
      <point x="584" y="0" type="line"/>
      <point x="479" y="139" type="line"/>
      <point x="527" y="215"/>
      <point x="553" y="312" type="qcurve"/>
      <point x="630" y="312" type="line"/>
      <point x="641" y="361" type="line"/>
      <point x="517" y="361" type="line"/>
      <point x="496" y="262"/>
      <point x="450" y="180" type="qcurve"/>
      <point x="311" y="364" type="line"/>
      <point x="408" y="411"/>
      <point x="522" y="514"/>
      <point x="522" y="584" type="qcurve"/>
      <point x="522" y="644"/>
      <point x="438" y="710"/>
      <point x="376" y="710" type="qcurve"/>
      <point x="286" y="710"/>
      <point x="183" y="591"/>
      <point x="183" y="517" type="qcurve"/>
      <point x="183" y="447"/>
      <point x="238" y="377" type="qcurve"/>
      <point x="147" y="334"/>
      <point x="42" y="223"/>
      <point x="42" y="145" type="qcurve"/>
      <point x="42" y="72"/>
      <point x="135" y="-12"/>
    </contour>
    <contour>
      <point x="285" y="399" type="qcurve"/>
      <point x="236" y="466"/>
      <point x="236" y="520" type="qcurve"/>
      <point x="236" y="528"/>
      <point x="240" y="543"/>
      <point x="241" y="555" type="qcurve"/>
      <point x="251" y="603"/>
      <point x="319" y="663"/>
      <point x="371" y="663" type="qcurve"/>
      <point x="416" y="663"/>
      <point x="467" y="618"/>
      <point x="467" y="576" type="qcurve"/>
      <point x="467" y="519"/>
      <point x="373" y="440"/>
    </contour>
    <contour>
      <point x="231" y="37" type="qcurve"/>
      <point x="168" y="37"/>
      <point x="97" y="94"/>
      <point x="97" y="151" type="qcurve"/>
      <point x="97" y="223"/>
      <point x="151" y="270" type="qcurve"/>
      <point x="191" y="306"/>
      <point x="264" y="341" type="qcurve"/>
      <point x="419" y="135" type="line"/>
      <point x="342" y="37"/>
    </contour>
  </outline>
</glyph>
<glyph name="quotesingle" format="2">
  <advance width="228"/>
  <unicode hex="0027"/>
  <outline>
    <contour>
      <point x="182" y="472" type="line"/>
      <point x="236" y="740" type="line"/>
      <point x="185" y="740" type="line"/>
      <point x="131" y="472" type="line"/>
    </contour>
  </outline>
</glyph>
<glyph name="parenleft" format="2">
  <advance width="329"/>
  <unicode hex="0028"/>
  <outline>
    <contour>
      <point x="246" y="-137" type="line"/>
      <point x="137" y="7"/>
      <point x="137" y="206" type="qcurve"/>
      <point x="137" y="253"/>
      <point x="146" y="298" type="qcurve"/>
      <point x="158" y="363" type="line"/>
      <point x="180" y="475"/>
      <point x="318" y="686"/>
      <point x="415" y="760" type="qcurve"/>
      <point x="359" y="760" type="line"/>
      <point x="248" y="677"/>
      <point x="170" y="535" type="qcurve"/>
      <point x="88" y="382"/>
      <point x="88" y="211" type="qcurve"/>
      <point x="88" y="99"/>
      <point x="148" y="-77"/>
      <point x="197" y="-137" type="qcurve"/>
    </contour>
  </outline>
</glyph>
<glyph name="parenright" format="2">
  <advance width="329"/>
  <unicode hex="0029"/>
  <outline>
    <contour>
      <point x="-65" y="-137" type="line"/>
      <point x="31" y="-63"/>
      <point x="167" y="147"/>
      <point x="191" y="260" type="qcurve" smooth="yes"/>
      <point x="204" y="325" type="line" smooth="yes"/>
      <point x="212" y="370"/>
      <point x="212" y="416" type="qcurve" smooth="yes"/>
      <point x="212" y="616"/>
      <point x="104" y="760" type="qcurve"/>
      <point x="153" y="760" type="line"/>
      <point x="201" y="700"/>
      <point x="261" y="524"/>
      <point x="261" y="411" type="qcurve" smooth="yes"/>
      <point x="261" y="239"/>
      <point x="180" y="88" type="qcurve" smooth="yes"/>
      <point x="102" y="-55"/>
      <point x="-9" y="-137" type="qcurve"/>
    </contour>
  </outline>
</glyph>
<glyph name="plus" format="2">
  <advance width="600"/>
  <unicode hex="002B"/>
  <outline>
    <contour>
      <point x="235" y="62" type="line"/>
      <point x="279" y="281" type="line"/>
      <point x="75" y="281" type="line"/>
      <point x="85" y="329" type="line"/>
      <point x="289" y="329" type="line"/>
      <point x="333" y="548" type="line"/>
      <point x="386" y="548" type="line"/>
      <point x="342" y="329" type="line"/>
      <point x="545" y="329" type="line"/>
      <point x="535" y="281" type="line"/>
      <point x="332" y="281" type="line"/>
      <point x="288" y="62" type="line"/>
    </contour>
  </outline>
</glyph>
<glyph name="comma" format="2">
  <advance width="260"/>
  <unicode hex="002C"/>
  <outline>
    <contour>
      <point x="17" y="-138" type="line"/>
      <point x="64" y="-103"/>
      <point x="120" y="-7"/>
      <point x="130" y="34" type="qcurve"/>
      <point x="133" y="43"/>
      <point x="133" y="60" type="qcurve"/>
      <point x="133" y="92"/>
      <point x="92" y="92" type="qcurve"/>
      <point x="66" y="92"/>
      <point x="45" y="66"/>
      <point x="42" y="50" type="qcurve"/>
      <point x="38" y="40"/>
      <point x="38" y="24" type="qcurve"/>
      <point x="38" y="-1"/>
      <point x="68" y="-6" type="qcurve"/>
      <point x="46" y="-69"/>
      <point x="-31" y="-138" type="qcurve"/>
    </contour>
  </outline>
</glyph>
<glyph name="period" format="2">
  <advance width="260"/>
  <unicode hex="002E"/>
  <outline>
    <contour>
      <point x="80" y="-9" type="qcurve"/>
      <point x="124" y="-9"/>
      <point x="130" y="32" type="qcurve"/>
      <point x="134" y="43"/>
      <point x="134" y="60" type="qcurve"/>
      <point x="134" y="92"/>
      <point x="93" y="92" type="qcurve"/>
      <point x="49" y="92"/>
      <point x="43" y="51" type="qcurve"/>
      <point x="39" y="40"/>
      <point x="39" y="23" type="qcurve"/>
      <point x="39" y="-8"/>
    </contour>
  </outline>
</glyph>
<glyph name="slash" format="2">
  <advance width="348"/>
  <unicode hex="002F"/>
  <outline>
    <contour>
      <point x="-20" y="-151" type="line"/>
      <point x="407" y="740" type="line"/>
      <point x="356" y="740" type="line"/>
      <point x="-72" y="-151" type="line"/>
    </contour>
  </outline>
</glyph>
<glyph name="two" format="2">
  <advance width="600"/>
  <unicode hex="0032"/>
  <outline>
    <contour>
      <point x="469" y="0" type="line"/>
      <point x="479" y="52" type="line"/>
      <point x="108" y="52" type="line"/>
      <point x="364" y="260" type="line"/>
      <point x="450" y="327"/>
      <point x="544" y="460"/>
      <point x="544" y="544" type="qcurve"/>
      <point x="544" y="615"/>
      <point x="452" y="710"/>
      <point x="366" y="710" type="qcurve"/>
      <point x="280" y="710"/>
      <point x="168" y="628"/>
      <point x="135" y="550" type="qcurve"/>
      <point x="186" y="529" type="line"/>
      <point x="213" y="593"/>
      <point x="296" y="658"/>
      <point x="360" y="658" type="qcurve"/>
      <point x="424" y="658"/>
      <point x="454" y="622" type="qcurve"/>
      <point x="481" y="585"/>
      <point x="481" y="543" type="qcurve"/>
      <point x="481" y="524"/>
      <point x="474" y="488" type="qcurve"/>
      <point x="457" y="401"/>
      <point x="332" y="300" type="qcurve"/>
      <point x="47" y="64" type="line"/>
      <point x="34" y="0" type="line"/>
    </contour>
  </outline>
</glyph>
<glyph name="three" format="2">
  <advance width="600"/>
  <unicode hex="0033"/>
  <outline>
    <contour>
      <point x="246" y="-12" type="qcurve" smooth="yes"/>
      <point x="165" y="-12"/>
      <point x="60" y="53"/>
      <point x="38" y="105" type="qcurve"/>
      <point x="85" y="136" type="line"/>
      <point x="104" y="89"/>
      <point x="182" y="40"/>
      <point x="251" y="40" type="qcurve" smooth="yes"/>
      <point x="398" y="40"/>
      <point x="424" y="179" type="qcurve" smooth="yes"/>
      <point x="430" y="210"/>
      <point x="430" y="223" type="qcurve" smooth="yes"/>
      <point x="430" y="276"/>
      <point x="363" y="340"/>
      <point x="295" y="340" type="qcurve" smooth="yes"/>
      <point x="212" y="340" type="line"/>
      <point x="223" y="391" type="line"/>
      <point x="303" y="391" type="line" smooth="yes"/>
      <point x="441" y="391"/>
      <point x="469" y="517" type="qcurve"/>
      <point x="473" y="541"/>
      <point x="473" y="551" type="qcurve" smooth="yes"/>
      <point x="473" y="602"/>
      <point x="409" y="658"/>
      <point x="352" y="658" type="qcurve" smooth="yes"/>
      <point x="238" y="658"/>
      <point x="186" y="566" type="qcurve"/>
      <point x="145" y="599" type="line"/>
      <point x="214" y="710"/>
      <point x="359" y="710" type="qcurve" smooth="yes"/>
      <point x="437" y="710"/>
      <point x="536" y="627"/>
      <point x="536" y="556" type="qcurve" smooth="yes"/>
      <point x="536" y="480"/>
      <point x="445" y="380"/>
      <point x="373" y="367" type="qcurve"/>
      <point x="372" y="363" type="line"/>
      <point x="424" y="354"/>
      <point x="490" y="279"/>
      <point x="490" y="218" type="qcurve" smooth="yes"/>
      <point x="490" y="116"/>
      <point x="356" y="-12"/>
    </contour>
  </outline>
</glyph>
<glyph name="five" format="2">
  <advance width="600"/>
  <unicode hex="0035"/>
  <outline>
    <contour>
      <point x="262" y="-12" type="qcurve"/>
      <point x="378" y="-12"/>
      <point x="515" y="137"/>
      <point x="515" y="252" type="qcurve"/>
      <point x="515" y="334"/>
      <point x="421" y="427"/>
      <point x="341" y="427" type="qcurve"/>
      <point x="287" y="427"/>
      <point x="215" y="390"/>
      <point x="187" y="348" type="qcurve"/>
      <point x="182" y="348" type="line"/>
      <point x="258" y="646" type="line"/>
      <point x="563" y="646" type="line"/>
      <point x="573" y="698" type="line"/>
      <point x="221" y="698" type="line"/>
      <point x="123" y="314" type="line"/>
      <point x="174" y="307" type="line"/>
      <point x="206" y="340"/>
      <point x="275" y="376"/>
      <point x="324" y="376" type="qcurve"/>
      <point x="393" y="376"/>
      <point x="456" y="309"/>
      <point x="456" y="252" type="qcurve"/>
      <point x="456" y="240"/>
      <point x="452" y="215"/>
      <point x="448" y="196" type="qcurve"/>
      <point x="417" y="40"/>
      <point x="268" y="40" type="qcurve"/>
      <point x="204" y="40"/>
      <point x="125" y="88"/>
      <point x="105" y="136" type="qcurve"/>
      <point x="58" y="105" type="line"/>
      <point x="79" y="53"/>
      <point x="184" y="-12"/>
    </contour>
  </outline>
</glyph>
<glyph name="six" format="2">
  <advance width="600"/>
  <unicode hex="0036"/>
  <outline>
    <contour>
      <point x="268" y="-12" type="qcurve"/>
      <point x="376" y="-12"/>
      <point x="518" y="136"/>
      <point x="518" y="245" type="qcurve"/>
      <point x="518" y="330"/>
      <point x="419" y="427"/>
      <point x="337" y="427" type="qcurve"/>
      <point x="221" y="427"/>
      <point x="159" y="320" type="qcurve"/>
      <point x="155" y="321" type="line"/>
      <point x="230" y="540"/>
      <point x="505" y="698" type="qcurve"/>
      <point x="422" y="698" type="line"/>
      <point x="279" y="619"/>
      <point x="180" y="482" type="qcurve"/>
      <point x="132" y="415"/>
      <point x="76" y="265"/>
      <point x="76" y="189" type="qcurve"/>
      <point x="76" y="95"/>
      <point x="172" y="-12"/>
    </contour>
    <contour>
      <point x="271" y="40" type="qcurve"/>
      <point x="203" y="40"/>
      <point x="134" y="112"/>
      <point x="134" y="175" type="qcurve"/>
      <point x="134" y="192"/>
      <point x="139" y="221" type="qcurve"/>
      <point x="154" y="290"/>
      <point x="248" y="376"/>
      <point x="323" y="376" type="qcurve"/>
      <point x="391" y="376"/>
      <point x="460" y="304"/>
      <point x="460" y="241" type="qcurve"/>
      <point x="460" y="225"/>
      <point x="455" y="195" type="qcurve"/>
      <point x="440" y="126"/>
      <point x="346" y="40"/>
    </contour>
  </outline>
</glyph>
<glyph name="seven" format="2">
  <advance width="600"/>
  <unicode hex="0037"/>
  <outline>
    <contour>
      <point x="196" y="0" type="line"/>
      <point x="134" y="0" type="line"/>
      <point x="535" y="647" type="line"/>
      <point x="159" y="647" type="line"/>
      <point x="169" y="698" type="line"/>
      <point x="605" y="698" type="line"/>
      <point x="594" y="642" type="line"/>
    </contour>
  </outline>
</glyph>
<glyph name="eight" format="2">
  <advance width="600"/>
  <unicode hex="0038"/>
  <outline>
    <contour>
      <point x="257" y="-12" type="qcurve"/>
      <point x="373" y="-12"/>
      <point x="444" y="51" type="qcurve"/>
      <point x="513" y="115"/>
      <point x="513" y="217" type="qcurve"/>
      <point x="513" y="271"/>
      <point x="455" y="346"/>
      <point x="401" y="361" type="qcurve"/>
      <point x="402" y="367" type="line"/>
      <point x="474" y="386"/>
      <point x="557" y="489"/>
      <point x="557" y="555" type="qcurve"/>
      <point x="557" y="625"/>
      <point x="460" y="710"/>
      <point x="372" y="710" type="qcurve"/>
      <point x="270" y="710"/>
      <point x="140" y="595"/>
      <point x="140" y="505" type="qcurve"/>
      <point x="140" y="405"/>
      <point x="235" y="373" type="qcurve"/>
      <point x="234" y="366" type="line"/>
      <point x="148" y="353"/>
      <point x="100" y="297" type="qcurve"/>
      <point x="52" y="238"/>
      <point x="52" y="164" type="qcurve"/>
      <point x="52" y="86"/>
      <point x="158" y="-12"/>
    </contour>
    <contour>
      <point x="260" y="39" type="qcurve"/>
      <point x="188" y="39"/>
      <point x="111" y="105"/>
      <point x="111" y="159" type="qcurve"/>
      <point x="111" y="171"/>
      <point x="115" y="195" type="qcurve"/>
      <point x="128" y="267"/>
      <point x="230" y="341"/>
      <point x="305" y="341" type="qcurve"/>
      <point x="377" y="341"/>
      <point x="454" y="275"/>
      <point x="454" y="221" type="qcurve"/>
      <point x="454" y="209"/>
      <point x="450" y="185" type="qcurve"/>
      <point x="437" y="113"/>
      <point x="335" y="39"/>
    </contour>
    <contour>
      <point x="330" y="391" type="qcurve"/>
      <point x="204" y="391"/>
      <point x="198" y="499" type="qcurve"/>
      <point x="198" y="507"/>
      <point x="200" y="522"/>
      <point x="202" y="536" type="qcurve"/>
      <point x="214" y="594"/>
      <point x="300" y="659"/>
      <point x="367" y="659" type="qcurve"/>
      <point x="493" y="659"/>
      <point x="499" y="551" type="qcurve"/>
      <point x="499" y="543"/>
      <point x="497" y="528"/>
      <point x="495" y="514" type="qcurve"/>
      <point x="483" y="456"/>
      <point x="397" y="391"/>
    </contour>
  </outline>
</glyph>
<glyph name="colon" format="2">
  <advance width="279"/>
  <unicode hex="003A"/>
  <outline>
    <contour>
      <point x="88" y="-9" type="qcurve"/>
      <point x="132" y="-9"/>
      <point x="138" y="32" type="qcurve"/>
      <point x="142" y="43"/>
      <point x="142" y="60" type="qcurve"/>
      <point x="142" y="92"/>
      <point x="101" y="92" type="qcurve"/>
      <point x="57" y="92"/>
      <point x="51" y="51" type="qcurve"/>
      <point x="47" y="40"/>
      <point x="47" y="23" type="qcurve"/>
      <point x="47" y="-8"/>
    </contour>
    <contour>
      <point x="173" y="410" type="qcurve"/>
      <point x="217" y="410"/>
      <point x="223" y="451" type="qcurve"/>
      <point x="227" y="462"/>
      <point x="227" y="479" type="qcurve"/>
      <point x="227" y="511"/>
      <point x="186" y="511" type="qcurve"/>
      <point x="142" y="511"/>
      <point x="136" y="470" type="qcurve"/>
      <point x="132" y="459"/>
      <point x="132" y="442" type="qcurve"/>
      <point x="132" y="411"/>
    </contour>
  </outline>
</glyph>
<glyph name="semicolon" format="2">
  <advance width="279"/>
  <unicode hex="003B"/>
  <outline>
    <contour>
      <point x="25" y="-138" type="line"/>
      <point x="72" y="-103"/>
      <point x="128" y="-7"/>
      <point x="138" y="34" type="qcurve"/>
      <point x="141" y="43"/>
      <point x="141" y="60" type="qcurve"/>
      <point x="141" y="92"/>
      <point x="100" y="92" type="qcurve"/>
      <point x="74" y="92"/>
      <point x="53" y="66"/>
      <point x="50" y="50" type="qcurve"/>
      <point x="46" y="40"/>
      <point x="46" y="24" type="qcurve"/>
      <point x="46" y="-1"/>
      <point x="76" y="-6" type="qcurve"/>
      <point x="54" y="-69"/>
      <point x="-23" y="-138" type="qcurve"/>
    </contour>
    <contour>
      <point x="173" y="410" type="qcurve"/>
      <point x="217" y="410"/>
      <point x="223" y="451" type="qcurve"/>
      <point x="227" y="462"/>
      <point x="227" y="479" type="qcurve"/>
      <point x="227" y="511"/>
      <point x="186" y="511" type="qcurve"/>
      <point x="142" y="511"/>
      <point x="136" y="470" type="qcurve"/>
      <point x="132" y="459"/>
      <point x="132" y="442" type="qcurve"/>
      <point x="132" y="411"/>
    </contour>
  </outline>
</glyph>
<glyph name="less" format="2">
  <advance width="600"/>
  <unicode hex="003C"/>
  <outline>
    <contour>
      <point x="460" y="8" type="line"/>
      <point x="471" y="64" type="line"/>
      <point x="153" y="284" type="line"/>
      <point x="154" y="290" type="line"/>
      <point x="559" y="506" type="line"/>
      <point x="571" y="569" type="line"/>
      <point x="105" y="316" type="line"/>
      <point x="95" y="263" type="line"/>
    </contour>
  </outline>
</glyph>
<glyph name="greater" format="2">
  <advance width="600"/>
  <unicode hex="003E"/>
  <outline>
    <contour>
      <point x="43" y="8" type="line"/>
      <point x="508" y="263" type="line"/>
      <point x="519" y="316" type="line"/>
      <point x="154" y="568" type="line"/>
      <point x="143" y="511" type="line"/>
      <point x="461" y="295" type="line"/>
      <point x="460" y="290" type="line"/>
      <point x="55" y="70" type="line"/>
    </contour>
  </outline>
</glyph>
<glyph name="question" format="2">
  <advance width="463"/>
  <unicode hex="003F"/>
  <outline>
    <contour>
      <point x="173" y="196" type="line"/>
      <point x="206" y="364" type="line"/>
      <point x="420" y="380"/>
      <point x="420" y="548" type="qcurve" smooth="yes"/>
      <point x="420" y="599"/>
      <point x="359" y="659"/>
      <point x="300" y="659" type="qcurve" smooth="yes"/>
      <point x="235" y="659"/>
      <point x="158" y="591"/>
      <point x="136" y="533" type="qcurve"/>
      <point x="87" y="551" type="line"/>
      <point x="150" y="710"/>
      <point x="304" y="710" type="qcurve" smooth="yes"/>
      <point x="385" y="710"/>
      <point x="480" y="625"/>
      <point x="480" y="551" type="qcurve" smooth="yes"/>
      <point x="480" y="463"/>
      <point x="363" y="338"/>
      <point x="252" y="322" type="qcurve"/>
      <point x="227" y="196" type="line"/>
    </contour>
    <contour>
      <point x="165" y="-9" type="qcurve"/>
      <point x="124" y="-8"/>
      <point x="124" y="23" type="qcurve" smooth="yes"/>
      <point x="124" y="40"/>
      <point x="128" y="51" type="qcurve"/>
      <point x="134" y="92"/>
      <point x="178" y="92" type="qcurve" smooth="yes"/>
      <point x="219" y="92"/>
      <point x="219" y="60" type="qcurve" smooth="yes"/>
      <point x="219" y="43"/>
      <point x="215" y="32" type="qcurve"/>
      <point x="209" y="-9"/>
    </contour>
  </outline>
</glyph>
<glyph name="B" format="2">
  <advance width="619"/>
  <unicode hex="0042"/>
  <outline>
    <contour>
      <point x="328" y="0" type="line"/>
      <point x="426" y="0"/>
      <point x="549" y="132"/>
      <point x="549" y="234" type="qcurve"/>
      <point x="549" y="341"/>
      <point x="448" y="364" type="qcurve"/>
      <point x="449" y="368" type="line"/>
      <point x="521" y="386"/>
      <point x="586" y="490"/>
      <point x="586" y="554" type="qcurve"/>
      <point x="586" y="622"/>
      <point x="505" y="698"/>
      <point x="427" y="698" type="qcurve"/>
      <point x="184" y="698" type="line"/>
      <point x="45" y="0" type="line"/>
    </contour>
    <contour>
      <point x="328" y="52" type="qcurve"/>
      <point x="113" y="52" type="line"/>
      <point x="170" y="337" type="line"/>
      <point x="375" y="337" type="line"/>
      <point x="432" y="337"/>
      <point x="489" y="282"/>
      <point x="489" y="237" type="qcurve"/>
      <point x="488" y="222" type="line"/>
      <point x="480" y="174" type="line"/>
      <point x="454" y="52"/>
    </contour>
    <contour>
      <point x="367" y="388" type="qcurve"/>
      <point x="180" y="388" type="line"/>
      <point x="231" y="646" type="line"/>
      <point x="420" y="646" type="line"/>
      <point x="474" y="646"/>
      <point x="526" y="597"/>
      <point x="526" y="554" type="qcurve"/>
      <point x="526" y="535"/>
      <point x="521" y="512" type="qcurve"/>
      <point x="518" y="494" type="line"/>
      <point x="495" y="388"/>
    </contour>
  </outline>
</glyph>
<glyph name="D" format="2">
  <advance width="650"/>
  <unicode hex="0044"/>
  <outline>
    <contour>
      <point x="278" y="0" type="line"/>
      <point x="362" y="0"/>
      <point x="489" y="76"/>
      <point x="575" y="202"/>
      <point x="618" y="360"/>
      <point x="618" y="443" type="qcurve"/>
      <point x="618" y="568"/>
      <point x="495" y="698"/>
      <point x="382" y="698" type="qcurve"/>
      <point x="184" y="698" type="line"/>
      <point x="45" y="0" type="line"/>
    </contour>
    <contour>
      <point x="279" y="52" type="qcurve"/>
      <point x="114" y="52" type="line"/>
      <point x="232" y="646" type="line"/>
      <point x="378" y="646" type="line"/>
      <point x="465" y="646"/>
      <point x="558" y="549"/>
      <point x="558" y="460" type="qcurve"/>
      <point x="558" y="426"/>
      <point x="551" y="380" type="qcurve"/>
      <point x="533" y="294" type="line"/>
      <point x="511" y="184"/>
      <point x="380" y="52"/>
    </contour>
  </outline>
</glyph>
<glyph name="H" format="2">
  <advance width="682"/>
  <unicode hex="0048"/>
  <outline>
    <contour>
      <point x="534" y="0" type="line"/>
      <point x="674" y="698" type="line"/>
      <point x="616" y="698" type="line"/>
      <point x="552" y="380" type="line"/>
      <point x="179" y="380" type="line"/>
      <point x="243" y="698" type="line"/>
      <point x="185" y="698" type="line"/>
      <point x="45" y="0" type="line"/>
      <point x="103" y="0" type="line"/>
      <point x="169" y="329" type="line"/>
      <point x="542" y="329" type="line"/>
      <point x="476" y="0" type="line"/>
    </contour>
  </outline>
</glyph>
<glyph name="J" format="2">
  <advance width="481"/>
  <unicode hex="004A"/>
  <outline>
    <contour>
      <point x="160" y="-12" type="qcurve" smooth="yes"/>
      <point x="87" y="-12"/>
      <point x="0" y="68"/>
      <point x="-4" y="139" type="qcurve"/>
      <point x="49" y="150" type="line"/>
      <point x="53" y="99"/>
      <point x="110" y="40"/>
      <point x="162" y="40" type="qcurve" smooth="yes"/>
      <point x="288" y="40"/>
      <point x="317" y="193" type="qcurve"/>
      <point x="418" y="698" type="line"/>
      <point x="476" y="698" type="line"/>
      <point x="373" y="183" type="line"/>
      <point x="328" y="-12"/>
    </contour>
  </outline>
</glyph>
<glyph name="L" format="2">
  <advance width="481"/>
  <unicode hex="004C"/>
  <outline>
    <contour>
      <point x="405" y="0" type="line"/>
      <point x="415" y="52" type="line"/>
      <point x="114" y="52" type="line"/>
      <point x="243" y="698" type="line"/>
      <point x="185" y="698" type="line"/>
      <point x="45" y="0" type="line"/>
    </contour>
  </outline>
</glyph>
<glyph name="M" format="2">
  <advance width="781"/>
  <unicode hex="004D"/>
  <outline>
    <contour>
      <point x="634" y="0" type="line"/>
      <point x="774" y="698" type="line"/>
      <point x="692" y="698" type="line"/>
      <point x="401" y="303" type="line"/>
      <point x="398" y="303" type="line"/>
      <point x="261" y="698" type="line"/>
      <point x="185" y="698" type="line"/>
      <point x="45" y="0" type="line"/>
      <point x="102" y="0" type="line"/>
      <point x="226" y="619" type="line"/>
      <point x="230" y="619" type="line"/>
      <point x="381" y="193" type="line"/>
      <point x="698" y="620" type="line"/>
      <point x="703" y="620" type="line"/>
      <point x="577" y="0" type="line"/>
    </contour>
  </outline>
</glyph>
<glyph name="Q" format="2">
  <advance width="671"/>
  <unicode hex="0051"/>
  <outline>
    <contour>
      <point x="295" y="-12" type="qcurve" smooth="yes"/>
      <point x="245" y="-12"/>
      <point x="159" y="22"/>
      <point x="96" y="87"/>
      <point x="60" y="183"/>
      <point x="60" y="245" type="qcurve" smooth="yes"/>
      <point x="60" y="294"/>
      <point x="78" y="401"/>
      <point x="114" y="505"/>
      <point x="170" y="598"/>
      <point x="247" y="668"/>
      <point x="345" y="710"/>
      <point x="406" y="710" type="qcurve" smooth="yes"/>
      <point x="452" y="710"/>
      <point x="533" y="681"/>
      <point x="594" y="626"/>
      <point x="634" y="544"/>
      <point x="639" y="491" type="qcurve" smooth="yes"/>
      <point x="640" y="477"/>
      <point x="641" y="447"/>
      <point x="640" y="432" type="qcurve"/>
      <point x="638" y="354"/>
      <point x="594" y="196"/>
      <point x="508" y="68"/>
      <point x="380" y="-12"/>
    </contour>
    <contour>
      <point x="300" y="41" type="qcurve" smooth="yes"/>
      <point x="363" y="41"/>
      <point x="453" y="89"/>
      <point x="516" y="179"/>
      <point x="559" y="308"/>
      <point x="575" y="388" type="qcurve" smooth="yes"/>
      <point x="580" y="411"/>
      <point x="583" y="451"/>
      <point x="583" y="468" type="qcurve" smooth="yes"/>
      <point x="583" y="556"/>
      <point x="489" y="657"/>
      <point x="401" y="657" type="qcurve" smooth="yes"/>
      <point x="338" y="657"/>
      <point x="248" y="609"/>
      <point x="184" y="519"/>
      <point x="141" y="390"/>
      <point x="126" y="310" type="qcurve" smooth="yes"/>
      <point x="122" y="287"/>
      <point x="118" y="247"/>
      <point x="118" y="230" type="qcurve" smooth="yes"/>
      <point x="118" y="142"/>
      <point x="212" y="41"/>
    </contour>
    <contour>
      <point x="574" y="-90" type="line"/>
      <point x="489" y="-90"/>
      <point x="402" y="-10"/>
      <point x="398" y="62" type="qcurve"/>
      <point x="451" y="73" type="line"/>
      <point x="453" y="48"/>
      <point x="468" y="7"/>
      <point x="498" y="-21"/>
      <point x="548" y="-37"/>
      <point x="584" y="-37" type="qcurve"/>
    </contour>
  </outline>
</glyph>
<glyph name="R" format="2">
  <advance width="627"/>
  <unicode hex="0052"/>
  <outline>
    <contour>
      <point x="453" y="0" type="line"/>
      <point x="346" y="309" type="line"/>
      <point x="165" y="309" type="line"/>
      <point x="103" y="0" type="line"/>
      <point x="45" y="0" type="line"/>
      <point x="185" y="698" type="line"/>
      <point x="435" y="698" type="line" smooth="yes"/>
      <point x="519" y="698"/>
      <point x="599" y="607"/>
      <point x="599" y="538" type="qcurve" smooth="yes"/>
      <point x="599" y="448"/>
      <point x="499" y="322"/>
      <point x="404" y="312" type="qcurve"/>
      <point x="515" y="0" type="line"/>
    </contour>
    <contour>
      <point x="383" y="360" type="line" smooth="yes"/>
      <point x="503" y="360"/>
      <point x="528" y="475" type="qcurve" smooth="yes"/>
      <point x="539" y="522"/>
      <point x="539" y="547" type="qcurve" smooth="yes"/>
      <point x="539" y="590"/>
      <point x="489" y="646"/>
      <point x="430" y="646" type="qcurve" smooth="yes"/>
      <point x="232" y="646" type="line"/>
      <point x="176" y="360" type="line"/>
    </contour>
  </outline>
</glyph>
<glyph name="S" format="2">
  <advance width="568"/>
  <unicode hex="0053"/>
  <outline>
    <contour>
      <point x="251" y="-12" type="qcurve"/>
      <point x="358" y="-12"/>
      <point x="481" y="95"/>
      <point x="481" y="189" type="qcurve"/>
      <point x="481" y="236"/>
      <point x="458" y="275" type="qcurve"/>
      <point x="425" y="330"/>
      <point x="329" y="373" type="qcurve"/>
      <point x="271" y="398" type="line"/>
      <point x="153" y="445"/>
      <point x="153" y="524" type="qcurve"/>
      <point x="153" y="534"/>
      <point x="156" y="556" type="qcurve"/>
      <point x="164" y="600"/>
      <point x="198" y="625" type="qcurve"/>
      <point x="241" y="657"/>
      <point x="316" y="657" type="qcurve"/>
      <point x="435" y="657"/>
      <point x="495" y="570" type="qcurve"/>
      <point x="540" y="603" type="line"/>
      <point x="467" y="710"/>
      <point x="319" y="710" type="qcurve"/>
      <point x="219" y="710"/>
      <point x="94" y="616"/>
      <point x="94" y="527" type="qcurve"/>
      <point x="94" y="479"/>
      <point x="155" y="384"/>
      <point x="248" y="345" type="qcurve"/>
      <point x="306" y="321" type="line"/>
      <point x="421" y="274"/>
      <point x="421" y="193" type="qcurve"/>
      <point x="421" y="177"/>
      <point x="419" y="158" type="qcurve"/>
      <point x="411" y="109"/>
      <point x="378" y="80" type="qcurve"/>
      <point x="334" y="41"/>
      <point x="253" y="41" type="qcurve"/>
      <point x="184" y="41"/>
      <point x="90" y="95"/>
      <point x="54" y="144" type="qcurve"/>
      <point x="9" y="107" type="line"/>
      <point x="96" y="-12"/>
    </contour>
  </outline>
</glyph>
<glyph name="V" format="2">
  <advance width="582"/>
  <unicode hex="0056"/>
  <outline>
    <contour>
      <point x="203" y="0" type="line"/>
      <point x="113" y="698" type="line"/>
      <point x="171" y="698" type="line"/>
      <point x="248" y="62" type="line"/>
      <point x="251" y="62" type="line"/>
      <point x="586" y="698" type="line"/>
      <point x="648" y="698" type="line"/>
      <point x="276" y="0" type="line"/>
    </contour>
  </outline>
</glyph>
<glyph name="bracketleft" format="2">
  <advance width="311"/>
  <unicode hex="005B"/>
  <outline>
    <contour>
      <point x="165" y="-138" type="line"/>
      <point x="173" y="-94" type="line"/>
      <point x="79" y="-94" type="line"/>
      <point x="241" y="716" type="line"/>
      <point x="336" y="716" type="line"/>
      <point x="345" y="760" type="line"/>
      <point x="200" y="760" type="line"/>
      <point x="20" y="-138" type="line"/>
    </contour>
  </outline>
</glyph>
<glyph name="backslash" format="2">
  <advance width="348"/>
  <unicode hex="005C"/>
  <outline>
    <contour>
      <point x="255" y="-151" type="line"/>
      <point x="184" y="740" type="line"/>
      <point x="136" y="740" type="line"/>
      <point x="207" y="-151" type="line"/>
    </contour>
  </outline>
</glyph>
<glyph name="bracketright" format="2">
  <advance width="311"/>
  <unicode hex="005D"/>
  <outline>
    <contour>
      <point x="-12" y="-138" type="line"/>
      <point x="-2" y="-94" type="line"/>
      <point x="93" y="-94" type="line"/>
      <point x="255" y="716" type="line"/>
      <point x="160" y="716" type="line"/>
      <point x="169" y="760" type="line"/>
      <point x="314" y="760" type="line"/>
      <point x="134" y="-138" type="line"/>
    </contour>
  </outline>
</glyph>
<glyph name="asciicircum" format="2">
  <advance width="600"/>
  <unicode hex="005E"/>
  <outline>
    <contour>
      <point x="378" y="642" type="line"/>
      <point x="375" y="642" type="line"/>
      <point x="115" y="306" type="line"/>
      <point x="74" y="331" type="line"/>
      <point x="354" y="698" type="line"/>
      <point x="414" y="698" type="line"/>
      <point x="548" y="328" type="line"/>
      <point x="504" y="306" type="line"/>
    </contour>
  </outline>
</glyph>
<glyph name="underscore" format="2">
  <advance width="552"/>
  <unicode hex="005F"/>
  <outline>
    <contour>
      <point x="441" y="-154" type="line"/>
      <point x="451" y="-107" type="line"/>
      <point x="-44" y="-107" type="line"/>
      <point x="-54" y="-154" type="line"/>
    </contour>
  </outline>
</glyph>
<glyph name="grave" format="2">
  <advance width="596"/>
  <unicode hex="0060"/>
  <outline>
    <contour>
      <point x="219" y="742" type="line"/>
      <point x="268" y="766" type="line"/>
      <point x="336" y="602" type="line"/>
      <point x="303" y="586" type="line"/>
    </contour>
  </outline>
</glyph>
<glyph name="f" format="2">
  <advance width="297"/>
  <unicode hex="0066"/>
  <outline>
    <contour>
      <point x="4" y="-200" type="line"/>
      <point x="48" y="-200"/>
      <point x="89" y="-157"/>
      <point x="96" y="-118" type="qcurve"/>
      <point x="212" y="463" type="line"/>
      <point x="314" y="463" type="line"/>
      <point x="324" y="512" type="line"/>
      <point x="221" y="512" type="line"/>
      <point x="257" y="691" type="line"/>
      <point x="362" y="691" type="line"/>
      <point x="372" y="740" type="line"/>
      <point x="287" y="740" type="line"/>
      <point x="242" y="740"/>
      <point x="202" y="697"/>
      <point x="195" y="658" type="qcurve"/>
      <point x="166" y="512" type="line"/>
      <point x="75" y="512" type="line"/>
      <point x="66" y="463" type="line"/>
      <point x="157" y="463" type="line"/>
      <point x="33" y="-151" type="line"/>
      <point x="-60" y="-151" type="line"/>
      <point x="-70" y="-200" type="line"/>
    </contour>
  </outline>
</glyph>
<glyph name="k" format="2">
  <advance width="503"/>
  <unicode hex="006B"/>
  <outline>
    <contour>
      <point x="403" y="0" type="line" smooth="yes"/>
      <point x="377" y="0"/>
      <point x="349" y="18"/>
      <point x="340" y="41" type="qcurve"/>
      <point x="233" y="270" type="line"/>
      <point x="135" y="184" type="line"/>
      <point x="98" y="0" type="line"/>
      <point x="43" y="0" type="line"/>
      <point x="191" y="740" type="line"/>
      <point x="246" y="740" type="line"/>
      <point x="149" y="254" type="line"/>
      <point x="153" y="254" type="line"/>
      <point x="298" y="384"/>
      <point x="444" y="512" type="qcurve"/>
      <point x="512" y="512" type="line"/>
      <point x="277" y="302" type="line"/>
      <point x="396" y="49" type="line"/>
      <point x="459" y="49" type="line"/>
      <point x="449" y="0" type="line"/>
    </contour>
  </outline>
</glyph>
<glyph name="l" format="2">
  <advance width="253"/>
  <unicode hex="006C"/>
  <outline>
    <contour>
      <point x="105" y="0" type="line" smooth="yes"/>
      <point x="54" y="0"/>
      <point x="54" y="46" type="qcurve" smooth="yes"/>
      <point x="54" y="57"/>
      <point x="56" y="64"/>
      <point x="191" y="740" type="qcurve"/>
      <point x="246" y="740" type="line"/>
      <point x="108" y="49" type="line"/>
      <point x="189" y="49" type="line"/>
      <point x="179" y="0" type="line"/>
    </contour>
  </outline>
</glyph>
<glyph name="m" format="2">
  <advance width="846"/>
  <unicode hex="006D"/>
  <outline>
    <contour>
      <point x="777" y="0" type="line"/>
      <point x="787" y="49" type="line"/>
      <point x="709" y="49" type="line"/>
      <point x="763" y="320" type="line"/>
      <point x="770" y="356"/>
      <point x="770" y="386" type="qcurve"/>
      <point x="770" y="452"/>
      <point x="705" y="524"/>
      <point x="641" y="524" type="qcurve"/>
      <point x="527" y="524"/>
      <point x="473" y="406" type="qcurve"/>
      <point x="468" y="406" type="line"/>
      <point x="464" y="460"/>
      <point x="403" y="524"/>
      <point x="346" y="524" type="qcurve"/>
      <point x="288" y="524"/>
      <point x="211" y="465"/>
      <point x="184" y="409" type="qcurve"/>
      <point x="180" y="409" type="line"/>
      <point x="201" y="512" type="line"/>
      <point x="145" y="512" type="line"/>
      <point x="43" y="0" type="line"/>
      <point x="98" y="0" type="line"/>
      <point x="157" y="297" type="line"/>
      <point x="171" y="357"/>
      <point x="214" y="414" type="qcurve"/>
      <point x="259" y="474"/>
      <point x="328" y="474" type="qcurve"/>
      <point x="414" y="474"/>
      <point x="414" y="379" type="qcurve"/>
      <point x="414" y="355"/>
      <point x="407" y="319" type="qcurve"/>
      <point x="343" y="0" type="line"/>
      <point x="398" y="0" type="line"/>
      <point x="459" y="300" type="line"/>
      <point x="475" y="375"/>
      <point x="564" y="474"/>
      <point x="624" y="474" type="qcurve"/>
      <point x="714" y="474"/>
      <point x="714" y="378" type="qcurve"/>
      <point x="714" y="356"/>
      <point x="708" y="319" type="qcurve"/>
      <point x="654" y="50"/>
      <point x="654" y="42" type="qcurve"/>
      <point x="654" y="0"/>
      <point x="703" y="0" type="qcurve"/>
    </contour>
  </outline>
</glyph>
<glyph name="p" format="2">
  <advance width="566"/>
  <unicode hex="0070"/>
  <outline>
    <contour>
      <point x="57" y="-200" type="line"/>
      <point x="114" y="87" type="line"/>
      <point x="117" y="87" type="line"/>
      <point x="130" y="39"/>
      <point x="207" y="-12"/>
      <point x="261" y="-12" type="qcurve"/>
      <point x="323" y="-12"/>
      <point x="417" y="48"/>
      <point x="480" y="147"/>
      <point x="511" y="269"/>
      <point x="511" y="331" type="qcurve"/>
      <point x="511" y="417"/>
      <point x="469" y="471" type="qcurve"/>
      <point x="426" y="524"/>
      <point x="352" y="524" type="qcurve"/>
      <point x="292" y="524"/>
      <point x="211" y="462"/>
      <point x="180" y="400" type="qcurve"/>
      <point x="177" y="400" type="line"/>
      <point x="200" y="512" type="line"/>
      <point x="145" y="512" type="line"/>
      <point x="2" y="-200" type="line"/>
    </contour>
    <contour>
      <point x="256" y="38" type="qcurve"/>
      <point x="183" y="38"/>
      <point x="150" y="80" type="qcurve"/>
      <point x="128" y="109"/>
      <point x="128" y="144" type="qcurve"/>
      <point x="128" y="157"/>
      <point x="131" y="171" type="qcurve"/>
      <point x="155" y="290" type="line"/>
      <point x="174" y="380"/>
      <point x="231" y="427" type="qcurve"/>
      <point x="275" y="474"/>
      <point x="339" y="474" type="qcurve"/>
      <point x="399" y="474"/>
      <point x="455" y="396"/>
      <point x="455" y="337" type="qcurve"/>
      <point x="455" y="303"/>
      <point x="450" y="278" type="qcurve"/>
      <point x="438" y="218" type="line"/>
      <point x="421" y="133"/>
      <point x="328" y="38"/>
    </contour>
  </outline>
</glyph>
<glyph name="s" format="2">
  <advance width="477"/>
  <unicode hex="0073"/>
  <outline>
    <contour>
      <point x="214" y="-12" type="qcurve"/>
      <point x="299" y="-12"/>
      <point x="396" y="69"/>
      <point x="396" y="141" type="qcurve"/>
      <point x="396" y="231"/>
      <point x="271" y="277" type="qcurve"/>
      <point x="232" y="291" type="line"/>
      <point x="140" y="324"/>
      <point x="140" y="382" type="qcurve"/>
      <point x="140" y="472"/>
      <point x="256" y="475" type="qcurve"/>
      <point x="345" y="475"/>
      <point x="396" y="410" type="qcurve"/>
      <point x="434" y="445" type="line"/>
      <point x="370" y="524"/>
      <point x="259" y="524" type="qcurve"/>
      <point x="186" y="524"/>
      <point x="85" y="452"/>
      <point x="85" y="381" type="qcurve"/>
      <point x="85" y="285"/>
      <point x="214" y="242" type="qcurve"/>
      <point x="254" y="227" type="line"/>
      <point x="340" y="198"/>
      <point x="340" y="133" type="qcurve"/>
      <point x="340" y="40"/>
      <point x="218" y="37" type="qcurve"/>
      <point x="116" y="37"/>
      <point x="59" y="119" type="qcurve"/>
      <point x="17" y="86" type="line"/>
      <point x="88" y="-12"/>
    </contour>
  </outline>
</glyph>
<glyph name="v" format="2">
  <advance width="475"/>
  <unicode hex="0076"/>
  <outline>
    <contour>
      <point x="153" y="0" type="line"/>
      <point x="69" y="512" type="line"/>
      <point x="123" y="512" type="line"/>
      <point x="193" y="61" type="line"/>
      <point x="197" y="61" type="line"/>
      <point x="444" y="512" type="line"/>
      <point x="503" y="512" type="line"/>
      <point x="218" y="0" type="line"/>
    </contour>
  </outline>
</glyph>
<glyph name="w" format="2">
  <advance width="731"/>
  <unicode hex="0077"/>
  <outline>
    <contour>
      <point x="506" y="0" type="line"/>
      <point x="749" y="512" type="line"/>
      <point x="695" y="512" type="line"/>
      <point x="484" y="62" type="line"/>
      <point x="480" y="62" type="line"/>
      <point x="439" y="512" type="line"/>
      <point x="384" y="512" type="line"/>
      <point x="163" y="60" type="line"/>
      <point x="159" y="60" type="line"/>
      <point x="130" y="512" type="line"/>
      <point x="77" y="512" type="line"/>
      <point x="115" y="0" type="line"/>
      <point x="185" y="0" type="line"/>
      <point x="395" y="429" type="line"/>
      <point x="399" y="429" type="line"/>
      <point x="439" y="0" type="line"/>
    </contour>
  </outline>
</glyph>
<glyph name="z" format="2">
  <advance width="441"/>
  <unicode hex="007A"/>
  <outline>
    <contour>
      <point x="359" y="0" type="line"/>
      <point x="369" y="49" type="line"/>
      <point x="72" y="49" type="line"/>
      <point x="437" y="464" type="line"/>
      <point x="446" y="512" type="line"/>
      <point x="97" y="512" type="line"/>
      <point x="88" y="463" type="line"/>
      <point x="371" y="463" type="line"/>
      <point x="6" y="48" type="line"/>
      <point x="-3" y="0" type="line"/>
    </contour>
  </outline>
</glyph>
<glyph name="braceleft" format="2">
  <advance width="324"/>
  <unicode hex="007B"/>
  <outline>
    <contour>
      <point x="184" y="-138" type="line"/>
      <point x="195" y="-93" type="line"/>
      <point x="98" y="-93" type="line"/>
      <point x="154" y="186" type="line"/>
      <point x="158" y="202"/>
      <point x="158" y="218" type="qcurve"/>
      <point x="158" y="292"/>
      <point x="82" y="301" type="qcurve"/>
      <point x="85" y="317" type="line"/>
      <point x="183" y="326"/>
      <point x="204" y="436" type="qcurve"/>
      <point x="259" y="715" type="line"/>
      <point x="355" y="715" type="line"/>
      <point x="363" y="760" type="line"/>
      <point x="271" y="760" type="line"/>
      <point x="219" y="760"/>
      <point x="206" y="699" type="qcurve"/>
      <point x="153" y="433" type="line"/>
      <point x="137" y="344"/>
      <point x="43" y="344" type="qcurve"/>
      <point x="30" y="278" type="line"/>
      <point x="107" y="278"/>
      <point x="107" y="215" type="qcurve"/>
      <point x="107" y="205"/>
      <point x="104" y="189" type="qcurve"/>
      <point x="49" y="-87"/>
      <point x="49" y="-93" type="qcurve"/>
      <point x="49" y="-113"/>
      <point x="74" y="-138"/>
      <point x="98" y="-138" type="qcurve"/>
    </contour>
  </outline>
</glyph>
<glyph name="braceright" format="2">
  <advance width="324"/>
  <unicode hex="007D"/>
  <outline>
    <contour>
      <point x="75" y="-138" type="line"/>
      <point x="128" y="-138"/>
      <point x="139" y="-77" type="qcurve"/>
      <point x="193" y="189" type="line"/>
      <point x="210" y="278"/>
      <point x="302" y="278" type="qcurve"/>
      <point x="316" y="344" type="line"/>
      <point x="238" y="344"/>
      <point x="238" y="407" type="qcurve"/>
      <point x="238" y="418"/>
      <point x="241" y="433" type="qcurve"/>
      <point x="296" y="706" type="line"/>
      <point x="296" y="715" type="line"/>
      <point x="296" y="735"/>
      <point x="272" y="760"/>
      <point x="248" y="760" type="qcurve"/>
      <point x="161" y="760" type="line"/>
      <point x="151" y="715" type="line"/>
      <point x="248" y="715" type="line"/>
      <point x="192" y="436" type="line"/>
      <point x="188" y="421"/>
      <point x="188" y="404" type="qcurve"/>
      <point x="188" y="331"/>
      <point x="264" y="320" type="qcurve"/>
      <point x="260" y="304" type="line"/>
      <point x="161" y="295"/>
      <point x="142" y="186" type="qcurve"/>
      <point x="87" y="-93" type="line"/>
      <point x="-9" y="-93" type="line"/>
      <point x="-17" y="-138" type="line"/>
    </contour>
  </outline>
</glyph>
<glyph name="asciitilde" format="2">
  <advance width="600"/>
  <unicode hex="007E"/>
  <outline>
    <contour>
      <point x="416" y="244" type="qcurve" smooth="yes"/>
      <point x="384" y="244"/>
      <point x="332" y="263"/>
      <point x="299" y="282" type="qcurve" smooth="yes"/>
      <point x="270" y="298"/>
      <point x="222" y="317"/>
      <point x="193" y="317" type="qcurve" smooth="yes"/>
      <point x="167" y="317"/>
      <point x="125" y="299"/>
      <point x="99" y="280" type="qcurve"/>
      <point x="79" y="314" type="line"/>
      <point x="105" y="338"/>
      <point x="164" y="365"/>
      <point x="204" y="365" type="qcurve" smooth="yes"/>
      <point x="236" y="365"/>
      <point x="262" y="356" type="qcurve" smooth="yes"/>
      <point x="282" y="349"/>
      <point x="304" y="336" type="qcurve"/>
      <point x="350" y="311"/>
      <point x="398" y="292"/>
      <point x="427" y="292" type="qcurve" smooth="yes"/>
      <point x="453" y="292"/>
      <point x="495" y="310"/>
      <point x="521" y="329" type="qcurve"/>
      <point x="541" y="295" type="line"/>
      <point x="515" y="271"/>
      <point x="456" y="244"/>
    </contour>
  </outline>
</glyph>
<glyph name="exclamdown" format="2">
  <advance width="262"/>
  <unicode hex="00A1"/>
  <outline>
    <contour>
      <point x="166" y="420" type="qcurve"/>
      <point x="125" y="421"/>
      <point x="125" y="452" type="qcurve" smooth="yes"/>
      <point x="125" y="469"/>
      <point x="129" y="480" type="qcurve"/>
      <point x="135" y="521"/>
      <point x="179" y="521" type="qcurve" smooth="yes"/>
      <point x="220" y="521"/>
      <point x="220" y="489" type="qcurve" smooth="yes"/>
      <point x="220" y="472"/>
      <point x="216" y="461" type="qcurve"/>
      <point x="210" y="420"/>
    </contour>
    <contour>
      <point x="13" y="-185" type="line"/>
      <point x="60" y="50" type="line"/>
      <point x="132" y="331" type="line"/>
      <point x="160" y="331" type="line"/>
      <point x="119" y="50" type="line"/>
      <point x="73" y="-185" type="line"/>
    </contour>
  </outline>
</glyph>
<glyph name="cent" format="2">
  <advance width="498"/>
  <unicode hex="00A2"/>
  <outline>
    <contour>
      <point x="213" y="-114" type="line"/>
      <point x="233" y="-12" type="line"/>
      <point x="360" y="-9"/>
      <point x="431" y="123" type="qcurve"/>
      <point x="387" y="144" type="line"/>
      <point x="328" y="38"/>
      <point x="243" y="36" type="qcurve"/>
      <point x="329" y="472" type="line"/>
      <point x="398" y="457"/>
      <point x="417" y="385" type="qcurve"/>
      <point x="466" y="406" type="line"/>
      <point x="439" y="498"/>
      <point x="340" y="520" type="qcurve"/>
      <point x="362" y="626" type="line"/>
      <point x="312" y="626" type="line"/>
      <point x="292" y="523" type="line"/>
      <point x="177" y="514"/>
      <point x="54" y="327"/>
      <point x="54" y="195" type="qcurve"/>
      <point x="54" y="114"/>
      <point x="122" y="8"/>
      <point x="186" y="-7" type="qcurve"/>
      <point x="164" y="-114" type="line"/>
    </contour>
    <contour>
      <point x="196" y="42" type="line"/>
      <point x="150" y="54"/>
      <point x="108" y="131"/>
      <point x="108" y="183" type="qcurve"/>
      <point x="108" y="212"/>
      <point x="113" y="236" type="qcurve"/>
      <point x="127" y="306" type="line"/>
      <point x="157" y="456"/>
      <point x="282" y="473" type="qcurve"/>
    </contour>
  </outline>
</glyph>
<glyph name="yen" format="2">
  <advance width="583"/>
  <unicode hex="00A5"/>
  <outline>
    <contour>
      <point x="269" y="0" type="line"/>
      <point x="300" y="154" type="line"/>
      <point x="481" y="154" type="line"/>
      <point x="491" y="201" type="line"/>
      <point x="309" y="201" type="line"/>
      <point x="332" y="315" type="line"/>
      <point x="514" y="315" type="line"/>
      <point x="524" y="362" type="line"/>
      <point x="368" y="362" type="line"/>
      <point x="632" y="698" type="line"/>
      <point x="565" y="698" type="line"/>
      <point x="313" y="371" type="line"/>
      <point x="309" y="371" type="line"/>
      <point x="190" y="698" type="line"/>
      <point x="129" y="698" type="line"/>
      <point x="256" y="362" type="line"/>
      <point x="106" y="362" type="line"/>
      <point x="96" y="315" type="line"/>
      <point x="275" y="315" type="line"/>
      <point x="252" y="201" type="line"/>
      <point x="73" y="201" type="line"/>
      <point x="63" y="154" type="line"/>
      <point x="243" y="154" type="line"/>
      <point x="211" y="0" type="line"/>
    </contour>
  </outline>
</glyph>
<glyph name="brokenbar" format="2">
  <advance width="277"/>
  <unicode hex="00A6"/>
  <outline>
    <contour>
      <point x="192" y="404" type="line"/>
      <point x="264" y="760" type="line"/>
      <point x="216" y="760" type="line"/>
      <point x="144" y="404" type="line"/>
    </contour>
    <contour>
      <point x="84" y="-138" type="line"/>
      <point x="156" y="218" type="line"/>
      <point x="108" y="218" type="line"/>
      <point x="36" y="-138" type="line"/>
    </contour>
  </outline>
</glyph>
<glyph name="section" format="2">
  <advance width="560"/>
  <unicode hex="00A7"/>
  <outline>
    <contour>
      <point x="198" y="-155" type="qcurve"/>
      <point x="282" y="-155"/>
      <point x="399" y="-63"/>
      <point x="399" y="16" type="qcurve"/>
      <point x="399" y="87"/>
      <point x="343" y="129" type="qcurve"/>
      <point x="344" y="136" type="line"/>
      <point x="408" y="151"/>
      <point x="485" y="231"/>
      <point x="485" y="294" type="qcurve"/>
      <point x="485" y="342"/>
      <point x="431" y="402"/>
      <point x="369" y="422" type="qcurve"/>
      <point x="303" y="444" type="line"/>
      <point x="219" y="469"/>
      <point x="219" y="545" type="qcurve"/>
      <point x="219" y="599"/>
      <point x="300" y="661"/>
      <point x="358" y="661" type="qcurve"/>
      <point x="436" y="661"/>
      <point x="486" y="615" type="qcurve"/>
      <point x="524" y="653" type="line"/>
      <point x="467" y="710"/>
      <point x="363" y="710" type="qcurve"/>
      <point x="279" y="710"/>
      <point x="162" y="619"/>
      <point x="162" y="539" type="qcurve"/>
      <point x="162" y="469"/>
      <point x="218" y="426" type="qcurve"/>
      <point x="217" y="419" type="line"/>
      <point x="153" y="404"/>
      <point x="76" y="324"/>
      <point x="76" y="261" type="qcurve"/>
      <point x="76" y="213"/>
      <point x="130" y="153"/>
      <point x="192" y="133" type="qcurve"/>
      <point x="258" y="111" type="line"/>
      <point x="342" y="87"/>
      <point x="342" y="10" type="qcurve"/>
      <point x="342" y="-44"/>
      <point x="262" y="-106"/>
      <point x="203" y="-106" type="qcurve"/>
      <point x="125" y="-106"/>
      <point x="75" y="-60" type="qcurve"/>
      <point x="37" y="-98" type="line"/>
      <point x="95" y="-155"/>
    </contour>
    <contour>
      <point x="315" y="145" type="qcurve"/>
      <point x="226" y="175" type="line"/>
      <point x="176" y="190"/>
      <point x="133" y="236"/>
      <point x="133" y="278" type="qcurve"/>
      <point x="133" y="368"/>
      <point x="246" y="410" type="qcurve"/>
      <point x="335" y="380" type="line"/>
      <point x="385" y="364"/>
      <point x="428" y="319"/>
      <point x="428" y="277" type="qcurve"/>
      <point x="428" y="187"/>
    </contour>
  </outline>
</glyph>
<glyph name="dieresis" format="2">
  <advance width="596"/>
  <unicode hex="00A8"/>
  <outline>
    <contour>
      <point x="223" y="626" type="qcurve"/>
      <point x="261" y="626"/>
      <point x="266" y="658" type="qcurve"/>
      <point x="269" y="673" type="line"/>
      <point x="269" y="680" type="line"/>
      <point x="269" y="708"/>
      <point x="235" y="708" type="qcurve"/>
      <point x="198" y="708"/>
      <point x="192" y="676" type="qcurve"/>
      <point x="189" y="654" type="line"/>
      <point x="189" y="626"/>
    </contour>
    <contour>
      <point x="405" y="626" type="qcurve"/>
      <point x="443" y="626"/>
      <point x="448" y="658" type="qcurve"/>
      <point x="451" y="673" type="line"/>
      <point x="451" y="680" type="line"/>
      <point x="451" y="708"/>
      <point x="417" y="708" type="qcurve"/>
      <point x="380" y="708"/>
      <point x="374" y="676" type="qcurve"/>
      <point x="371" y="654" type="line"/>
      <point x="371" y="626"/>
    </contour>
  </outline>
</glyph>
<glyph name="copyright" format="2">
  <advance width="752"/>
  <unicode hex="00A9"/>
  <outline>
    <contour>
      <point x="342" y="-12" type="qcurve"/>
      <point x="506" y="-12"/>
      <point x="618" y="106" type="qcurve"/>
      <point x="670" y="163"/>
      <point x="729" y="317"/>
      <point x="729" y="409" type="qcurve"/>
      <point x="729" y="543"/>
      <point x="650" y="627" type="qcurve"/>
      <point x="571" y="709"/>
      <point x="440" y="709" type="qcurve"/>
      <point x="277" y="709"/>
      <point x="164" y="591" type="qcurve"/>
      <point x="112" y="534"/>
      <point x="53" y="380"/>
      <point x="53" y="288" type="qcurve"/>
      <point x="53" y="152"/>
      <point x="212" y="-12"/>
    </contour>
    <contour>
      <point x="344" y="30" type="qcurve"/>
      <point x="232" y="30"/>
      <point x="100" y="173"/>
      <point x="100" y="288" type="qcurve"/>
      <point x="100" y="326"/>
      <point x="116" y="401" type="qcurve"/>
      <point x="140" y="514"/>
      <point x="227" y="589" type="qcurve"/>
      <point x="317" y="667"/>
      <point x="438" y="667" type="qcurve"/>
      <point x="548" y="667"/>
      <point x="616" y="596" type="qcurve"/>
      <point x="682" y="525"/>
      <point x="682" y="409" type="qcurve"/>
      <point x="682" y="372"/>
      <point x="666" y="296" type="qcurve"/>
      <point x="642" y="183"/>
      <point x="556" y="108" type="qcurve"/>
      <point x="466" y="30"/>
    </contour>
    <contour>
      <point x="364" y="153" type="qcurve"/>
      <point x="412" y="153"/>
      <point x="487" y="201"/>
      <point x="510" y="239" type="qcurve"/>
      <point x="475" y="265" type="line"/>
      <point x="431" y="197"/>
      <point x="369" y="197" type="qcurve"/>
      <point x="328" y="197"/>
      <point x="284" y="251"/>
      <point x="284" y="296" type="qcurve"/>
      <point x="284" y="310"/>
      <point x="292" y="353"/>
      <point x="296" y="375" type="qcurve"/>
      <point x="324" y="500"/>
      <point x="420" y="500" type="qcurve"/>
      <point x="486" y="500"/>
      <point x="505" y="437" type="qcurve"/>
      <point x="547" y="454" type="line"/>
      <point x="536" y="490"/>
      <point x="474" y="543"/>
      <point x="423" y="543" type="qcurve"/>
      <point x="339" y="543"/>
      <point x="233" y="403"/>
      <point x="233" y="301" type="qcurve"/>
      <point x="233" y="229"/>
      <point x="304" y="153"/>
    </contour>
  </outline>
</glyph>
<glyph name="ordfeminine" format="2">
  <advance width="376"/>
  <unicode hex="00AA"/>
  <outline>
    <contour>
      <point x="169" y="356" type="qcurve"/>
      <point x="213" y="356"/>
      <point x="272" y="391"/>
      <point x="287" y="414" type="qcurve"/>
      <point x="290" y="414" type="line"/>
      <point x="286" y="394"/>
      <point x="286" y="390" type="qcurve"/>
      <point x="286" y="363"/>
      <point x="323" y="363" type="qcurve"/>
      <point x="362" y="363" type="line"/>
      <point x="370" y="403" type="line"/>
      <point x="330" y="403" type="line"/>
      <point x="365" y="581" type="line"/>
      <point x="368" y="600"/>
      <point x="368" y="612" type="qcurve"/>
      <point x="368" y="661"/>
      <point x="310" y="710"/>
      <point x="259" y="710" type="qcurve"/>
      <point x="213" y="710"/>
      <point x="144" y="671"/>
      <point x="123" y="641" type="qcurve"/>
      <point x="151" y="618" type="line"/>
      <point x="190" y="672"/>
      <point x="254" y="672" type="qcurve"/>
      <point x="324" y="672"/>
      <point x="324" y="614" type="qcurve"/>
      <point x="324" y="601"/>
      <point x="322" y="587" type="qcurve"/>
      <point x="315" y="550" type="line"/>
      <point x="234" y="550" type="line"/>
      <point x="153" y="550"/>
      <point x="77" y="488"/>
      <point x="77" y="434" type="qcurve"/>
      <point x="77" y="399"/>
      <point x="125" y="356"/>
    </contour>
    <contour>
      <point x="181" y="393" type="qcurve"/>
      <point x="123" y="393"/>
      <point x="122" y="438" type="qcurve"/>
      <point x="122" y="516"/>
      <point x="227" y="516" type="qcurve"/>
      <point x="308" y="516" type="line"/>
      <point x="298" y="469" type="line"/>
      <point x="290" y="433"/>
      <point x="223" y="393"/>
    </contour>
  </outline>
</glyph>
<glyph name="logicalnot" format="2">
  <advance width="600"/>
  <unicode hex="00AC"/>
  <outline>
    <contour>
      <point x="490" y="87" type="line"/>
      <point x="538" y="329" type="line"/>
      <point x="78" y="329" type="line"/>
      <point x="68" y="281" type="line"/>
      <point x="479" y="281" type="line"/>
      <point x="441" y="87" type="line"/>
    </contour>
  </outline>
</glyph>
<glyph name="softhyphen" format="2">
  <advance width="387"/>
  <unicode hex="00AD"/>
  <outline>
    <contour>
      <point x="319" y="275" type="line"/>
      <point x="330" y="333" type="line"/>
      <point x="88" y="333" type="line"/>
      <point x="76" y="275" type="line"/>
    </contour>
  </outline>
</glyph>
<glyph name="registered" format="2">
  <advance width="468"/>
  <unicode hex="00AE"/>
  <outline>
    <contour>
      <point x="258" y="298" type="qcurve" smooth="yes"/>
      <point x="185" y="298"/>
      <point x="86" y="396"/>
      <point x="86" y="469" type="qcurve" smooth="yes"/>
      <point x="86" y="561"/>
      <point x="144" y="636" type="qcurve"/>
      <point x="207" y="710"/>
      <point x="309" y="710" type="qcurve" smooth="yes"/>
      <point x="383" y="710"/>
      <point x="481" y="613"/>
      <point x="481" y="539" type="qcurve" smooth="yes"/>
      <point x="481" y="493"/>
      <point x="453" y="407"/>
      <point x="395" y="339"/>
      <point x="312" y="298"/>
    </contour>
    <contour>
      <point x="262" y="328" type="qcurve" smooth="yes"/>
      <point x="333" y="328"/>
      <point x="428" y="414"/>
      <point x="442" y="482" type="qcurve"/>
      <point x="449" y="521"/>
      <point x="449" y="537" type="qcurve" smooth="yes"/>
      <point x="449" y="599"/>
      <point x="370" y="680"/>
      <point x="305" y="680" type="qcurve" smooth="yes"/>
      <point x="235" y="680"/>
      <point x="139" y="594"/>
      <point x="125" y="526" type="qcurve" smooth="yes"/>
      <point x="118" y="488"/>
      <point x="118" y="471" type="qcurve" smooth="yes"/>
      <point x="118" y="407"/>
      <point x="198" y="328"/>
    </contour>
    <contour>
      <point x="317" y="399" type="line"/>
      <point x="288" y="484" type="line"/>
      <point x="241" y="484" type="line"/>
      <point x="225" y="399" type="line"/>
      <point x="195" y="399" type="line"/>
      <point x="237" y="609" type="line"/>
      <point x="317" y="609" type="line" smooth="yes"/>
      <point x="344" y="609"/>
      <point x="372" y="581"/>
      <point x="372" y="558" type="qcurve" smooth="yes"/>
      <point x="372" y="498"/>
      <point x="316" y="487" type="qcurve"/>
      <point x="349" y="399" type="line"/>
    </contour>
    <contour>
      <point x="297" y="508" type="line" smooth="yes"/>
      <point x="313" y="508"/>
      <point x="333" y="520"/>
      <point x="338" y="548"/>
      <point x="340" y="558"/>
      <point x="340" y="561" type="qcurve" smooth="yes"/>
      <point x="340" y="583"/>
      <point x="313" y="583" type="qcurve" smooth="yes"/>
      <point x="261" y="583" type="line"/>
      <point x="246" y="508" type="line"/>
    </contour>
  </outline>
</glyph>
<glyph name="twosuperior" format="2">
  <advance width="339"/>
  <unicode hex="00B2"/>
  <outline>
    <contour>
      <point x="308" y="329" type="line"/>
      <point x="315" y="366" type="line"/>
      <point x="107" y="366" type="line"/>
      <point x="228" y="450" type="line"/>
      <point x="276" y="483"/>
      <point x="312" y="518" type="qcurve"/>
      <point x="351" y="558"/>
      <point x="351" y="607" type="qcurve"/>
      <point x="351" y="653"/>
      <point x="287" y="704"/>
      <point x="237" y="704" type="qcurve"/>
      <point x="137" y="704"/>
      <point x="99" y="614" type="qcurve"/>
      <point x="137" y="598" type="line"/>
      <point x="165" y="666"/>
      <point x="232" y="666" type="qcurve"/>
      <point x="298" y="666"/>
      <point x="303" y="606" type="qcurve"/>
      <point x="303" y="562"/>
      <point x="269" y="529" type="qcurve"/>
      <point x="243" y="504"/>
      <point x="202" y="476" type="qcurve"/>
      <point x="57" y="373" type="line"/>
      <point x="49" y="329" type="line"/>
    </contour>
  </outline>
</glyph>
<glyph name="threesuperior" format="2">
  <advance width="341"/>
  <unicode hex="00B3"/>
  <outline>
    <contour>
      <point x="182" y="323" type="qcurve"/>
      <point x="248" y="323"/>
      <point x="325" y="390"/>
      <point x="325" y="443" type="qcurve"/>
      <point x="325" y="508"/>
      <point x="262" y="518" type="qcurve"/>
      <point x="262" y="520" type="line"/>
      <point x="301" y="526"/>
      <point x="352" y="576"/>
      <point x="352" y="615" type="qcurve"/>
      <point x="352" y="653"/>
      <point x="296" y="704"/>
      <point x="244" y="704" type="qcurve"/>
      <point x="161" y="704"/>
      <point x="115" y="645" type="qcurve"/>
      <point x="142" y="620" type="line"/>
      <point x="179" y="667"/>
      <point x="240" y="667" type="qcurve"/>
      <point x="273" y="667"/>
      <point x="306" y="638"/>
      <point x="306" y="615" type="qcurve"/>
      <point x="304" y="599" type="line"/>
      <point x="300" y="574"/>
      <point x="260" y="539"/>
      <point x="211" y="539" type="qcurve"/>
      <point x="165" y="539" type="line"/>
      <point x="158" y="502" type="line"/>
      <point x="205" y="502" type="line"/>
      <point x="280" y="502"/>
      <point x="280" y="448" type="qcurve"/>
      <point x="280" y="435"/>
      <point x="278" y="430"/>
      <point x="278" y="429" type="qcurve"/>
      <point x="272" y="396"/>
      <point x="228" y="360"/>
      <point x="183" y="360" type="qcurve"/>
      <point x="113" y="360"/>
      <point x="89" y="410" type="qcurve"/>
      <point x="56" y="387" type="line"/>
      <point x="84" y="323"/>
    </contour>
  </outline>
</glyph>
<glyph name="periodcentered" format="2">
  <advance width="309"/>
  <unicode hex="00B7"/>
  <outline>
    <contour>
      <point x="151" y="254" type="qcurve"/>
      <point x="195" y="254"/>
      <point x="201" y="295" type="qcurve"/>
      <point x="205" y="306"/>
      <point x="205" y="323" type="qcurve"/>
      <point x="205" y="355"/>
      <point x="164" y="355" type="qcurve"/>
      <point x="120" y="355"/>
      <point x="114" y="314" type="qcurve"/>
      <point x="110" y="303"/>
      <point x="110" y="286" type="qcurve"/>
      <point x="110" y="255"/>
    </contour>
  </outline>
</glyph>
<glyph name="cedilla" format="2">
  <advance width="596"/>
  <unicode hex="00B8"/>
  <outline>
    <contour>
      <point x="277" y="-205" type="qcurve" smooth="yes"/>
      <point x="243" y="-205"/>
      <point x="196" y="-185"/>
      <point x="186" y="-170" type="qcurve"/>
      <point x="216" y="-140" type="line"/>
      <point x="233" y="-166"/>
      <point x="275" y="-166" type="qcurve"/>
      <point x="332" y="-161"/>
      <point x="332" y="-121" type="qcurve" smooth="yes"/>
      <point x="332" y="-86"/>
      <point x="278" y="-82" type="qcurve" smooth="yes"/>
      <point x="248" y="-79" type="line"/>
      <point x="280" y="13" type="line"/>
      <point x="318" y="13" type="line"/>
      <point x="289" y="-66" type="line"/>
      <point x="291" y="-68" type="line"/>
      <point x="302" y="-66" type="line"/>
      <point x="311" y="-65"/>
      <point x="321" y="-65" type="qcurve" smooth="yes"/>
      <point x="379" y="-65"/>
      <point x="379" y="-120" type="qcurve" smooth="yes"/>
      <point x="379" y="-157"/>
      <point x="323" y="-205"/>
    </contour>
  </outline>
</glyph>
<glyph name="ordmasculine" format="2">
  <advance width="379"/>
  <unicode hex="00BA"/>
  <outline>
    <contour>
      <point x="216" y="356" type="qcurve"/>
      <point x="301" y="356"/>
      <point x="350" y="426" type="qcurve"/>
      <point x="394" y="489"/>
      <point x="394" y="580" type="qcurve"/>
      <point x="394" y="637"/>
      <point x="329" y="710"/>
      <point x="273" y="710" type="qcurve"/>
      <point x="189" y="710"/>
      <point x="140" y="640" type="qcurve"/>
      <point x="95" y="570"/>
      <point x="95" y="486" type="qcurve"/>
      <point x="95" y="429"/>
      <point x="160" y="356"/>
    </contour>
    <contour>
      <point x="221" y="394" type="qcurve"/>
      <point x="179" y="394"/>
      <point x="139" y="443"/>
      <point x="139" y="481" type="qcurve"/>
      <point x="139" y="498"/>
      <point x="143" y="512" type="qcurve"/>
      <point x="153" y="561" type="line"/>
      <point x="163" y="610"/>
      <point x="222" y="672"/>
      <point x="268" y="672" type="qcurve"/>
      <point x="310" y="672"/>
      <point x="350" y="623"/>
      <point x="350" y="585" type="qcurve"/>
      <point x="350" y="569"/>
      <point x="346" y="554" type="qcurve"/>
      <point x="336" y="505" type="line"/>
      <point x="326" y="456"/>
      <point x="267" y="394"/>
    </contour>
  </outline>
</glyph>
<glyph name="guillemetright" format="2">
  <advance width="485"/>
  <unicode hex="00BB"/>
  <outline>
    <contour>
      <point x="223" y="89" type="line"/>
      <point x="447" y="259" type="line"/>
      <point x="457" y="311" type="line"/>
      <point x="300" y="486" type="line"/>
      <point x="276" y="449" type="line"/>
      <point x="398" y="290" type="line"/>
      <point x="212" y="132" type="line"/>
    </contour>
    <contour>
      <point x="32" y="89" type="line"/>
      <point x="256" y="259" type="line"/>
      <point x="266" y="311" type="line"/>
      <point x="109" y="486" type="line"/>
      <point x="85" y="449" type="line"/>
      <point x="207" y="290" type="line"/>
      <point x="21" y="132" type="line"/>
    </contour>
  </outline>
</glyph>
<glyph name="onequarter" format="2">
  <advance width="795"/>
  <unicode hex="00BC"/>
  <outline>
    <contour>
      <point x="86" y="0" type="line"/>
      <point x="693" y="698" type="line"/>
      <point x="746" y="698" type="line"/>
      <point x="139" y="0" type="line"/>
    </contour>
    <contour>
      <point x="293" y="698" type="line"/>
      <point x="220" y="329" type="line"/>
      <point x="176" y="329" type="line"/>
      <point x="241" y="656" type="line"/>
      <point x="152" y="612" type="line"/>
      <point x="161" y="655" type="line"/>
      <point x="245" y="698" type="line"/>
    </contour>
    <contour>
      <point x="613" y="0" type="line"/>
      <point x="629" y="79" type="line"/>
      <point x="435" y="79" type="line"/>
      <point x="442" y="118" type="line"/>
      <point x="673" y="369" type="line"/>
      <point x="729" y="369" type="line"/>
      <point x="679" y="114" type="line"/>
      <point x="736" y="114" type="line"/>
      <point x="729" y="79" type="line"/>
      <point x="672" y="79" type="line"/>
      <point x="655" y="0" type="line"/>
    </contour>
    <contour>
      <point x="677" y="319" type="line"/>
      <point x="674" y="319" type="line"/>
      <point x="484" y="114" type="line"/>
      <point x="636" y="114" type="line"/>
    </contour>
  </outline>
</glyph>
<glyph name="onehalf" format="2">
  <advance width="810"/>
  <unicode hex="00BD"/>
  <outline>
    <contour>
      <point x="139" y="0" type="line"/>
      <point x="746" y="698" type="line"/>
      <point x="693" y="698" type="line"/>
      <point x="86" y="0" type="line"/>
    </contour>
    <contour>
      <point x="717" y="0" type="line"/>
      <point x="725" y="37" type="line"/>
      <point x="517" y="37" type="line"/>
      <point x="638" y="121" type="line"/>
      <point x="686" y="154"/>
      <point x="722" y="189" type="qcurve"/>
      <point x="761" y="229"/>
      <point x="761" y="278" type="qcurve"/>
      <point x="761" y="324"/>
      <point x="697" y="375"/>
      <point x="647" y="375" type="qcurve"/>
      <point x="547" y="375"/>
      <point x="509" y="285" type="qcurve"/>
      <point x="547" y="269" type="line"/>
      <point x="574" y="337"/>
      <point x="642" y="337" type="qcurve"/>
      <point x="708" y="337"/>
      <point x="713" y="277" type="qcurve"/>
      <point x="713" y="233"/>
      <point x="679" y="200" type="qcurve"/>
      <point x="653" y="175"/>
      <point x="612" y="147" type="qcurve"/>
      <point x="467" y="44" type="line"/>
      <point x="458" y="0" type="line"/>
    </contour>
    <contour>
      <point x="220" y="329" type="line"/>
      <point x="176" y="329" type="line"/>
      <point x="241" y="656" type="line"/>
      <point x="152" y="612" type="line"/>
      <point x="161" y="655" type="line"/>
      <point x="245" y="698" type="line"/>
      <point x="293" y="698" type="line"/>
    </contour>
  </outline>
</glyph>
<glyph name="questiondown" format="2">
  <advance width="463"/>
  <unicode hex="00BF"/>
  <outline>
    <contour>
      <point x="162" y="-198" type="qcurve"/>
      <point x="317" y="-198"/>
      <point x="379" y="-40" type="qcurve"/>
      <point x="330" y="-21" type="line"/>
      <point x="308" y="-79"/>
      <point x="231" y="-147"/>
      <point x="166" y="-147" type="qcurve"/>
      <point x="107" y="-147"/>
      <point x="46" y="-87"/>
      <point x="46" y="-36" type="qcurve"/>
      <point x="47" y="-16" type="line"/>
      <point x="58" y="132"/>
      <point x="260" y="148" type="qcurve"/>
      <point x="293" y="316" type="line"/>
      <point x="239" y="316" type="line"/>
      <point x="214" y="190" type="line"/>
      <point x="102" y="173"/>
      <point x="45" y="112" type="qcurve"/>
      <point x="-14" y="47"/>
      <point x="-14" y="-39" type="qcurve"/>
      <point x="-14" y="-113"/>
      <point x="81" y="-198"/>
    </contour>
    <contour>
      <point x="288" y="420" type="qcurve"/>
      <point x="332" y="420"/>
      <point x="338" y="461" type="qcurve"/>
      <point x="342" y="472"/>
      <point x="342" y="489" type="qcurve"/>
      <point x="342" y="521"/>
      <point x="301" y="521" type="qcurve"/>
      <point x="257" y="521"/>
      <point x="251" y="480" type="qcurve"/>
      <point x="247" y="469"/>
      <point x="247" y="452" type="qcurve"/>
      <point x="247" y="421"/>
    </contour>
  </outline>
</glyph>
<glyph name="Agrave" format="2">
  <advance width="612"/>
  <unicode hex="00C0"/>
  <outline>
    <contour>
      <point x="536" y="0" type="line"/>
      <point x="426" y="698" type="line"/>
      <point x="349" y="698" type="line"/>
      <point x="-21" y="0" type="line"/>
      <point x="41" y="0" type="line"/>
      <point x="154" y="217" type="line"/>
      <point x="443" y="217" type="line"/>
      <point x="477" y="0" type="line"/>
    </contour>
    <contour>
      <point x="437" y="268" type="line"/>
      <point x="181" y="268" type="line"/>
      <point x="375" y="641" type="line"/>
      <point x="379" y="641" type="line"/>
    </contour>
    <contour>
      <point x="400" y="760" type="line"/>
      <point x="434" y="776" type="line"/>
      <point x="365" y="942" type="line"/>
      <point x="316" y="918" type="line"/>
    </contour>
  </outline>
</glyph>
<glyph name="Atilde" format="2">
  <advance width="612"/>
  <unicode hex="00C3"/>
  <outline>
    <contour>
      <point x="536" y="0" type="line"/>
      <point x="426" y="698" type="line"/>
      <point x="349" y="698" type="line"/>
      <point x="-21" y="0" type="line"/>
      <point x="41" y="0" type="line"/>
      <point x="154" y="217" type="line"/>
      <point x="443" y="217" type="line"/>
      <point x="477" y="0" type="line"/>
    </contour>
    <contour>
      <point x="437" y="268" type="line"/>
      <point x="181" y="268" type="line"/>
      <point x="375" y="641" type="line"/>
      <point x="379" y="641" type="line"/>
    </contour>
    <contour>
      <point x="475" y="792" type="qcurve"/>
      <point x="526" y="792"/>
      <point x="568" y="840" type="qcurve"/>
      <point x="547" y="868" type="line"/>
      <point x="518" y="839"/>
      <point x="483" y="839" type="qcurve"/>
      <point x="455" y="839"/>
      <point x="419" y="863" type="qcurve"/>
      <point x="402" y="875"/>
      <point x="368" y="891"/>
      <point x="345" y="891" type="qcurve"/>
      <point x="294" y="891"/>
      <point x="252" y="843" type="qcurve"/>
      <point x="273" y="815" type="line"/>
      <point x="303" y="844"/>
      <point x="337" y="844" type="qcurve"/>
      <point x="366" y="844"/>
      <point x="401" y="820" type="qcurve"/>
      <point x="418" y="808"/>
      <point x="452" y="792"/>
    </contour>
  </outline>
</glyph>
<glyph name="Aring" format="2">
  <advance width="612"/>
  <unicode hex="00C5"/>
  <outline>
    <contour>
      <point x="402" y="755" type="qcurve" smooth="yes"/>
      <point x="357" y="755"/>
      <point x="312" y="808"/>
      <point x="312" y="844" type="qcurve" smooth="yes"/>
      <point x="312" y="900"/>
      <point x="377" y="966"/>
      <point x="432" y="966" type="qcurve" smooth="yes"/>
      <point x="477" y="966"/>
      <point x="522" y="913"/>
      <point x="522" y="877" type="qcurve" smooth="yes"/>
      <point x="522" y="821"/>
      <point x="457" y="755"/>
    </contour>
    <contour>
      <point x="407" y="791" type="qcurve" smooth="yes"/>
      <point x="466" y="791"/>
      <point x="477" y="851" type="qcurve" smooth="yes"/>
      <point x="481" y="871"/>
      <point x="481" y="881" type="qcurve" smooth="yes"/>
      <point x="481" y="930"/>
      <point x="427" y="930" type="qcurve" smooth="yes"/>
      <point x="369" y="930"/>
      <point x="357" y="870" type="qcurve" smooth="yes"/>
      <point x="353" y="851"/>
      <point x="353" y="840" type="qcurve" smooth="yes"/>
      <point x="353" y="791"/>
    </contour>
    <contour>
      <point x="477" y="0" type="line"/>
      <point x="443" y="217" type="line"/>
      <point x="154" y="217" type="line"/>
      <point x="41" y="0" type="line"/>
      <point x="-21" y="0" type="line"/>
      <point x="349" y="698" type="line"/>
      <point x="426" y="698" type="line"/>
      <point x="536" y="0" type="line"/>
    </contour>
    <contour>
      <point x="379" y="641" type="line"/>
      <point x="375" y="641" type="line"/>
      <point x="181" y="268" type="line"/>
      <point x="437" y="268" type="line"/>
    </contour>
  </outline>
</glyph>
<glyph name="Ecircumflex" format="2">
  <advance width="560"/>
  <unicode hex="00CA"/>
  <outline>
    <contour>
      <point x="453" y="0" type="line"/>
      <point x="463" y="52" type="line"/>
      <point x="114" y="52" type="line"/>
      <point x="169" y="329" type="line"/>
      <point x="484" y="329" type="line"/>
      <point x="494" y="380" type="line"/>
      <point x="179" y="380" type="line"/>
      <point x="233" y="646" type="line"/>
      <point x="572" y="646" type="line"/>
      <point x="583" y="698" type="line"/>
      <point x="185" y="698" type="line"/>
      <point x="45" y="0" type="line"/>
    </contour>
    <contour>
      <point x="275" y="768" type="line"/>
      <point x="417" y="888" type="line"/>
      <point x="515" y="769" type="line"/>
      <point x="547" y="791" type="line"/>
      <point x="455" y="930" type="line"/>
      <point x="389" y="930" type="line"/>
      <point x="245" y="792" type="line"/>
    </contour>
  </outline>
</glyph>
<glyph name="Igrave" format="2">
  <advance width="251"/>
  <unicode hex="00CC"/>
  <outline>
    <contour>
      <point x="226" y="760" type="line"/>
      <point x="260" y="776" type="line"/>
      <point x="191" y="942" type="line"/>
      <point x="142" y="918" type="line"/>
    </contour>
    <contour>
      <point x="103" y="0" type="line"/>
      <point x="243" y="698" type="line"/>
      <point x="185" y="698" type="line"/>
      <point x="45" y="0" type="line"/>
    </contour>
  </outline>
</glyph>
<glyph name="Icircumflex" format="2">
  <advance width="251"/>
  <unicode hex="00CE"/>
  <outline>
    <contour>
      <point x="108" y="768" type="line"/>
      <point x="250" y="888" type="line"/>
      <point x="348" y="769" type="line"/>
      <point x="380" y="791" type="line"/>
      <point x="288" y="930" type="line"/>
      <point x="222" y="930" type="line"/>
      <point x="78" y="792" type="line"/>
    </contour>
    <contour>
      <point x="103" y="0" type="line"/>
      <point x="243" y="698" type="line"/>
      <point x="185" y="698" type="line"/>
      <point x="45" y="0" type="line"/>
    </contour>
  </outline>
</glyph>
<glyph name="Idieresis" format="2">
  <advance width="251"/>
  <unicode hex="00CF"/>
  <outline>
    <contour>
      <point x="141" y="800" type="qcurve"/>
      <point x="179" y="800"/>
      <point x="184" y="832" type="qcurve"/>
      <point x="187" y="847" type="line"/>
      <point x="187" y="854" type="line"/>
      <point x="187" y="882"/>
      <point x="153" y="882" type="qcurve"/>
      <point x="116" y="882"/>
      <point x="110" y="850" type="qcurve"/>
      <point x="107" y="828" type="line"/>
      <point x="107" y="800"/>
    </contour>
    <contour>
      <point x="323" y="800" type="qcurve"/>
      <point x="361" y="800"/>
      <point x="366" y="832" type="qcurve"/>
      <point x="369" y="847" type="line"/>
      <point x="369" y="854" type="line"/>
      <point x="369" y="882"/>
      <point x="335" y="882" type="qcurve"/>
      <point x="298" y="882"/>
      <point x="292" y="850" type="qcurve"/>
      <point x="289" y="828" type="line"/>
      <point x="289" y="800"/>
    </contour>
    <contour>
      <point x="103" y="0" type="line"/>
      <point x="243" y="698" type="line"/>
      <point x="185" y="698" type="line"/>
      <point x="45" y="0" type="line"/>
    </contour>
  </outline>
</glyph>
<glyph name="Eth" format="2">
  <advance width="653"/>
  <unicode hex="00D0"/>
  <outline>
    <contour>
      <point x="281" y="0" type="line"/>
      <point x="365" y="0"/>
      <point x="492" y="76"/>
      <point x="578" y="202"/>
      <point x="621" y="360"/>
      <point x="621" y="443" type="qcurve"/>
      <point x="621" y="568"/>
      <point x="498" y="698"/>
      <point x="385" y="698" type="qcurve"/>
      <point x="187" y="698" type="line"/>
      <point x="127" y="391" type="line"/>
      <point x="47" y="391" type="line"/>
      <point x="38" y="346" type="line"/>
      <point x="117" y="346" type="line"/>
      <point x="48" y="0" type="line"/>
    </contour>
    <contour>
      <point x="282" y="52" type="qcurve"/>
      <point x="117" y="52" type="line"/>
      <point x="175" y="346" type="line"/>
      <point x="321" y="346" type="line"/>
      <point x="331" y="391" type="line"/>
      <point x="185" y="391" type="line"/>
      <point x="235" y="646" type="line"/>
      <point x="381" y="646" type="line"/>
      <point x="468" y="646"/>
      <point x="561" y="549"/>
      <point x="561" y="460" type="qcurve"/>
      <point x="561" y="426"/>
      <point x="554" y="380" type="qcurve"/>
      <point x="536" y="294" type="line"/>
      <point x="514" y="185"/>
      <point x="383" y="52"/>
    </contour>
  </outline>
</glyph>
<glyph name="Ntilde" format="2">
  <advance width="681"/>
  <unicode hex="00D1"/>
  <outline>
    <contour>
      <point x="534" y="0" type="line"/>
      <point x="674" y="698" type="line"/>
      <point x="618" y="698" type="line"/>
      <point x="495" y="83" type="line"/>
      <point x="491" y="83" type="line"/>
      <point x="254" y="698" type="line"/>
      <point x="185" y="698" type="line"/>
      <point x="45" y="0" type="line"/>
      <point x="101" y="0" type="line"/>
      <point x="224" y="615" type="line"/>
      <point x="228" y="615" type="line"/>
      <point x="465" y="0" type="line"/>
    </contour>
    <contour>
      <point x="523" y="792" type="qcurve"/>
      <point x="574" y="792"/>
      <point x="616" y="840" type="qcurve"/>
      <point x="595" y="868" type="line"/>
      <point x="566" y="839"/>
      <point x="531" y="839" type="qcurve"/>
      <point x="503" y="839"/>
      <point x="467" y="863" type="qcurve"/>
      <point x="450" y="875"/>
      <point x="416" y="891"/>
      <point x="393" y="891" type="qcurve"/>
      <point x="342" y="891"/>
      <point x="300" y="843" type="qcurve"/>
      <point x="321" y="815" type="line"/>
      <point x="351" y="844"/>
      <point x="385" y="844" type="qcurve"/>
      <point x="414" y="844"/>
      <point x="449" y="820" type="qcurve"/>
      <point x="466" y="808"/>
      <point x="500" y="792"/>
    </contour>
  </outline>
</glyph>
<glyph name="Otilde" format="2">
  <advance width="671"/>
  <unicode hex="00D5"/>
  <outline>
    <contour>
      <point x="295" y="-12" type="qcurve"/>
      <point x="381" y="-12"/>
      <point x="511" y="71"/>
      <point x="598" y="207"/>
      <point x="641" y="372"/>
      <point x="641" y="454" type="qcurve"/>
      <point x="641" y="579"/>
      <point x="508" y="710"/>
      <point x="406" y="710" type="qcurve"/>
      <point x="320" y="710"/>
      <point x="190" y="627"/>
      <point x="104" y="491"/>
      <point x="60" y="326"/>
      <point x="60" y="244" type="qcurve"/>
      <point x="60" y="120"/>
      <point x="193" y="-12"/>
    </contour>
    <contour>
      <point x="300" y="40" type="qcurve"/>
      <point x="212" y="40"/>
      <point x="118" y="142"/>
      <point x="118" y="230" type="qcurve"/>
      <point x="118" y="265"/>
      <point x="126" y="314" type="qcurve"/>
      <point x="143" y="397" type="line"/>
      <point x="168" y="519"/>
      <point x="301" y="658"/>
      <point x="401" y="658" type="qcurve"/>
      <point x="489" y="658"/>
      <point x="583" y="556"/>
      <point x="583" y="468" type="qcurve"/>
      <point x="583" y="434"/>
      <point x="575" y="384" type="qcurve"/>
      <point x="558" y="301" type="line"/>
      <point x="533" y="179"/>
      <point x="400" y="40"/>
    </contour>
    <contour>
      <point x="501" y="792" type="qcurve"/>
      <point x="552" y="792"/>
      <point x="594" y="840" type="qcurve"/>
      <point x="573" y="868" type="line"/>
      <point x="544" y="839"/>
      <point x="509" y="839" type="qcurve"/>
      <point x="481" y="839"/>
      <point x="445" y="863" type="qcurve"/>
      <point x="428" y="875"/>
      <point x="394" y="891"/>
      <point x="371" y="891" type="qcurve"/>
      <point x="320" y="891"/>
      <point x="278" y="843" type="qcurve"/>
      <point x="299" y="815" type="line"/>
      <point x="329" y="844"/>
      <point x="363" y="844" type="qcurve"/>
      <point x="392" y="844"/>
      <point x="427" y="820" type="qcurve"/>
      <point x="444" y="808"/>
      <point x="478" y="792"/>
    </contour>
  </outline>
</glyph>
<glyph name="multiply" format="2">
  <advance width="600"/>
  <unicode hex="00D7"/>
  <outline>
    <contour>
      <point x="76" y="137" type="line"/>
      <point x="275" y="308" type="line"/>
      <point x="145" y="477" type="line"/>
      <point x="184" y="511" type="line"/>
      <point x="314" y="342" type="line"/>
      <point x="512" y="511" type="line"/>
      <point x="541" y="473" type="line"/>
      <point x="343" y="303" type="line"/>
      <point x="473" y="133" type="line"/>
      <point x="434" y="100" type="line"/>
      <point x="304" y="269" type="line"/>
      <point x="106" y="99" type="line"/>
    </contour>
  </outline>
</glyph>
<glyph name="Oslash" format="2">
  <advance width="671"/>
  <unicode hex="00D8"/>
  <outline>
    <contour>
      <point x="40" y="-41" type="line"/>
      <point x="126" y="56" type="line"/>
      <point x="189" y="-12"/>
      <point x="295" y="-12" type="qcurve"/>
      <point x="381" y="-12"/>
      <point x="511" y="71"/>
      <point x="598" y="207"/>
      <point x="641" y="372"/>
      <point x="641" y="454" type="qcurve"/>
      <point x="641" y="544"/>
      <point x="605" y="601" type="qcurve"/>
      <point x="698" y="707" type="line"/>
      <point x="661" y="739" type="line"/>
      <point x="575" y="642" type="line"/>
      <point x="513" y="710"/>
      <point x="406" y="710" type="qcurve"/>
      <point x="320" y="710"/>
      <point x="190" y="627"/>
      <point x="104" y="491"/>
      <point x="60" y="326"/>
      <point x="60" y="244" type="qcurve"/>
      <point x="60" y="154"/>
      <point x="96" y="97" type="qcurve"/>
      <point x="3" y="-9" type="line"/>
    </contour>
    <contour>
      <point x="135" y="140" type="line"/>
      <point x="118" y="181"/>
      <point x="118" y="230" type="qcurve"/>
      <point x="118" y="265"/>
      <point x="126" y="314" type="qcurve"/>
      <point x="143" y="397" type="line"/>
      <point x="168" y="519"/>
      <point x="301" y="658"/>
      <point x="401" y="658" type="qcurve"/>
      <point x="493" y="658"/>
      <point x="540" y="599" type="qcurve"/>
    </contour>
    <contour>
      <point x="300" y="40" type="qcurve"/>
      <point x="209" y="40"/>
      <point x="161" y="99" type="qcurve"/>
      <point x="566" y="558" type="line"/>
      <point x="583" y="518"/>
      <point x="583" y="468" type="qcurve"/>
      <point x="583" y="434"/>
      <point x="575" y="384" type="qcurve"/>
      <point x="558" y="301" type="line"/>
      <point x="533" y="179"/>
      <point x="400" y="40"/>
    </contour>
  </outline>
</glyph>
<glyph name="Ucircumflex" format="2">
  <advance width="650"/>
  <unicode hex="00DB"/>
  <outline>
    <contour>
      <point x="278" y="-12" type="qcurve"/>
      <point x="403" y="-12"/>
      <point x="532" y="117"/>
      <point x="563" y="275" type="qcurve"/>
      <point x="648" y="698" type="line"/>
      <point x="590" y="698" type="line"/>
      <point x="506" y="279" type="line"/>
      <point x="482" y="149"/>
      <point x="380" y="40"/>
      <point x="284" y="40" type="qcurve"/>
      <point x="213" y="40"/>
      <point x="140" y="113"/>
      <point x="140" y="178" type="qcurve"/>
      <point x="140" y="197"/>
      <point x="143" y="218" type="qcurve"/>
      <point x="145" y="233"/>
      <point x="237" y="698" type="qcurve"/>
      <point x="179" y="698" type="line"/>
      <point x="97" y="287" type="line"/>
      <point x="83" y="223"/>
      <point x="83" y="173" type="qcurve"/>
      <point x="83" y="83"/>
      <point x="186" y="-12"/>
    </contour>
    <contour>
      <point x="306" y="768" type="line"/>
      <point x="448" y="888" type="line"/>
      <point x="546" y="769" type="line"/>
      <point x="578" y="791" type="line"/>
      <point x="486" y="930" type="line"/>
      <point x="420" y="930" type="line"/>
      <point x="276" y="792" type="line"/>
    </contour>
  </outline>
</glyph>
<glyph name="Udieresis" format="2">
  <advance width="650"/>
  <unicode hex="00DC"/>
  <outline>
    <contour>
      <point x="278" y="-12" type="qcurve"/>
      <point x="403" y="-12"/>
      <point x="532" y="117"/>
      <point x="563" y="275" type="qcurve"/>
      <point x="648" y="698" type="line"/>
      <point x="590" y="698" type="line"/>
      <point x="506" y="279" type="line"/>
      <point x="482" y="149"/>
      <point x="380" y="40"/>
      <point x="284" y="40" type="qcurve"/>
      <point x="213" y="40"/>
      <point x="140" y="113"/>
      <point x="140" y="178" type="qcurve"/>
      <point x="140" y="197"/>
      <point x="143" y="218" type="qcurve"/>
      <point x="145" y="233"/>
      <point x="237" y="698" type="qcurve"/>
      <point x="179" y="698" type="line"/>
      <point x="97" y="287" type="line"/>
      <point x="83" y="223"/>
      <point x="83" y="173" type="qcurve"/>
      <point x="83" y="83"/>
      <point x="186" y="-12"/>
    </contour>
    <contour>
      <point x="339" y="800" type="qcurve"/>
      <point x="377" y="800"/>
      <point x="382" y="832" type="qcurve"/>
      <point x="385" y="847" type="line"/>
      <point x="385" y="854" type="line"/>
      <point x="385" y="882"/>
      <point x="351" y="882" type="qcurve"/>
      <point x="314" y="882"/>
      <point x="308" y="850" type="qcurve"/>
      <point x="305" y="828" type="line"/>
      <point x="305" y="800"/>
    </contour>
    <contour>
      <point x="521" y="800" type="qcurve"/>
      <point x="559" y="800"/>
      <point x="564" y="832" type="qcurve"/>
      <point x="567" y="847" type="line"/>
      <point x="567" y="854" type="line"/>
      <point x="567" y="882"/>
      <point x="533" y="882" type="qcurve"/>
      <point x="496" y="882"/>
      <point x="490" y="850" type="qcurve"/>
      <point x="487" y="828" type="line"/>
      <point x="487" y="800"/>
    </contour>
  </outline>
</glyph>
<glyph name="Yacute" format="2">
  <advance width="563"/>
  <unicode hex="00DD"/>
  <outline>
    <contour>
      <point x="342" y="780" type="line"/>
      <point x="461" y="943" type="line"/>
      <point x="509" y="916" type="line"/>
      <point x="376" y="760" type="line"/>
    </contour>
    <contour>
      <point x="201" y="0" type="line"/>
      <point x="257" y="281" type="line"/>
      <point x="107" y="698" type="line"/>
      <point x="166" y="698" type="line"/>
      <point x="294" y="343" type="line"/>
      <point x="298" y="343" type="line"/>
      <point x="568" y="698" type="line"/>
      <point x="635" y="698" type="line"/>
      <point x="315" y="281" type="line"/>
      <point x="259" y="0" type="line"/>
    </contour>
  </outline>
</glyph>
<glyph name="germandbls" format="2">
  <advance width="636"/>
  <unicode hex="00DF"/>
  <outline>
    <contour>
      <point x="398" y="-12" type="qcurve"/>
      <point x="475" y="-12"/>
      <point x="577" y="73"/>
      <point x="577" y="149" type="qcurve"/>
      <point x="577" y="179"/>
      <point x="569" y="199" type="qcurve"/>
      <point x="548" y="251"/>
      <point x="468" y="275" type="qcurve"/>
      <point x="424" y="289" type="line"/>
      <point x="389" y="300"/>
      <point x="359" y="336"/>
      <point x="359" y="369" type="qcurve"/>
      <point x="359" y="421"/>
      <point x="452" y="471"/>
      <point x="532" y="471" type="qcurve"/>
      <point x="565" y="471" type="line"/>
      <point x="575" y="521" type="line"/>
      <point x="581" y="555"/>
      <point x="581" y="586" type="qcurve"/>
      <point x="581" y="664"/>
      <point x="491" y="752"/>
      <point x="413" y="752" type="qcurve"/>
      <point x="212" y="752"/>
      <point x="165" y="526" type="qcurve"/>
      <point x="162" y="512" type="line"/>
      <point x="74" y="512" type="line"/>
      <point x="65" y="463" type="line"/>
      <point x="153" y="463" type="line"/>
      <point x="60" y="0" type="line"/>
      <point x="116" y="0" type="line"/>
      <point x="220" y="525" type="line"/>
      <point x="250" y="704"/>
      <point x="406" y="704" type="qcurve"/>
      <point x="526" y="704"/>
      <point x="528" y="586" type="qcurve"/>
      <point x="528" y="553"/>
      <point x="519" y="516" type="qcurve"/>
      <point x="423" y="516"/>
      <point x="305" y="432"/>
      <point x="305" y="366" type="qcurve"/>
      <point x="305" y="336"/>
      <point x="313" y="316" type="qcurve"/>
      <point x="335" y="262"/>
      <point x="415" y="240" type="qcurve"/>
      <point x="458" y="225" type="line"/>
      <point x="493" y="214"/>
      <point x="523" y="178"/>
      <point x="523" y="146" type="qcurve"/>
      <point x="523" y="92"/>
      <point x="454" y="36"/>
      <point x="398" y="36" type="qcurve"/>
      <point x="301" y="36"/>
      <point x="246" y="117" type="qcurve"/>
      <point x="207" y="84" type="line"/>
      <point x="238" y="37"/>
      <point x="337" y="-12"/>
    </contour>
  </outline>
</glyph>
<glyph name="atilde" format="2">
  <advance width="577"/>
  <unicode hex="00E3"/>
  <outline>
    <contour>
      <point x="214" y="-12" type="qcurve"/>
      <point x="274" y="-12"/>
      <point x="355" y="50"/>
      <point x="386" y="112" type="qcurve"/>
      <point x="389" y="112" type="line"/>
      <point x="378" y="54"/>
      <point x="378" y="45" type="qcurve"/>
      <point x="378" y="0"/>
      <point x="428" y="0" type="qcurve"/>
      <point x="500" y="0" type="line"/>
      <point x="510" y="49" type="line"/>
      <point x="432" y="49" type="line"/>
      <point x="524" y="512" type="line"/>
      <point x="469" y="512" type="line"/>
      <point x="452" y="425" type="line"/>
      <point x="449" y="425" type="line"/>
      <point x="436" y="473"/>
      <point x="359" y="524"/>
      <point x="305" y="524" type="qcurve"/>
      <point x="243" y="524"/>
      <point x="149" y="464"/>
      <point x="87" y="366"/>
      <point x="55" y="243"/>
      <point x="55" y="181" type="qcurve"/>
      <point x="55" y="93"/>
      <point x="141" y="-12"/>
    </contour>
    <contour>
      <point x="227" y="38" type="qcurve"/>
      <point x="167" y="38"/>
      <point x="111" y="117"/>
      <point x="111" y="175" type="qcurve"/>
      <point x="111" y="210"/>
      <point x="116" y="234" type="qcurve"/>
      <point x="128" y="294" type="line"/>
      <point x="145" y="379"/>
      <point x="238" y="474"/>
      <point x="310" y="474" type="qcurve"/>
      <point x="383" y="474"/>
      <point x="416" y="432" type="qcurve"/>
      <point x="438" y="403"/>
      <point x="438" y="368" type="qcurve"/>
      <point x="438" y="355"/>
      <point x="435" y="341" type="qcurve"/>
      <point x="411" y="222" type="line"/>
      <point x="392" y="133"/>
      <point x="335" y="85" type="qcurve"/>
      <point x="292" y="38"/>
    </contour>
    <contour>
      <point x="421" y="618" type="qcurve"/>
      <point x="472" y="618"/>
      <point x="514" y="666" type="qcurve"/>
      <point x="493" y="694" type="line"/>
      <point x="464" y="665"/>
      <point x="429" y="665" type="qcurve"/>
      <point x="401" y="665"/>
      <point x="365" y="689" type="qcurve"/>
      <point x="348" y="701"/>
      <point x="314" y="717"/>
      <point x="291" y="717" type="qcurve"/>
      <point x="240" y="717"/>
      <point x="198" y="669" type="qcurve"/>
      <point x="219" y="641" type="line"/>
      <point x="249" y="670"/>
      <point x="283" y="670" type="qcurve"/>
      <point x="312" y="670"/>
      <point x="347" y="646" type="qcurve"/>
      <point x="364" y="634"/>
      <point x="398" y="618"/>
    </contour>
  </outline>
</glyph>
<glyph name="ccedilla" format="2">
  <advance width="484"/>
  <unicode hex="00E7"/>
  <outline>
    <contour>
      <point x="213" y="-205" type="qcurve" smooth="yes"/>
      <point x="179" y="-205"/>
      <point x="133" y="-185"/>
      <point x="122" y="-170" type="qcurve"/>
      <point x="152" y="-140" type="line"/>
      <point x="169" y="-166"/>
      <point x="212" y="-166" type="qcurve"/>
      <point x="268" y="-161"/>
      <point x="268" y="-121" type="qcurve" smooth="yes"/>
      <point x="268" y="-86"/>
      <point x="215" y="-82" type="qcurve" smooth="yes"/>
      <point x="184" y="-79" type="line"/>
      <point x="209" y="-11" type="line"/>
      <point x="134" y="-2"/>
      <point x="54" y="108"/>
      <point x="54" y="194" type="qcurve" smooth="yes"/>
      <point x="54" y="331"/>
      <point x="187" y="524"/>
      <point x="302" y="524" type="qcurve" smooth="yes"/>
      <point x="367" y="524"/>
      <point x="451" y="459"/>
      <point x="464" y="405" type="qcurve"/>
      <point x="418" y="386" type="line"/>
      <point x="393" y="475"/>
      <point x="300" y="475" type="qcurve" smooth="yes"/>
      <point x="232" y="475"/>
      <point x="142" y="385"/>
      <point x="127" y="306" type="qcurve" smooth="yes"/>
      <point x="113" y="236" type="line" smooth="yes"/>
      <point x="108" y="210"/>
      <point x="108" y="184" type="qcurve" smooth="yes"/>
      <point x="108" y="121"/>
      <point x="171" y="37"/>
      <point x="236" y="37" type="qcurve" smooth="yes"/>
      <point x="328" y="37"/>
      <point x="387" y="144" type="qcurve"/>
      <point x="431" y="123" type="line"/>
      <point x="368" y="0"/>
      <point x="245" y="-11" type="qcurve"/>
      <point x="225" y="-66" type="line"/>
      <point x="227" y="-68" type="line"/>
      <point x="238" y="-66" type="line"/>
      <point x="247" y="-65"/>
      <point x="257" y="-65" type="qcurve" smooth="yes"/>
      <point x="316" y="-65"/>
      <point x="316" y="-120" type="qcurve" smooth="yes"/>
      <point x="316" y="-157"/>
      <point x="259" y="-205"/>
    </contour>
  </outline>
</glyph>
<glyph name="igrave" format="2">
  <advance width="253"/>
  <unicode hex="00EC"/>
  <outline>
    <contour>
      <point x="176" y="0" type="line"/>
      <point x="186" y="49" type="line"/>
      <point x="108" y="49" type="line"/>
      <point x="201" y="512" type="line"/>
      <point x="146" y="512" type="line"/>
      <point x="56" y="64"/>
      <point x="54" y="58"/>
      <point x="54" y="46" type="qcurve"/>
      <point x="54" y="0"/>
      <point x="105" y="0" type="qcurve"/>
    </contour>
    <contour>
      <point x="189" y="586" type="line"/>
      <point x="222" y="602" type="line"/>
      <point x="154" y="766" type="line"/>
      <point x="105" y="742" type="line"/>
    </contour>
  </outline>
</glyph>
<glyph name="icircumflex" format="2">
  <advance width="253"/>
  <unicode hex="00EE"/>
  <outline>
    <contour>
      <point x="215" y="714" type="line"/>
      <point x="73" y="594" type="line"/>
      <point x="44" y="618" type="line"/>
      <point x="187" y="756" type="line"/>
      <point x="253" y="756" type="line"/>
      <point x="345" y="617" type="line"/>
      <point x="313" y="594" type="line"/>
    </contour>
    <contour>
      <point x="105" y="0" type="line" smooth="yes"/>
      <point x="54" y="0"/>
      <point x="54" y="46" type="qcurve" smooth="yes"/>
      <point x="54" y="58"/>
      <point x="56" y="64"/>
      <point x="146" y="512" type="qcurve"/>
      <point x="201" y="512" type="line"/>
      <point x="108" y="49" type="line"/>
      <point x="186" y="49" type="line"/>
      <point x="176" y="0" type="line"/>
    </contour>
  </outline>
</glyph>
<glyph name="idieresis" format="2">
  <advance width="253"/>
  <unicode hex="00EF"/>
  <outline>
    <contour>
      <point x="109" y="626" type="qcurve" smooth="yes"/>
      <point x="75" y="626"/>
      <point x="75" y="654" type="qcurve"/>
      <point x="78" y="676" type="line"/>
      <point x="84" y="708"/>
      <point x="121" y="708" type="qcurve" smooth="yes"/>
      <point x="155" y="708"/>
      <point x="155" y="680" type="qcurve" smooth="yes"/>
      <point x="155" y="673" type="line"/>
      <point x="152" y="658" type="line"/>
      <point x="147" y="626"/>
    </contour>
    <contour>
      <point x="291" y="626" type="qcurve" smooth="yes"/>
      <point x="257" y="626"/>
      <point x="257" y="654" type="qcurve"/>
      <point x="260" y="676" type="line"/>
      <point x="266" y="708"/>
      <point x="303" y="708" type="qcurve" smooth="yes"/>
      <point x="337" y="708"/>
      <point x="337" y="680" type="qcurve" smooth="yes"/>
      <point x="337" y="673" type="line"/>
      <point x="334" y="658" type="line"/>
      <point x="329" y="626"/>
    </contour>
    <contour>
      <point x="105" y="0" type="line" smooth="yes"/>
      <point x="54" y="0"/>
      <point x="54" y="46" type="qcurve" smooth="yes"/>
      <point x="54" y="58"/>
      <point x="56" y="64"/>
      <point x="146" y="512" type="qcurve"/>
      <point x="201" y="512" type="line"/>
      <point x="108" y="49" type="line"/>
      <point x="186" y="49" type="line"/>
      <point x="176" y="0" type="line"/>
    </contour>
  </outline>
</glyph>
<glyph name="oacute" format="2">
  <advance width="544"/>
  <unicode hex="00F3"/>
  <outline>
    <contour>
      <point x="231" y="-12" type="qcurve"/>
      <point x="291" y="-12"/>
      <point x="388" y="43"/>
      <point x="422" y="90" type="qcurve"/>
      <point x="491" y="191"/>
      <point x="491" y="324" type="qcurve"/>
      <point x="491" y="418"/>
      <point x="394" y="524"/>
      <point x="313" y="524" type="qcurve"/>
      <point x="253" y="524"/>
      <point x="156" y="470"/>
      <point x="123" y="423" type="qcurve"/>
      <point x="53" y="322"/>
      <point x="53" y="188" type="qcurve"/>
      <point x="53" y="94"/>
      <point x="150" y="-12"/>
    </contour>
    <contour>
      <point x="238" y="37" type="qcurve"/>
      <point x="173" y="37"/>
      <point x="109" y="115"/>
      <point x="109" y="174" type="qcurve"/>
      <point x="109" y="204"/>
      <point x="114" y="230" type="qcurve"/>
      <point x="126" y="291" type="line"/>
      <point x="144" y="379"/>
      <point x="239" y="475"/>
      <point x="306" y="475" type="qcurve"/>
      <point x="372" y="475"/>
      <point x="435" y="397"/>
      <point x="435" y="338" type="qcurve"/>
      <point x="435" y="308"/>
      <point x="430" y="282" type="qcurve"/>
      <point x="418" y="221" type="line"/>
      <point x="400" y="133"/>
      <point x="305" y="37"/>
    </contour>
    <contour>
      <point x="328" y="586" type="line"/>
      <point x="461" y="742" type="line"/>
      <point x="413" y="769" type="line"/>
      <point x="293" y="605" type="line"/>
    </contour>
  </outline>
</glyph>
<glyph name="otilde" format="2">
  <advance width="544"/>
  <unicode hex="00F5"/>
  <outline>
    <contour>
      <point x="231" y="-12" type="qcurve"/>
      <point x="291" y="-12"/>
      <point x="388" y="43"/>
      <point x="422" y="90" type="qcurve"/>
      <point x="491" y="191"/>
      <point x="491" y="324" type="qcurve"/>
      <point x="491" y="418"/>
      <point x="394" y="524"/>
      <point x="313" y="524" type="qcurve"/>
      <point x="253" y="524"/>
      <point x="156" y="470"/>
      <point x="123" y="423" type="qcurve"/>
      <point x="53" y="322"/>
      <point x="53" y="188" type="qcurve"/>
      <point x="53" y="94"/>
      <point x="150" y="-12"/>
    </contour>
    <contour>
      <point x="238" y="37" type="qcurve"/>
      <point x="173" y="37"/>
      <point x="109" y="115"/>
      <point x="109" y="174" type="qcurve"/>
      <point x="109" y="204"/>
      <point x="114" y="230" type="qcurve"/>
      <point x="126" y="291" type="line"/>
      <point x="144" y="379"/>
      <point x="239" y="475"/>
      <point x="306" y="475" type="qcurve"/>
      <point x="372" y="475"/>
      <point x="435" y="397"/>
      <point x="435" y="338" type="qcurve"/>
      <point x="435" y="308"/>
      <point x="430" y="282" type="qcurve"/>
      <point x="418" y="221" type="line"/>
      <point x="400" y="133"/>
      <point x="305" y="37"/>
    </contour>
    <contour>
      <point x="406" y="618" type="qcurve"/>
      <point x="457" y="618"/>
      <point x="499" y="666" type="qcurve"/>
      <point x="478" y="694" type="line"/>
      <point x="449" y="665"/>
      <point x="414" y="665" type="qcurve"/>
      <point x="386" y="665"/>
      <point x="350" y="689" type="qcurve"/>
      <point x="333" y="701"/>
      <point x="299" y="717"/>
      <point x="276" y="717" type="qcurve"/>
      <point x="225" y="717"/>
      <point x="183" y="669" type="qcurve"/>
      <point x="204" y="641" type="line"/>
      <point x="234" y="670"/>
      <point x="268" y="670" type="qcurve"/>
      <point x="297" y="670"/>
      <point x="332" y="646" type="qcurve"/>
      <point x="349" y="634"/>
      <point x="383" y="618"/>
    </contour>
  </outline>
</glyph>
<glyph name="divide" format="2">
  <advance width="600"/>
  <unicode hex="00F7"/>
  <outline>
    <contour>
      <point x="535" y="281" type="line"/>
      <point x="545" y="329" type="line"/>
      <point x="85" y="329" type="line"/>
      <point x="75" y="281" type="line"/>
    </contour>
    <contour>
      <point x="265" y="65" type="qcurve"/>
      <point x="321" y="65"/>
      <point x="321" y="130" type="qcurve"/>
      <point x="321" y="161"/>
      <point x="280" y="161" type="qcurve"/>
      <point x="224" y="161"/>
      <point x="224" y="96" type="qcurve"/>
      <point x="224" y="65"/>
    </contour>
    <contour>
      <point x="341" y="451" type="qcurve"/>
      <point x="397" y="451"/>
      <point x="397" y="516" type="qcurve"/>
      <point x="397" y="547"/>
      <point x="356" y="547" type="qcurve"/>
      <point x="300" y="547"/>
      <point x="300" y="482" type="qcurve"/>
      <point x="300" y="451"/>
    </contour>
  </outline>
</glyph>
<glyph name="oslash" format="2">
  <advance width="544"/>
  <unicode hex="00F8"/>
  <outline>
    <contour>
      <point x="30" y="-35" type="line"/>
      <point x="101" y="42" type="line"/>
      <point x="149" y="-12"/>
      <point x="231" y="-12" type="qcurve"/>
      <point x="291" y="-12"/>
      <point x="388" y="43"/>
      <point x="422" y="90" type="qcurve"/>
      <point x="491" y="191"/>
      <point x="491" y="324" type="qcurve"/>
      <point x="491" y="389"/>
      <point x="466" y="437" type="qcurve"/>
      <point x="543" y="520" type="line"/>
      <point x="514" y="547" type="line"/>
      <point x="443" y="470" type="line"/>
      <point x="396" y="524"/>
      <point x="313" y="524" type="qcurve"/>
      <point x="253" y="524"/>
      <point x="156" y="470"/>
      <point x="123" y="423" type="qcurve"/>
      <point x="53" y="322"/>
      <point x="53" y="188" type="qcurve"/>
      <point x="53" y="122"/>
      <point x="78" y="75" type="qcurve"/>
      <point x="1" y="-8" type="line"/>
    </contour>
    <contour>
      <point x="238" y="37" type="qcurve"/>
      <point x="171" y="37"/>
      <point x="137" y="81" type="qcurve"/>
      <point x="426" y="394" type="line"/>
      <point x="435" y="368"/>
      <point x="435" y="338" type="qcurve"/>
      <point x="435" y="308"/>
      <point x="430" y="282" type="qcurve"/>
      <point x="418" y="221" type="line"/>
      <point x="400" y="133"/>
      <point x="305" y="37"/>
    </contour>
    <contour>
      <point x="117" y="118" type="line"/>
      <point x="109" y="146"/>
      <point x="109" y="174" type="qcurve"/>
      <point x="109" y="204"/>
      <point x="114" y="230" type="qcurve"/>
      <point x="126" y="291" type="line"/>
      <point x="144" y="379"/>
      <point x="239" y="475"/>
      <point x="306" y="475" type="qcurve"/>
      <point x="370" y="475"/>
      <point x="407" y="431" type="qcurve"/>
    </contour>
  </outline>
</glyph>
<glyph name="uacute" format="2">
  <advance width="557"/>
  <unicode hex="00FA"/>
  <outline>
    <contour>
      <point x="199" y="-12" type="qcurve"/>
      <point x="256" y="-12"/>
      <point x="336" y="45"/>
      <point x="363" y="103" type="qcurve"/>
      <point x="367" y="103" type="line"/>
      <point x="358" y="54"/>
      <point x="358" y="46" type="qcurve"/>
      <point x="358" y="25"/>
      <point x="382" y="0"/>
      <point x="407" y="0" type="qcurve"/>
      <point x="480" y="0" type="line"/>
      <point x="489" y="49" type="line"/>
      <point x="412" y="49" type="line"/>
      <point x="504" y="512" type="line"/>
      <point x="449" y="512" type="line"/>
      <point x="390" y="215" type="line"/>
      <point x="372" y="142"/>
      <point x="324" y="87" type="qcurve"/>
      <point x="279" y="38"/>
      <point x="215" y="38" type="qcurve"/>
      <point x="167" y="38"/>
      <point x="124" y="88"/>
      <point x="124" y="136" type="qcurve"/>
      <point x="124" y="167"/>
      <point x="129" y="193" type="qcurve"/>
      <point x="193" y="512" type="line"/>
      <point x="138" y="512" type="line"/>
      <point x="74" y="193" type="line"/>
      <point x="67" y="156"/>
      <point x="67" y="127" type="qcurve"/>
      <point x="67" y="61"/>
      <point x="133" y="-12"/>
    </contour>
    <contour>
      <point x="336" y="586" type="line"/>
      <point x="469" y="742" type="line"/>
      <point x="421" y="769" type="line"/>
      <point x="301" y="605" type="line"/>
    </contour>
  </outline>
</glyph>
<glyph name="thorn" format="2">
  <advance width="567"/>
  <unicode hex="00FE"/>
  <outline>
    <contour>
      <point x="58" y="-200" type="line"/>
      <point x="115" y="87" type="line"/>
      <point x="118" y="87" type="line"/>
      <point x="131" y="39"/>
      <point x="208" y="-12"/>
      <point x="262" y="-12" type="qcurve"/>
      <point x="324" y="-12"/>
      <point x="418" y="48"/>
      <point x="481" y="147"/>
      <point x="512" y="269"/>
      <point x="512" y="331" type="qcurve"/>
      <point x="512" y="417"/>
      <point x="470" y="471" type="qcurve"/>
      <point x="427" y="524"/>
      <point x="353" y="524" type="qcurve"/>
      <point x="293" y="524"/>
      <point x="212" y="462"/>
      <point x="181" y="400" type="qcurve"/>
      <point x="178" y="400" type="line"/>
      <point x="246" y="740" type="line"/>
      <point x="191" y="740" type="line"/>
      <point x="3" y="-200" type="line"/>
    </contour>
    <contour>
      <point x="257" y="38" type="qcurve"/>
      <point x="184" y="38"/>
      <point x="151" y="80" type="qcurve"/>
      <point x="129" y="109"/>
      <point x="129" y="144" type="qcurve"/>
      <point x="129" y="157"/>
      <point x="132" y="171" type="qcurve"/>
      <point x="156" y="290" type="line"/>
      <point x="175" y="380"/>
      <point x="232" y="427" type="qcurve"/>
      <point x="276" y="474"/>
      <point x="340" y="474" type="qcurve"/>
      <point x="400" y="474"/>
      <point x="456" y="396"/>
      <point x="456" y="337" type="qcurve"/>
      <point x="456" y="303"/>
      <point x="451" y="278" type="qcurve"/>
      <point x="439" y="218" type="line"/>
      <point x="422" y="133"/>
      <point x="329" y="38"/>
    </contour>
  </outline>
</glyph>
<glyph name="ydieresis" format="2">
  <advance width="475"/>
  <unicode hex="00FF"/>
  <outline>
    <contour>
      <point x="56" y="-200" type="line"/>
      <point x="86" y="-200"/>
      <point x="122" y="-173"/>
      <point x="139" y="-140" type="qcurve"/>
      <point x="503" y="512" type="line"/>
      <point x="444" y="512" type="line"/>
      <point x="199" y="61" type="line"/>
      <point x="195" y="61" type="line"/>
      <point x="124" y="512" type="line"/>
      <point x="70" y="512" type="line"/>
      <point x="155" y="-11" type="line"/>
      <point x="77" y="-152" type="line"/>
      <point x="-12" y="-152" type="line"/>
      <point x="-22" y="-200" type="line"/>
    </contour>
    <contour>
      <point x="217" y="626" type="qcurve"/>
      <point x="255" y="626"/>
      <point x="260" y="658" type="qcurve"/>
      <point x="263" y="673" type="line"/>
      <point x="263" y="680" type="line"/>
      <point x="263" y="708"/>
      <point x="229" y="708" type="qcurve"/>
      <point x="192" y="708"/>
      <point x="186" y="676" type="qcurve"/>
      <point x="183" y="654" type="line"/>
      <point x="183" y="626"/>
    </contour>
    <contour>
      <point x="399" y="626" type="qcurve"/>
      <point x="437" y="626"/>
      <point x="442" y="658" type="qcurve"/>
      <point x="445" y="673" type="line"/>
      <point x="445" y="680" type="line"/>
      <point x="445" y="708"/>
      <point x="411" y="708" type="qcurve"/>
      <point x="374" y="708"/>
      <point x="368" y="676" type="qcurve"/>
      <point x="365" y="654" type="line"/>
      <point x="365" y="626"/>
    </contour>
  </outline>
</glyph>
<glyph name="Ccircumflex" format="2">
  <advance width="599"/>
  <unicode hex="0108"/>
  <outline>
    <contour>
      <point x="290" y="-12" type="qcurve"/>
      <point x="376" y="-12"/>
      <point x="496" y="65"/>
      <point x="541" y="151" type="qcurve"/>
      <point x="492" y="175" type="line"/>
      <point x="457" y="109"/>
      <point x="365" y="40"/>
      <point x="293" y="40" type="qcurve"/>
      <point x="209" y="40"/>
      <point x="118" y="147"/>
      <point x="118" y="236" type="qcurve"/>
      <point x="118" y="271"/>
      <point x="135" y="365"/>
      <point x="144" y="410" type="qcurve"/>
      <point x="168" y="524"/>
      <point x="298" y="658"/>
      <point x="388" y="658" type="qcurve"/>
      <point x="459" y="658"/>
      <point x="536" y="594"/>
      <point x="552" y="536" type="qcurve"/>
      <point x="605" y="558" type="line"/>
      <point x="561" y="710"/>
      <point x="394" y="710" type="qcurve"/>
      <point x="313" y="710"/>
      <point x="188" y="630"/>
      <point x="103" y="497"/>
      <point x="60" y="332"/>
      <point x="60" y="248" type="qcurve"/>
      <point x="60" y="122"/>
      <point x="190" y="-12"/>
    </contour>
    <contour>
      <point x="291" y="768" type="line"/>
      <point x="433" y="888" type="line"/>
      <point x="531" y="769" type="line"/>
      <point x="563" y="791" type="line"/>
      <point x="471" y="930" type="line"/>
      <point x="405" y="930" type="line"/>
      <point x="261" y="792" type="line"/>
    </contour>
  </outline>
</glyph>
<glyph name="ccircumflex" format="2">
  <advance width="484"/>
  <unicode hex="0109"/>
  <outline>
    <contour>
      <point x="231" y="-12" type="qcurve"/>
      <point x="359" y="-12"/>
      <point x="431" y="123" type="qcurve"/>
      <point x="387" y="144" type="line"/>
      <point x="328" y="37"/>
      <point x="236" y="37" type="qcurve"/>
      <point x="171" y="37"/>
      <point x="108" y="121"/>
      <point x="108" y="184" type="qcurve"/>
      <point x="108" y="210"/>
      <point x="113" y="236" type="qcurve"/>
      <point x="127" y="306" type="line"/>
      <point x="142" y="385"/>
      <point x="232" y="475"/>
      <point x="300" y="475" type="qcurve"/>
      <point x="393" y="475"/>
      <point x="418" y="386" type="qcurve"/>
      <point x="464" y="405" type="line"/>
      <point x="451" y="459"/>
      <point x="367" y="524"/>
      <point x="302" y="524" type="qcurve"/>
      <point x="187" y="524"/>
      <point x="54" y="331"/>
      <point x="54" y="194" type="qcurve"/>
      <point x="54" y="103"/>
      <point x="146" y="-12"/>
    </contour>
    <contour>
      <point x="439" y="594" type="line"/>
      <point x="471" y="617" type="line"/>
      <point x="379" y="756" type="line"/>
      <point x="313" y="756" type="line"/>
      <point x="170" y="618" type="line"/>
      <point x="199" y="594" type="line"/>
      <point x="341" y="714" type="line"/>
    </contour>
  </outline>
</glyph>
<glyph name="Cdotaccent" format="2">
  <advance width="599"/>
  <unicode hex="010A"/>
  <outline>
    <contour>
      <point x="290" y="-12" type="qcurve"/>
      <point x="376" y="-12"/>
      <point x="496" y="65"/>
      <point x="541" y="151" type="qcurve"/>
      <point x="492" y="175" type="line"/>
      <point x="457" y="109"/>
      <point x="365" y="40"/>
      <point x="293" y="40" type="qcurve"/>
      <point x="209" y="40"/>
      <point x="118" y="147"/>
      <point x="118" y="236" type="qcurve"/>
      <point x="118" y="271"/>
      <point x="135" y="365"/>
      <point x="144" y="410" type="qcurve"/>
      <point x="168" y="524"/>
      <point x="298" y="658"/>
      <point x="388" y="658" type="qcurve"/>
      <point x="459" y="658"/>
      <point x="536" y="594"/>
      <point x="552" y="536" type="qcurve"/>
      <point x="605" y="558" type="line"/>
      <point x="561" y="710"/>
      <point x="394" y="710" type="qcurve"/>
      <point x="313" y="710"/>
      <point x="188" y="630"/>
      <point x="103" y="497"/>
      <point x="60" y="332"/>
      <point x="60" y="248" type="qcurve"/>
      <point x="60" y="122"/>
      <point x="190" y="-12"/>
    </contour>
    <contour>
      <point x="416" y="799" type="qcurve"/>
      <point x="454" y="799"/>
      <point x="459" y="831" type="qcurve"/>
      <point x="462" y="846" type="line"/>
      <point x="462" y="853" type="line"/>
      <point x="462" y="881"/>
      <point x="428" y="881" type="qcurve"/>
      <point x="391" y="881"/>
      <point x="385" y="849" type="qcurve"/>
      <point x="382" y="827" type="line"/>
      <point x="382" y="799"/>
    </contour>
  </outline>
</glyph>
<glyph name="ccaron" format="2">
  <advance width="484"/>
  <unicode hex="010D"/>
  <outline>
    <contour>
      <point x="287" y="601" type="line"/>
      <point x="195" y="740" type="line"/>
      <point x="228" y="763" type="line"/>
      <point x="323" y="643" type="line"/>
      <point x="467" y="763" type="line"/>
      <point x="497" y="739" type="line"/>
      <point x="354" y="601" type="line"/>
    </contour>
    <contour>
      <point x="231" y="-12" type="qcurve" smooth="yes"/>
      <point x="146" y="-12"/>
      <point x="54" y="103"/>
      <point x="54" y="194" type="qcurve" smooth="yes"/>
      <point x="54" y="331"/>
      <point x="187" y="524"/>
      <point x="302" y="524" type="qcurve" smooth="yes"/>
      <point x="367" y="524"/>
      <point x="451" y="459"/>
      <point x="464" y="405" type="qcurve"/>
      <point x="418" y="386" type="line"/>
      <point x="393" y="475"/>
      <point x="300" y="475" type="qcurve" smooth="yes"/>
      <point x="232" y="475"/>
      <point x="142" y="385"/>
      <point x="127" y="306" type="qcurve" smooth="yes"/>
      <point x="113" y="236" type="line" smooth="yes"/>
      <point x="108" y="210"/>
      <point x="108" y="184" type="qcurve" smooth="yes"/>
      <point x="108" y="121"/>
      <point x="171" y="37"/>
      <point x="236" y="37" type="qcurve" smooth="yes"/>
      <point x="328" y="37"/>
      <point x="387" y="144" type="qcurve"/>
      <point x="431" y="123" type="line"/>
      <point x="359" y="-12"/>
    </contour>
  </outline>
</glyph>
<glyph name="dcroat" format="2">
  <advance width="578"/>
  <unicode hex="0111"/>
  <outline>
    <contour>
      <point x="214" y="-12" type="qcurve" smooth="yes"/>
      <point x="141" y="-12"/>
      <point x="55" y="93"/>
      <point x="55" y="181" type="qcurve" smooth="yes"/>
      <point x="55" y="243"/>
      <point x="87" y="366"/>
      <point x="149" y="464"/>
      <point x="243" y="524"/>
      <point x="305" y="524" type="qcurve" smooth="yes"/>
      <point x="359" y="524"/>
      <point x="436" y="473"/>
      <point x="449" y="425" type="qcurve"/>
      <point x="452" y="425" type="line"/>
      <point x="490" y="617" type="line"/>
      <point x="338" y="617" type="line"/>
      <point x="347" y="660" type="line"/>
      <point x="499" y="660" type="line"/>
      <point x="515" y="740" type="line"/>
      <point x="570" y="740" type="line"/>
      <point x="554" y="660" type="line"/>
      <point x="617" y="660" type="line"/>
      <point x="608" y="617" type="line"/>
      <point x="545" y="617" type="line"/>
      <point x="432" y="49" type="line"/>
      <point x="510" y="49" type="line"/>
      <point x="500" y="0" type="line"/>
      <point x="428" y="0" type="line" smooth="yes"/>
      <point x="378" y="0"/>
      <point x="378" y="45" type="qcurve" smooth="yes"/>
      <point x="378" y="56"/>
      <point x="380" y="68" type="qcurve" smooth="yes"/>
      <point x="389" y="112" type="line"/>
      <point x="386" y="112" type="line"/>
      <point x="355" y="50"/>
      <point x="274" y="-12"/>
    </contour>
    <contour>
      <point x="227" y="38" type="qcurve" smooth="yes"/>
      <point x="292" y="38"/>
      <point x="335" y="85" type="qcurve"/>
      <point x="392" y="133"/>
      <point x="411" y="222" type="qcurve" smooth="yes"/>
      <point x="435" y="341" type="line" smooth="yes"/>
      <point x="438" y="355"/>
      <point x="438" y="368" type="qcurve" smooth="yes"/>
      <point x="438" y="403"/>
      <point x="416" y="432" type="qcurve" smooth="yes"/>
      <point x="383" y="474"/>
      <point x="310" y="474" type="qcurve" smooth="yes"/>
      <point x="238" y="474"/>
      <point x="145" y="379"/>
      <point x="128" y="294" type="qcurve" smooth="yes"/>
      <point x="116" y="234" type="line" smooth="yes"/>
      <point x="111" y="210"/>
      <point x="111" y="175" type="qcurve" smooth="yes"/>
      <point x="111" y="117"/>
      <point x="167" y="38"/>
    </contour>
  </outline>
</glyph>
<glyph name="Ebreve" format="2">
  <advance width="560"/>
  <unicode hex="0114"/>
  <outline>
    <contour>
      <point x="453" y="0" type="line"/>
      <point x="463" y="52" type="line"/>
      <point x="114" y="52" type="line"/>
      <point x="169" y="329" type="line"/>
      <point x="484" y="329" type="line"/>
      <point x="494" y="380" type="line"/>
      <point x="179" y="380" type="line"/>
      <point x="233" y="646" type="line"/>
      <point x="572" y="646" type="line"/>
      <point x="583" y="698" type="line"/>
      <point x="185" y="698" type="line"/>
      <point x="45" y="0" type="line"/>
    </contour>
    <contour>
      <point x="397" y="774" type="qcurve"/>
      <point x="430" y="774"/>
      <point x="454" y="785" type="qcurve"/>
      <point x="513" y="813"/>
      <point x="557" y="901" type="qcurve"/>
      <point x="521" y="916" type="line"/>
      <point x="501" y="889" type="line"/>
      <point x="473" y="850"/>
      <point x="428" y="818"/>
      <point x="398" y="818" type="qcurve"/>
      <point x="369" y="818"/>
      <point x="333" y="853"/>
      <point x="319" y="888" type="qcurve"/>
      <point x="307" y="916" type="line"/>
      <point x="272" y="901" type="line"/>
      <point x="282" y="852"/>
      <point x="308" y="814" type="qcurve"/>
      <point x="339" y="774"/>
    </contour>
  </outline>
</glyph>
<glyph name="ebreve" format="2">
  <advance width="508"/>
  <unicode hex="0115"/>
  <outline>
    <contour>
      <point x="333" y="600" type="qcurve" smooth="yes"/>
      <point x="275" y="600"/>
      <point x="244" y="640" type="qcurve"/>
      <point x="218" y="678"/>
      <point x="208" y="727" type="qcurve"/>
      <point x="243" y="742" type="line"/>
      <point x="255" y="714" type="line" smooth="yes"/>
      <point x="269" y="679"/>
      <point x="305" y="645"/>
      <point x="334" y="645" type="qcurve" smooth="yes"/>
      <point x="364" y="645"/>
      <point x="409" y="677"/>
      <point x="437" y="715" type="qcurve" smooth="yes"/>
      <point x="457" y="742" type="line"/>
      <point x="493" y="727" type="line"/>
      <point x="449" y="639"/>
      <point x="390" y="611" type="qcurve" smooth="yes"/>
      <point x="366" y="600"/>
    </contour>
    <contour>
      <point x="240" y="-12" type="qcurve" smooth="yes"/>
      <point x="150" y="-12"/>
      <point x="53" y="93"/>
      <point x="53" y="197" type="qcurve" smooth="yes"/>
      <point x="53" y="329"/>
      <point x="125" y="427" type="qcurve" smooth="yes"/>
      <point x="159" y="472"/>
      <point x="255" y="524"/>
      <point x="314" y="524" type="qcurve" smooth="yes"/>
      <point x="382" y="524"/>
      <point x="477" y="457"/>
      <point x="477" y="392" type="qcurve" smooth="yes"/>
      <point x="477" y="316"/>
      <point x="399" y="275" type="qcurve"/>
      <point x="317" y="230"/>
      <point x="112" y="226" type="qcurve"/>
      <point x="109" y="212"/>
      <point x="109" y="183" type="qcurve"/>
      <point x="110" y="37"/>
      <point x="243" y="37" type="qcurve" smooth="yes"/>
      <point x="297" y="37"/>
      <point x="383" y="90"/>
      <point x="413" y="136" type="qcurve"/>
      <point x="451" y="106" type="line"/>
      <point x="367" y="-12"/>
    </contour>
    <contour>
      <point x="119" y="270" type="line"/>
      <point x="302" y="276"/>
      <point x="364" y="308" type="qcurve" smooth="yes"/>
      <point x="396" y="324"/>
      <point x="420" y="367"/>
      <point x="420" y="393" type="qcurve" smooth="yes"/>
      <point x="420" y="436"/>
      <point x="359" y="476"/>
      <point x="308" y="476" type="qcurve" smooth="yes"/>
      <point x="238" y="476"/>
      <point x="142" y="376"/>
      <point x="124" y="294" type="qcurve" smooth="yes"/>
    </contour>
  </outline>
</glyph>
<glyph name="Eogonek" format="2">
  <advance width="560"/>
  <unicode hex="0118"/>
  <outline>
    <contour>
      <point x="361" y="-205" type="qcurve" smooth="yes"/>
      <point x="326" y="-205"/>
      <point x="274" y="-172"/>
      <point x="274" y="-134" type="qcurve" smooth="yes"/>
      <point x="274" y="-62"/>
      <point x="404" y="-4" type="qcurve"/>
      <point x="403" y="0" type="line"/>
      <point x="45" y="0" type="line"/>
      <point x="185" y="698" type="line"/>
      <point x="583" y="698" type="line"/>
      <point x="572" y="646" type="line"/>
      <point x="233" y="646" type="line"/>
      <point x="179" y="380" type="line"/>
      <point x="494" y="380" type="line"/>
      <point x="484" y="329" type="line"/>
      <point x="169" y="329" type="line"/>
      <point x="114" y="52" type="line"/>
      <point x="463" y="52" type="line"/>
      <point x="453" y="0" type="line"/>
      <point x="377" y="-47"/>
      <point x="324" y="-103"/>
      <point x="324" y="-127" type="qcurve" smooth="yes"/>
      <point x="324" y="-165"/>
      <point x="364" y="-165" type="qcurve" smooth="yes"/>
      <point x="399" y="-165"/>
      <point x="422" y="-139" type="qcurve"/>
      <point x="450" y="-170" type="line"/>
      <point x="419" y="-205"/>
    </contour>
  </outline>
</glyph>
<glyph name="Gbreve" format="2">
  <advance width="599"/>
  <unicode hex="011E"/>
  <outline>
    <contour>
      <point x="415" y="773" type="qcurve" smooth="yes"/>
      <point x="371" y="773"/>
      <point x="321" y="812"/>
      <point x="296" y="871"/>
      <point x="289" y="901" type="qcurve"/>
      <point x="325" y="917" type="line"/>
      <point x="337" y="890" type="line" smooth="yes"/>
      <point x="352" y="855"/>
      <point x="386" y="820"/>
      <point x="416" y="820" type="qcurve" smooth="yes"/>
      <point x="446" y="820"/>
      <point x="490" y="852"/>
      <point x="518" y="890" type="qcurve" smooth="yes"/>
      <point x="538" y="917" type="line"/>
      <point x="575" y="901" type="line"/>
      <point x="559" y="871"/>
      <point x="518" y="811"/>
      <point x="459" y="773"/>
    </contour>
    <contour>
      <point x="576" y="349" type="line"/>
      <point x="552" y="227" type="line"/>
      <point x="537" y="159"/>
      <point x="480" y="67"/>
      <point x="405" y="11"/>
      <point x="317" y="-12"/>
      <point x="272" y="-12" type="qcurve" smooth="yes"/>
      <point x="223" y="-12"/>
      <point x="138" y="20"/>
      <point x="74" y="84"/>
      <point x="37" y="183"/>
      <point x="37" y="249" type="qcurve" smooth="yes"/>
      <point x="37" y="337"/>
      <point x="81" y="503"/>
      <point x="168" y="632"/>
      <point x="296" y="710"/>
      <point x="379" y="710" type="qcurve" smooth="yes"/>
      <point x="428" y="710"/>
      <point x="502" y="684"/>
      <point x="555" y="642"/>
      <point x="588" y="586"/>
      <point x="596" y="556" type="qcurve"/>
      <point x="542" y="528" type="line"/>
      <point x="529" y="587"/>
      <point x="446" y="656"/>
      <point x="371" y="656" type="qcurve" smooth="yes"/>
      <point x="277" y="656"/>
      <point x="148" y="532"/>
      <point x="123" y="413" type="qcurve" smooth="yes"/>
      <point x="104" y="320" type="line" smooth="yes"/>
      <point x="99" y="298"/>
      <point x="96" y="254"/>
      <point x="96" y="235" type="qcurve" smooth="yes"/>
      <point x="96" y="188"/>
      <point x="123" y="116"/>
      <point x="172" y="67"/>
      <point x="238" y="42"/>
      <point x="277" y="42" type="qcurve" smooth="yes"/>
      <point x="316" y="42"/>
      <point x="385" y="63"/>
      <point x="441" y="105"/>
      <point x="480" y="169"/>
      <point x="489" y="213" type="qcurve" smooth="yes"/>
      <point x="506" y="294" type="line"/>
      <point x="301" y="294" type="line"/>
      <point x="312" y="349" type="line"/>
    </contour>
  </outline>
</glyph>
<glyph name="gbreve" format="2">
  <advance width="558"/>
  <unicode hex="011F"/>
  <outline>
    <contour>
      <point x="347" y="600" type="qcurve" smooth="yes"/>
      <point x="305" y="600"/>
      <point x="255" y="638"/>
      <point x="229" y="695"/>
      <point x="222" y="727" type="qcurve"/>
      <point x="257" y="742" type="line"/>
      <point x="269" y="714" type="line" smooth="yes"/>
      <point x="283" y="679"/>
      <point x="319" y="645"/>
      <point x="348" y="645" type="qcurve" smooth="yes"/>
      <point x="378" y="645"/>
      <point x="423" y="677"/>
      <point x="451" y="715" type="qcurve" smooth="yes"/>
      <point x="471" y="742" type="line"/>
      <point x="507" y="727" type="line"/>
      <point x="490" y="696"/>
      <point x="449" y="638"/>
      <point x="391" y="600"/>
    </contour>
    <contour>
      <point x="189" y="-212" type="qcurve" smooth="yes"/>
      <point x="68" y="-212"/>
      <point x="12" y="-132" type="qcurve"/>
      <point x="52" y="-97" type="line"/>
      <point x="95" y="-163"/>
      <point x="189" y="-163" type="qcurve" smooth="yes"/>
      <point x="336" y="-163"/>
      <point x="367" y="-4" type="qcurve" smooth="yes"/>
      <point x="389" y="112" type="line"/>
      <point x="386" y="112" type="line"/>
      <point x="355" y="50"/>
      <point x="273" y="-12"/>
      <point x="214" y="-12" type="qcurve" smooth="yes"/>
      <point x="141" y="-12"/>
      <point x="55" y="94"/>
      <point x="55" y="181" type="qcurve" smooth="yes"/>
      <point x="55" y="264"/>
      <point x="111" y="421"/>
      <point x="222" y="524"/>
      <point x="305" y="524" type="qcurve" smooth="yes"/>
      <point x="358" y="524"/>
      <point x="436" y="473"/>
      <point x="449" y="425" type="qcurve"/>
      <point x="452" y="425" type="line"/>
      <point x="470" y="512" type="line"/>
      <point x="525" y="512" type="line"/>
      <point x="420" y="-12" type="line" smooth="yes"/>
      <point x="380" y="-212"/>
    </contour>
    <contour>
      <point x="227" y="38" type="qcurve" smooth="yes"/>
      <point x="286" y="38"/>
      <point x="335" y="85" type="qcurve"/>
      <point x="392" y="133"/>
      <point x="411" y="222" type="qcurve" smooth="yes"/>
      <point x="435" y="341" type="line" smooth="yes"/>
      <point x="438" y="354"/>
      <point x="438" y="366" type="qcurve" smooth="yes"/>
      <point x="438" y="386"/>
      <point x="420" y="435"/>
      <point x="361" y="474"/>
      <point x="310" y="474" type="qcurve" smooth="yes"/>
      <point x="238" y="474"/>
      <point x="145" y="379"/>
      <point x="128" y="294" type="qcurve" smooth="yes"/>
      <point x="116" y="234" type="line" smooth="yes"/>
      <point x="111" y="208"/>
      <point x="111" y="175" type="qcurve" smooth="yes"/>
      <point x="111" y="117"/>
      <point x="166" y="38"/>
    </contour>
  </outline>
</glyph>
<glyph name="Gdotaccent" format="2">
  <advance width="551"/>
  <unicode hex="0120"/>
  <outline>
    <contour>
      <point x="52" y="251" type="qcurve"/>
      <point x="52" y="284"/>
      <point x="59" y="351"/>
      <point x="64" y="384" type="qcurve"/>
      <point x="78" y="453"/>
      <point x="135" y="571"/>
      <point x="218" y="661"/>
      <point x="328" y="710"/>
      <point x="394" y="710" type="qcurve"/>
      <point x="461" y="710"/>
      <point x="549" y="666"/>
      <point x="601" y="595"/>
      <point x="612" y="555" type="qcurve"/>
      <point x="555" y="526" type="line"/>
      <point x="547" y="565"/>
      <point x="504" y="622"/>
      <point x="435" y="654"/>
      <point x="385" y="654" type="qcurve"/>
      <point x="324" y="654"/>
      <point x="224" y="599"/>
      <point x="156" y="492"/>
      <point x="140" y="415" type="qcurve"/>
      <point x="121" y="319" type="line"/>
      <point x="116" y="298"/>
      <point x="113" y="254"/>
      <point x="113" y="236" type="qcurve"/>
      <point x="113" y="189"/>
      <point x="140" y="118"/>
      <point x="189" y="69"/>
      <point x="254" y="44"/>
      <point x="292" y="44" type="qcurve"/>
      <point x="369" y="44"/>
      <point x="486" y="128"/>
      <point x="503" y="214" type="qcurve"/>
      <point x="519" y="293" type="line"/>
      <point x="321" y="293" type="line"/>
      <point x="321" y="350" type="line"/>
      <point x="592" y="350" type="line"/>
      <point x="568" y="229" type="line"/>
      <point x="553" y="160"/>
      <point x="496" y="66"/>
      <point x="419" y="11"/>
      <point x="331" y="-12"/>
      <point x="286" y="-12" type="qcurve"/>
      <point x="238" y="-12"/>
      <point x="154" y="20"/>
      <point x="89" y="85"/>
      <point x="52" y="183"/>
    </contour>
    <contour>
      <point x="429" y="799" type="qcurve"/>
      <point x="412" y="799"/>
      <point x="394" y="814"/>
      <point x="394" y="828" type="qcurve"/>
      <point x="394" y="832"/>
      <point x="396" y="840"/>
      <point x="397" y="847" type="qcurve"/>
      <point x="401" y="864"/>
      <point x="422" y="884"/>
      <point x="442" y="884" type="qcurve"/>
      <point x="460" y="884"/>
      <point x="477" y="868"/>
      <point x="477" y="855" type="qcurve"/>
      <point x="477" y="851"/>
      <point x="476" y="843"/>
      <point x="474" y="836" type="qcurve"/>
      <point x="471" y="819"/>
      <point x="450" y="799"/>
    </contour>
  </outline>
</glyph>
<glyph name="gdotaccent" format="2">
  <advance width="558"/>
  <unicode hex="0121"/>
  <outline>
    <contour>
      <point x="353" y="626" type="qcurve" smooth="yes"/>
      <point x="319" y="626"/>
      <point x="319" y="654" type="qcurve" smooth="yes"/>
      <point x="319" y="662"/>
      <point x="322" y="676" type="qcurve"/>
      <point x="326" y="708"/>
      <point x="365" y="708" type="qcurve" smooth="yes"/>
      <point x="399" y="708"/>
      <point x="399" y="680" type="qcurve" smooth="yes"/>
      <point x="399" y="672"/>
      <point x="396" y="658" type="qcurve"/>
      <point x="392" y="626"/>
    </contour>
    <contour>
      <point x="189" y="-212" type="qcurve" smooth="yes"/>
      <point x="68" y="-212"/>
      <point x="12" y="-132" type="qcurve"/>
      <point x="52" y="-97" type="line"/>
      <point x="95" y="-163"/>
      <point x="189" y="-163" type="qcurve" smooth="yes"/>
      <point x="336" y="-163"/>
      <point x="367" y="-4" type="qcurve" smooth="yes"/>
      <point x="389" y="112" type="line"/>
      <point x="386" y="112" type="line"/>
      <point x="355" y="50"/>
      <point x="273" y="-12"/>
      <point x="214" y="-12" type="qcurve" smooth="yes"/>
      <point x="141" y="-12"/>
      <point x="55" y="94"/>
      <point x="55" y="181" type="qcurve" smooth="yes"/>
      <point x="55" y="264"/>
      <point x="111" y="421"/>
      <point x="222" y="524"/>
      <point x="305" y="524" type="qcurve" smooth="yes"/>
      <point x="358" y="524"/>
      <point x="436" y="473"/>
      <point x="449" y="425" type="qcurve"/>
      <point x="452" y="425" type="line"/>
      <point x="470" y="512" type="line"/>
      <point x="525" y="512" type="line"/>
      <point x="420" y="-12" type="line" smooth="yes"/>
      <point x="380" y="-212"/>
    </contour>
    <contour>
      <point x="227" y="38" type="qcurve" smooth="yes"/>
      <point x="286" y="38"/>
      <point x="335" y="85" type="qcurve"/>
      <point x="392" y="133"/>
      <point x="411" y="222" type="qcurve" smooth="yes"/>
      <point x="435" y="341" type="line" smooth="yes"/>
      <point x="438" y="354"/>
      <point x="438" y="366" type="qcurve" smooth="yes"/>
      <point x="438" y="386"/>
      <point x="420" y="435"/>
      <point x="361" y="474"/>
      <point x="310" y="474" type="qcurve" smooth="yes"/>
      <point x="238" y="474"/>
      <point x="145" y="379"/>
      <point x="128" y="294" type="qcurve" smooth="yes"/>
      <point x="116" y="234" type="line" smooth="yes"/>
      <point x="111" y="208"/>
      <point x="111" y="175" type="qcurve" smooth="yes"/>
      <point x="111" y="117"/>
      <point x="166" y="38"/>
    </contour>
  </outline>
</glyph>
<glyph name="Gcedilla" format="2">
  <advance width="551"/>
  <unicode hex="0122"/>
  <outline>
    <contour>
      <point x="52" y="251" type="qcurve"/>
      <point x="52" y="284"/>
      <point x="59" y="351"/>
      <point x="64" y="384" type="qcurve"/>
      <point x="78" y="453"/>
      <point x="135" y="571"/>
      <point x="218" y="661"/>
      <point x="328" y="710"/>
      <point x="394" y="710" type="qcurve"/>
      <point x="461" y="710"/>
      <point x="549" y="666"/>
      <point x="601" y="595"/>
      <point x="612" y="555" type="qcurve"/>
      <point x="555" y="526" type="line"/>
      <point x="547" y="565"/>
      <point x="504" y="622"/>
      <point x="435" y="654"/>
      <point x="385" y="654" type="qcurve"/>
      <point x="324" y="654"/>
      <point x="224" y="599"/>
      <point x="156" y="492"/>
      <point x="140" y="415" type="qcurve"/>
      <point x="121" y="319" type="line"/>
      <point x="116" y="298"/>
      <point x="113" y="254"/>
      <point x="113" y="236" type="qcurve"/>
      <point x="113" y="189"/>
      <point x="140" y="118"/>
      <point x="189" y="69"/>
      <point x="254" y="44"/>
      <point x="292" y="44" type="qcurve"/>
      <point x="369" y="44"/>
      <point x="486" y="128"/>
      <point x="503" y="214" type="qcurve"/>
      <point x="519" y="293" type="line"/>
      <point x="321" y="293" type="line"/>
      <point x="321" y="350" type="line"/>
      <point x="592" y="350" type="line"/>
      <point x="568" y="229" type="line"/>
      <point x="553" y="160"/>
      <point x="496" y="66"/>
      <point x="419" y="11"/>
      <point x="331" y="-12"/>
      <point x="286" y="-12" type="qcurve"/>
      <point x="238" y="-12"/>
      <point x="154" y="20"/>
      <point x="89" y="85"/>
      <point x="52" y="183"/>
    </contour>
    <contour>
      <point x="270" y="-66" type="qcurve"/>
      <point x="289" y="-66"/>
      <point x="305" y="-82"/>
      <point x="305" y="-95" type="qcurve"/>
      <point x="305" y="-99"/>
      <point x="304" y="-108"/>
      <point x="302" y="-117" type="qcurve"/>
      <point x="296" y="-147"/>
      <point x="260" y="-211"/>
      <point x="235" y="-234" type="qcurve"/>
      <point x="192" y="-234" type="line"/>
      <point x="215" y="-210"/>
      <point x="240" y="-171"/>
      <point x="248" y="-151" type="qcurve"/>
      <point x="234" y="-150"/>
      <point x="221" y="-135"/>
      <point x="221" y="-124" type="qcurve"/>
      <point x="221" y="-121"/>
      <point x="222" y="-111"/>
      <point x="224" y="-102" type="qcurve"/>
      <point x="228" y="-85"/>
      <point x="248" y="-66"/>
    </contour>
  </outline>
</glyph>
<glyph name="Hcircumflex" format="2">
  <advance width="682"/>
  <unicode hex="0124"/>
  <outline>
    <contour>
      <point x="534" y="0" type="line"/>
      <point x="674" y="698" type="line"/>
      <point x="616" y="698" type="line"/>
      <point x="552" y="380" type="line"/>
      <point x="179" y="380" type="line"/>
      <point x="243" y="698" type="line"/>
      <point x="185" y="698" type="line"/>
      <point x="45" y="0" type="line"/>
      <point x="103" y="0" type="line"/>
      <point x="169" y="329" type="line"/>
      <point x="542" y="329" type="line"/>
      <point x="476" y="0" type="line"/>
    </contour>
    <contour>
      <point x="327" y="768" type="line"/>
      <point x="469" y="888" type="line"/>
      <point x="567" y="769" type="line"/>
      <point x="599" y="791" type="line"/>
      <point x="507" y="930" type="line"/>
      <point x="441" y="930" type="line"/>
      <point x="297" y="792" type="line"/>
    </contour>
  </outline>
</glyph>
<glyph name="Hbar" format="2">
  <advance width="688"/>
  <unicode hex="0126"/>
  <outline>
    <contour>
      <point x="479" y="0" type="line"/>
      <point x="545" y="329" type="line"/>
      <point x="172" y="329" type="line"/>
      <point x="106" y="0" type="line"/>
      <point x="48" y="0" type="line"/>
      <point x="153" y="527" type="line"/>
      <point x="81" y="527" type="line"/>
      <point x="90" y="572" type="line"/>
      <point x="163" y="572" type="line"/>
      <point x="188" y="698" type="line"/>
      <point x="246" y="698" type="line"/>
      <point x="221" y="572" type="line"/>
      <point x="594" y="572" type="line"/>
      <point x="619" y="698" type="line"/>
      <point x="677" y="698" type="line"/>
      <point x="652" y="572" type="line"/>
      <point x="725" y="572" type="line"/>
      <point x="716" y="527" type="line"/>
      <point x="643" y="527" type="line"/>
      <point x="537" y="0" type="line"/>
    </contour>
    <contour>
      <point x="585" y="527" type="line"/>
      <point x="211" y="527" type="line"/>
      <point x="182" y="380" type="line"/>
      <point x="555" y="380" type="line"/>
    </contour>
  </outline>
</glyph>
<glyph name="hbar" format="2">
  <advance width="560"/>
  <unicode hex="0127"/>
  <outline>
    <contour>
      <point x="492" y="0" type="line"/>
      <point x="501" y="49" type="line"/>
      <point x="423" y="49" type="line"/>
      <point x="477" y="319" type="line"/>
      <point x="484" y="357"/>
      <point x="484" y="385" type="qcurve"/>
      <point x="484" y="451"/>
      <point x="418" y="524"/>
      <point x="352" y="524" type="qcurve"/>
      <point x="293" y="524"/>
      <point x="213" y="467"/>
      <point x="186" y="409" type="qcurve"/>
      <point x="182" y="409" type="line"/>
      <point x="223" y="617" type="line"/>
      <point x="374" y="617" type="line"/>
      <point x="383" y="661" type="line"/>
      <point x="232" y="661" type="line"/>
      <point x="248" y="740" type="line"/>
      <point x="192" y="740" type="line"/>
      <point x="177" y="661" type="line"/>
      <point x="113" y="661" type="line"/>
      <point x="104" y="617" type="line"/>
      <point x="168" y="617" type="line"/>
      <point x="44" y="0" type="line"/>
      <point x="99" y="0" type="line"/>
      <point x="159" y="297" type="line"/>
      <point x="179" y="375"/>
      <point x="225" y="425" type="qcurve"/>
      <point x="275" y="474"/>
      <point x="335" y="474" type="qcurve"/>
      <point x="428" y="474"/>
      <point x="428" y="376" type="qcurve"/>
      <point x="428" y="351"/>
      <point x="422" y="319" type="qcurve"/>
      <point x="371" y="60"/>
      <point x="369" y="54"/>
      <point x="369" y="43" type="qcurve"/>
      <point x="369" y="0"/>
      <point x="417" y="0" type="qcurve"/>
    </contour>
  </outline>
</glyph>
<glyph name="Itilde" format="2">
  <advance width="251"/>
  <unicode hex="0128"/>
  <outline>
    <contour>
      <point x="301" y="792" type="qcurve" smooth="yes"/>
      <point x="278" y="792"/>
      <point x="244" y="808"/>
      <point x="227" y="820" type="qcurve" smooth="yes"/>
      <point x="192" y="844"/>
      <point x="163" y="844" type="qcurve" smooth="yes"/>
      <point x="129" y="844"/>
      <point x="99" y="815" type="qcurve"/>
      <point x="78" y="843" type="line"/>
      <point x="120" y="891"/>
      <point x="171" y="891" type="qcurve" smooth="yes"/>
      <point x="194" y="891"/>
      <point x="228" y="875"/>
      <point x="245" y="863" type="qcurve" smooth="yes"/>
      <point x="281" y="839"/>
      <point x="309" y="839" type="qcurve" smooth="yes"/>
      <point x="344" y="839"/>
      <point x="373" y="868" type="qcurve"/>
      <point x="394" y="840" type="line"/>
      <point x="352" y="792"/>
    </contour>
    <contour>
      <point x="45" y="0" type="line"/>
      <point x="185" y="698" type="line"/>
      <point x="243" y="698" type="line"/>
      <point x="103" y="0" type="line"/>
    </contour>
  </outline>
</glyph>
<glyph name="imacron" format="2">
  <advance width="253"/>
  <unicode hex="012B"/>
  <outline>
    <contour>
      <point x="67" y="646" type="line"/>
      <point x="77" y="694" type="line"/>
      <point x="344" y="694" type="line"/>
      <point x="334" y="646" type="line"/>
    </contour>
    <contour>
      <point x="105" y="0" type="line" smooth="yes"/>
      <point x="54" y="0"/>
      <point x="54" y="46" type="qcurve" smooth="yes"/>
      <point x="54" y="58"/>
      <point x="56" y="64"/>
      <point x="146" y="512" type="qcurve"/>
      <point x="201" y="512" type="line"/>
      <point x="108" y="49" type="line"/>
      <point x="186" y="49" type="line"/>
      <point x="176" y="0" type="line"/>
    </contour>
  </outline>
</glyph>
<glyph name="Ibreve" format="2">
  <advance width="251"/>
  <unicode hex="012C"/>
  <outline>
    <contour>
      <point x="230" y="774" type="qcurve" smooth="yes"/>
      <point x="172" y="774"/>
      <point x="141" y="814" type="qcurve"/>
      <point x="115" y="852"/>
      <point x="105" y="901" type="qcurve"/>
      <point x="140" y="916" type="line"/>
      <point x="152" y="888" type="line" smooth="yes"/>
      <point x="166" y="853"/>
      <point x="202" y="818"/>
      <point x="231" y="818" type="qcurve" smooth="yes"/>
      <point x="261" y="818"/>
      <point x="306" y="850"/>
      <point x="334" y="889" type="qcurve" smooth="yes"/>
      <point x="354" y="916" type="line"/>
      <point x="390" y="901" type="line"/>
      <point x="346" y="813"/>
      <point x="287" y="785" type="qcurve" smooth="yes"/>
      <point x="263" y="774"/>
    </contour>
    <contour>
      <point x="45" y="0" type="line"/>
      <point x="185" y="698" type="line"/>
      <point x="243" y="698" type="line"/>
      <point x="103" y="0" type="line"/>
    </contour>
  </outline>
</glyph>
<glyph name="Iogonek" format="2">
  <advance width="251"/>
  <unicode hex="012E"/>
  <outline>
    <contour>
      <point x="11" y="-205" type="qcurve"/>
      <point x="69" y="-205"/>
      <point x="100" y="-170" type="qcurve"/>
      <point x="72" y="-139" type="line"/>
      <point x="46" y="-165"/>
      <point x="14" y="-165" type="qcurve"/>
      <point x="-26" y="-165"/>
      <point x="-26" y="-127" type="qcurve"/>
      <point x="-26" y="-103"/>
      <point x="27" y="-47"/>
      <point x="103" y="0" type="qcurve"/>
      <point x="243" y="698" type="line"/>
      <point x="185" y="698" type="line"/>
      <point x="45" y="0" type="line"/>
      <point x="53" y="0" type="line"/>
      <point x="54" y="-4" type="line"/>
      <point x="-76" y="-62"/>
      <point x="-76" y="-134" type="qcurve"/>
      <point x="-76" y="-172"/>
      <point x="-24" y="-205"/>
    </contour>
  </outline>
</glyph>
<glyph name="iogonek" format="2">
  <advance width="253"/>
  <unicode hex="012F"/>
  <outline>
    <contour>
      <point x="83" y="-205" type="qcurve"/>
      <point x="143" y="-205"/>
      <point x="172" y="-170" type="qcurve"/>
      <point x="145" y="-139" type="line"/>
      <point x="119" y="-165"/>
      <point x="86" y="-165" type="qcurve"/>
      <point x="46" y="-165"/>
      <point x="46" y="-127" type="qcurve"/>
      <point x="46" y="-103"/>
      <point x="100" y="-47"/>
      <point x="176" y="0" type="qcurve"/>
      <point x="186" y="49" type="line"/>
      <point x="108" y="49" type="line"/>
      <point x="201" y="512" type="line"/>
      <point x="146" y="512" type="line"/>
      <point x="56" y="64"/>
      <point x="54" y="58"/>
      <point x="54" y="46" type="qcurve"/>
      <point x="54" y="0"/>
      <point x="105" y="0" type="qcurve"/>
      <point x="127" y="0" type="line"/>
      <point x="128" y="-4" type="line"/>
      <point x="-3" y="-62"/>
      <point x="-3" y="-134" type="qcurve"/>
      <point x="-3" y="-172"/>
      <point x="48" y="-205"/>
    </contour>
    <contour>
      <point x="204" y="651" type="qcurve"/>
      <point x="242" y="651"/>
      <point x="247" y="683" type="qcurve"/>
      <point x="250" y="698" type="line"/>
      <point x="250" y="705" type="line"/>
      <point x="250" y="733"/>
      <point x="217" y="733" type="qcurve"/>
      <point x="180" y="733"/>
      <point x="173" y="701" type="qcurve"/>
      <point x="172" y="695" type="line"/>
      <point x="170" y="684"/>
      <point x="170" y="679" type="qcurve"/>
      <point x="170" y="651"/>
    </contour>
  </outline>
</glyph>
<glyph name="Idotaccent" format="2">
  <advance width="251"/>
  <unicode hex="0130"/>
  <outline>
    <contour>
      <point x="233" y="799" type="qcurve"/>
      <point x="271" y="799"/>
      <point x="276" y="831" type="qcurve"/>
      <point x="279" y="846" type="line"/>
      <point x="279" y="853" type="line"/>
      <point x="279" y="881"/>
      <point x="245" y="881" type="qcurve"/>
      <point x="208" y="881"/>
      <point x="202" y="849" type="qcurve"/>
      <point x="199" y="827" type="line"/>
      <point x="199" y="799"/>
    </contour>
    <contour>
      <point x="103" y="0" type="line"/>
      <point x="243" y="698" type="line"/>
      <point x="185" y="698" type="line"/>
      <point x="45" y="0" type="line"/>
    </contour>
  </outline>
</glyph>
<glyph name="jcircumflex" format="2">
  <advance width="244"/>
  <unicode hex="0135"/>
  <outline>
    <contour>
      <point x="-12" y="-200" type="line"/>
      <point x="28" y="-200"/>
      <point x="65" y="-164"/>
      <point x="73" y="-125" type="qcurve"/>
      <point x="200" y="512" type="line"/>
      <point x="145" y="512" type="line"/>
      <point x="13" y="-151" type="line"/>
      <point x="-71" y="-151" type="line"/>
      <point x="-81" y="-200" type="line"/>
    </contour>
    <contour>
      <point x="313" y="594" type="line"/>
      <point x="345" y="617" type="line"/>
      <point x="253" y="756" type="line"/>
      <point x="187" y="756" type="line"/>
      <point x="44" y="618" type="line"/>
      <point x="73" y="594" type="line"/>
      <point x="215" y="714" type="line"/>
    </contour>
  </outline>
</glyph>
<glyph name="uni0137" format="2">
  <advance width="503"/>
  <unicode hex="0137"/>
  <outline>
    <contour>
      <point x="403" y="0" type="line" smooth="yes"/>
      <point x="377" y="0"/>
      <point x="349" y="18"/>
      <point x="340" y="41" type="qcurve"/>
      <point x="233" y="270" type="line"/>
      <point x="135" y="184" type="line"/>
      <point x="98" y="0" type="line"/>
      <point x="43" y="0" type="line"/>
      <point x="191" y="740" type="line"/>
      <point x="246" y="740" type="line"/>
      <point x="149" y="254" type="line"/>
      <point x="153" y="254" type="line"/>
      <point x="298" y="384"/>
      <point x="444" y="512" type="qcurve"/>
      <point x="512" y="512" type="line"/>
      <point x="277" y="302" type="line"/>
      <point x="396" y="49" type="line"/>
      <point x="459" y="49" type="line"/>
      <point x="449" y="0" type="line"/>
    </contour>
    <contour>
      <point x="145" y="-232" type="line"/>
      <point x="188" y="-186"/>
      <point x="201" y="-148" type="qcurve"/>
      <point x="174" y="-144"/>
      <point x="174" y="-122" type="qcurve" smooth="yes"/>
      <point x="174" y="-88"/>
      <point x="190" y="-75" type="qcurve" smooth="yes"/>
      <point x="200" y="-66"/>
      <point x="221" y="-66" type="qcurve" smooth="yes"/>
      <point x="255" y="-66"/>
      <point x="255" y="-94" type="qcurve" smooth="yes"/>
      <point x="255" y="-100"/>
      <point x="252" y="-116" type="qcurve" smooth="yes"/>
      <point x="238" y="-181"/>
      <point x="186" y="-232" type="qcurve"/>
    </contour>
  </outline>
</glyph>
<glyph name="kra" format="2">
  <advance width="509"/>
  <unicode hex="0138"/>
  <outline>
    <contour>
      <point x="446" y="0" type="line"/>
      <point x="455" y="49" type="line"/>
      <point x="393" y="49" type="line"/>
      <point x="280" y="288" type="line"/>
      <point x="530" y="512" type="line"/>
      <point x="462" y="512" type="line"/>
      <point x="305" y="373"/>
      <point x="149" y="233" type="qcurve"/>
      <point x="144" y="233" type="line"/>
      <point x="201" y="512" type="line"/>
      <point x="146" y="512" type="line"/>
      <point x="43" y="0" type="line"/>
      <point x="98" y="0" type="line"/>
      <point x="130" y="163" type="line"/>
      <point x="236" y="255" type="line"/>
      <point x="336" y="41" type="line"/>
      <point x="347" y="18"/>
      <point x="374" y="0"/>
      <point x="400" y="0" type="qcurve"/>
    </contour>
  </outline>
</glyph>
<glyph name="lacute" format="2">
  <advance width="253"/>
  <unicode hex="013A"/>
  <outline>
    <contour>
      <point x="196" y="805" type="line"/>
      <point x="316" y="969" type="line"/>
      <point x="364" y="942" type="line"/>
      <point x="231" y="786" type="line"/>
    </contour>
    <contour>
      <point x="105" y="0" type="line" smooth="yes"/>
      <point x="54" y="0"/>
      <point x="54" y="46" type="qcurve" smooth="yes"/>
      <point x="54" y="57"/>
      <point x="56" y="64"/>
      <point x="191" y="740" type="qcurve"/>
      <point x="246" y="740" type="line"/>
      <point x="108" y="49" type="line"/>
      <point x="189" y="49" type="line"/>
      <point x="179" y="0" type="line"/>
    </contour>
  </outline>
</glyph>
<glyph name="lcedilla" format="2">
  <advance width="253"/>
  <unicode hex="013C"/>
  <outline>
    <contour>
      <point x="179" y="0" type="line"/>
      <point x="189" y="49" type="line"/>
      <point x="108" y="49" type="line"/>
      <point x="246" y="740" type="line"/>
      <point x="191" y="740" type="line"/>
      <point x="56" y="64"/>
      <point x="54" y="57"/>
      <point x="54" y="46" type="qcurve"/>
      <point x="54" y="0"/>
      <point x="105" y="0" type="qcurve"/>
    </contour>
    <contour>
      <point x="62" y="-232" type="line"/>
      <point x="114" y="-181"/>
      <point x="128" y="-116" type="qcurve"/>
      <point x="131" y="-100"/>
      <point x="131" y="-94" type="qcurve"/>
      <point x="131" y="-66"/>
      <point x="97" y="-66" type="qcurve"/>
      <point x="76" y="-66"/>
      <point x="66" y="-75" type="qcurve"/>
      <point x="50" y="-88"/>
      <point x="50" y="-122" type="qcurve"/>
      <point x="50" y="-144"/>
      <point x="77" y="-148" type="qcurve"/>
      <point x="64" y="-186"/>
      <point x="21" y="-232" type="qcurve"/>
    </contour>
  </outline>
</glyph>
<glyph name="uni013C" format="2">
  <advance width="253"/>
  <unicode hex="013C"/>
  <outline>
    <contour>
      <point x="105" y="0" type="line" smooth="yes"/>
      <point x="54" y="0"/>
      <point x="54" y="46" type="qcurve" smooth="yes"/>
      <point x="54" y="57"/>
      <point x="56" y="64"/>
      <point x="191" y="740" type="qcurve"/>
      <point x="246" y="740" type="line"/>
      <point x="108" y="49" type="line"/>
      <point x="189" y="49" type="line"/>
      <point x="179" y="0" type="line"/>
    </contour>
    <contour>
      <point x="21" y="-232" type="line"/>
      <point x="64" y="-186"/>
      <point x="77" y="-148" type="qcurve"/>
      <point x="50" y="-144"/>
      <point x="50" y="-122" type="qcurve" smooth="yes"/>
      <point x="50" y="-88"/>
      <point x="66" y="-75" type="qcurve" smooth="yes"/>
      <point x="76" y="-66"/>
      <point x="97" y="-66" type="qcurve" smooth="yes"/>
      <point x="131" y="-66"/>
      <point x="131" y="-94" type="qcurve" smooth="yes"/>
      <point x="131" y="-100"/>
      <point x="128" y="-116" type="qcurve" smooth="yes"/>
      <point x="114" y="-181"/>
      <point x="62" y="-232" type="qcurve"/>
    </contour>
  </outline>
</glyph>
<glyph name="Lcaron" format="2">
  <advance width="481"/>
  <unicode hex="013D"/>
  <outline>
    <contour>
      <point x="405" y="0" type="line"/>
      <point x="415" y="52" type="line"/>
      <point x="114" y="52" type="line"/>
      <point x="243" y="698" type="line"/>
      <point x="185" y="698" type="line"/>
      <point x="45" y="0" type="line"/>
    </contour>
    <contour>
      <point x="345" y="559" type="line"/>
      <point x="412" y="740" type="line"/>
      <point x="345" y="740" type="line"/>
      <point x="306" y="559" type="line"/>
    </contour>
  </outline>
</glyph>
<glyph name="lcaron" format="2">
  <advance width="253"/>
  <unicode hex="013E"/>
  <outline>
    <contour>
      <point x="179" y="0" type="line"/>
      <point x="189" y="49" type="line"/>
      <point x="108" y="49" type="line"/>
      <point x="246" y="740" type="line"/>
      <point x="191" y="740" type="line"/>
      <point x="56" y="64"/>
      <point x="54" y="57"/>
      <point x="54" y="46" type="qcurve"/>
      <point x="54" y="0"/>
      <point x="105" y="0" type="qcurve"/>
    </contour>
    <contour>
      <point x="321" y="559" type="line"/>
      <point x="388" y="740" type="line"/>
      <point x="321" y="740" type="line"/>
      <point x="282" y="559" type="line"/>
    </contour>
  </outline>
</glyph>
<glyph name="Ldot" format="2">
  <advance width="481"/>
  <unicode hex="013F"/>
  <outline>
    <contour>
      <point x="45" y="0" type="line"/>
      <point x="185" y="698" type="line"/>
      <point x="243" y="698" type="line"/>
      <point x="114" y="52" type="line"/>
      <point x="415" y="52" type="line"/>
      <point x="405" y="0" type="line"/>
    </contour>
    <contour>
      <point x="364" y="284" type="qcurve" smooth="yes"/>
      <point x="330" y="284"/>
      <point x="330" y="312" type="qcurve"/>
      <point x="333" y="334" type="line"/>
      <point x="339" y="366"/>
      <point x="376" y="366" type="qcurve" smooth="yes"/>
      <point x="410" y="366"/>
      <point x="410" y="338" type="qcurve" smooth="yes"/>
      <point x="410" y="331" type="line"/>
      <point x="407" y="316" type="line"/>
      <point x="402" y="284"/>
    </contour>
  </outline>
</glyph>
<glyph name="Lmiddledot" format="2">
  <advance width="481"/>
  <unicode hex="013F"/>
  <outline>
    <contour>
      <point x="405" y="0" type="line"/>
      <point x="415" y="52" type="line"/>
      <point x="114" y="52" type="line"/>
      <point x="243" y="698" type="line"/>
      <point x="185" y="698" type="line"/>
      <point x="45" y="0" type="line"/>
    </contour>
    <contour>
      <point x="364" y="284" type="qcurve"/>
      <point x="402" y="284"/>
      <point x="407" y="316" type="qcurve"/>
      <point x="410" y="331" type="line"/>
      <point x="410" y="338" type="line"/>
      <point x="410" y="366"/>
      <point x="376" y="366" type="qcurve"/>
      <point x="339" y="366"/>
      <point x="333" y="334" type="qcurve"/>
      <point x="330" y="312" type="line"/>
      <point x="330" y="284"/>
    </contour>
  </outline>
</glyph>
<glyph name="lmiddledot" format="2">
  <advance width="322"/>
  <unicode hex="0140"/>
  <outline>
    <contour>
      <point x="179" y="0" type="line"/>
      <point x="189" y="49" type="line"/>
      <point x="108" y="49" type="line"/>
      <point x="246" y="740" type="line"/>
      <point x="191" y="740" type="line"/>
      <point x="56" y="64"/>
      <point x="54" y="57"/>
      <point x="54" y="46" type="qcurve"/>
      <point x="54" y="0"/>
      <point x="105" y="0" type="qcurve"/>
    </contour>
    <contour>
      <point x="282" y="249" type="qcurve"/>
      <point x="320" y="249"/>
      <point x="325" y="281" type="qcurve"/>
      <point x="328" y="296" type="line"/>
      <point x="328" y="303" type="line"/>
      <point x="328" y="331"/>
      <point x="294" y="331" type="qcurve"/>
      <point x="257" y="331"/>
      <point x="251" y="299" type="qcurve"/>
      <point x="248" y="277" type="line"/>
      <point x="248" y="249"/>
    </contour>
  </outline>
</glyph>
<glyph name="Lslash" format="2">
  <advance width="487"/>
  <unicode hex="0141"/>
  <outline>
    <contour>
      <point x="409" y="0" type="line"/>
      <point x="420" y="52" type="line"/>
      <point x="117" y="52" type="line"/>
      <point x="167" y="301" type="line"/>
      <point x="361" y="362" type="line"/>
      <point x="370" y="415" type="line"/>
      <point x="177" y="354" type="line"/>
      <point x="246" y="698" type="line"/>
      <point x="188" y="698" type="line"/>
      <point x="115" y="334" type="line"/>
      <point x="11" y="301" type="line"/>
      <point x="3" y="250" type="line"/>
      <point x="105" y="282" type="line"/>
      <point x="48" y="0" type="line"/>
    </contour>
  </outline>
</glyph>
<glyph name="lslash" format="2">
  <advance width="266"/>
  <unicode hex="0142"/>
  <outline>
    <contour>
      <point x="183" y="0" type="line"/>
      <point x="193" y="49" type="line"/>
      <point x="112" y="49" type="line"/>
      <point x="173" y="355" type="line"/>
      <point x="277" y="388" type="line"/>
      <point x="284" y="438" type="line"/>
      <point x="183" y="404" type="line"/>
      <point x="250" y="740" type="line"/>
      <point x="195" y="740" type="line"/>
      <point x="124" y="385" type="line"/>
      <point x="52" y="362" type="line"/>
      <point x="44" y="313" type="line"/>
      <point x="114" y="335" type="line"/>
      <point x="60" y="64"/>
      <point x="58" y="57"/>
      <point x="58" y="46" type="qcurve"/>
      <point x="58" y="0"/>
      <point x="109" y="0" type="qcurve"/>
    </contour>
  </outline>
</glyph>
<glyph name="Nacute" format="2">
  <advance width="681"/>
  <unicode hex="0143"/>
  <outline>
    <contour>
      <point x="415" y="780" type="line"/>
      <point x="534" y="943" type="line"/>
      <point x="582" y="916" type="line"/>
      <point x="449" y="760" type="line"/>
    </contour>
    <contour>
      <point x="465" y="0" type="line"/>
      <point x="228" y="615" type="line"/>
      <point x="224" y="615" type="line"/>
      <point x="101" y="0" type="line"/>
      <point x="45" y="0" type="line"/>
      <point x="185" y="698" type="line"/>
      <point x="254" y="698" type="line"/>
      <point x="491" y="83" type="line"/>
      <point x="495" y="83" type="line"/>
      <point x="618" y="698" type="line"/>
      <point x="674" y="698" type="line"/>
      <point x="534" y="0" type="line"/>
    </contour>
  </outline>
</glyph>
<glyph name="uni0146" format="2">
  <advance width="558"/>
  <unicode hex="0146"/>
  <outline>
    <contour>
      <point x="415" y="0" type="line" smooth="yes"/>
      <point x="366" y="0"/>
      <point x="366" y="42" type="qcurve" smooth="yes"/>
      <point x="366" y="50"/>
      <point x="420" y="319" type="qcurve" smooth="yes"/>
      <point x="426" y="351"/>
      <point x="426" y="376" type="qcurve" smooth="yes"/>
      <point x="426" y="474"/>
      <point x="333" y="474" type="qcurve" smooth="yes"/>
      <point x="273" y="474"/>
      <point x="223" y="425" type="qcurve"/>
      <point x="177" y="375"/>
      <point x="157" y="297" type="qcurve"/>
      <point x="98" y="0" type="line"/>
      <point x="43" y="0" type="line"/>
      <point x="145" y="512" type="line"/>
      <point x="201" y="512" type="line"/>
      <point x="180" y="409" type="line"/>
      <point x="184" y="409" type="line"/>
      <point x="211" y="467"/>
      <point x="291" y="524"/>
      <point x="350" y="524" type="qcurve" smooth="yes"/>
      <point x="416" y="524"/>
      <point x="482" y="451"/>
      <point x="482" y="385" type="qcurve" smooth="yes"/>
      <point x="482" y="357"/>
      <point x="475" y="319" type="qcurve" smooth="yes"/>
      <point x="421" y="49" type="line"/>
      <point x="499" y="49" type="line"/>
      <point x="489" y="0" type="line"/>
    </contour>
    <contour>
      <point x="156" y="-232" type="line"/>
      <point x="199" y="-186"/>
      <point x="212" y="-148" type="qcurve"/>
      <point x="185" y="-144"/>
      <point x="185" y="-122" type="qcurve" smooth="yes"/>
      <point x="185" y="-88"/>
      <point x="201" y="-75" type="qcurve" smooth="yes"/>
      <point x="211" y="-66"/>
      <point x="232" y="-66" type="qcurve" smooth="yes"/>
      <point x="266" y="-66"/>
      <point x="266" y="-94" type="qcurve" smooth="yes"/>
      <point x="266" y="-100"/>
      <point x="263" y="-116" type="qcurve" smooth="yes"/>
      <point x="249" y="-181"/>
      <point x="197" y="-232" type="qcurve"/>
    </contour>
  </outline>
</glyph>
<glyph name="Ncaron" format="2">
  <advance width="681"/>
  <unicode hex="0147"/>
  <outline>
    <contour>
      <point x="534" y="0" type="line"/>
      <point x="674" y="698" type="line"/>
      <point x="618" y="698" type="line"/>
      <point x="495" y="83" type="line"/>
      <point x="491" y="83" type="line"/>
      <point x="254" y="698" type="line"/>
      <point x="185" y="698" type="line"/>
      <point x="45" y="0" type="line"/>
      <point x="101" y="0" type="line"/>
      <point x="224" y="615" type="line"/>
      <point x="228" y="615" type="line"/>
      <point x="465" y="0" type="line"/>
    </contour>
    <contour>
      <point x="484" y="774" type="line"/>
      <point x="627" y="913" type="line"/>
      <point x="597" y="937" type="line"/>
      <point x="454" y="816" type="line"/>
      <point x="358" y="937" type="line"/>
      <point x="326" y="914" type="line"/>
      <point x="417" y="774" type="line"/>
    </contour>
  </outline>
</glyph>
<glyph name="Eng" format="2">
  <advance width="682"/>
  <unicode hex="014A"/>
  <outline>
    <contour>
      <point x="426" y="-200" type="line"/>
      <point x="464" y="-200"/>
      <point x="501" y="-164"/>
      <point x="509" y="-126" type="qcurve"/>
      <point x="674" y="698" type="line"/>
      <point x="618" y="698" type="line"/>
      <point x="495" y="82" type="line"/>
      <point x="491" y="82" type="line"/>
      <point x="254" y="698" type="line"/>
      <point x="185" y="698" type="line"/>
      <point x="45" y="0" type="line"/>
      <point x="101" y="0" type="line"/>
      <point x="224" y="616" type="line"/>
      <point x="228" y="616" type="line"/>
      <point x="465" y="0" type="line"/>
      <point x="478" y="0" type="line"/>
      <point x="448" y="-150" type="line"/>
      <point x="365" y="-150" type="line"/>
      <point x="355" y="-200" type="line"/>
    </contour>
  </outline>
</glyph>
<glyph name="eng" format="2">
  <advance width="556"/>
  <unicode hex="014B"/>
  <outline>
    <contour>
      <point x="300" y="-200" type="line"/>
      <point x="341" y="-200"/>
      <point x="380" y="-164"/>
      <point x="387" y="-125" type="qcurve"/>
      <point x="475" y="319" type="line"/>
      <point x="482" y="357"/>
      <point x="482" y="385" type="qcurve"/>
      <point x="482" y="451"/>
      <point x="416" y="524"/>
      <point x="350" y="524" type="qcurve"/>
      <point x="291" y="524"/>
      <point x="211" y="467"/>
      <point x="184" y="409" type="qcurve"/>
      <point x="180" y="409" type="line"/>
      <point x="201" y="512" type="line"/>
      <point x="145" y="512" type="line"/>
      <point x="43" y="0" type="line"/>
      <point x="98" y="0" type="line"/>
      <point x="157" y="297" type="line"/>
      <point x="177" y="375"/>
      <point x="223" y="425" type="qcurve"/>
      <point x="273" y="474"/>
      <point x="333" y="474" type="qcurve"/>
      <point x="426" y="474"/>
      <point x="426" y="376" type="qcurve"/>
      <point x="426" y="366"/>
      <point x="423" y="333"/>
      <point x="326" y="-151" type="qcurve"/>
      <point x="242" y="-151" type="line"/>
      <point x="232" y="-200" type="line"/>
    </contour>
  </outline>
</glyph>
<glyph name="obreve" format="2">
  <advance width="544"/>
  <unicode hex="014F"/>
  <outline>
    <contour>
      <point x="231" y="-12" type="qcurve"/>
      <point x="291" y="-12"/>
      <point x="388" y="43"/>
      <point x="422" y="90" type="qcurve"/>
      <point x="491" y="191"/>
      <point x="491" y="324" type="qcurve"/>
      <point x="491" y="418"/>
      <point x="394" y="524"/>
      <point x="313" y="524" type="qcurve"/>
      <point x="253" y="524"/>
      <point x="156" y="470"/>
      <point x="123" y="423" type="qcurve"/>
      <point x="53" y="322"/>
      <point x="53" y="188" type="qcurve"/>
      <point x="53" y="94"/>
      <point x="150" y="-12"/>
    </contour>
    <contour>
      <point x="238" y="37" type="qcurve"/>
      <point x="173" y="37"/>
      <point x="109" y="115"/>
      <point x="109" y="174" type="qcurve"/>
      <point x="109" y="204"/>
      <point x="114" y="230" type="qcurve"/>
      <point x="126" y="291" type="line"/>
      <point x="144" y="379"/>
      <point x="239" y="475"/>
      <point x="306" y="475" type="qcurve"/>
      <point x="372" y="475"/>
      <point x="435" y="397"/>
      <point x="435" y="338" type="qcurve"/>
      <point x="435" y="308"/>
      <point x="430" y="282" type="qcurve"/>
      <point x="418" y="221" type="line"/>
      <point x="400" y="133"/>
      <point x="305" y="37"/>
    </contour>
    <contour>
      <point x="331" y="600" type="qcurve"/>
      <point x="364" y="600"/>
      <point x="388" y="611" type="qcurve"/>
      <point x="447" y="639"/>
      <point x="491" y="727" type="qcurve"/>
      <point x="455" y="742" type="line"/>
      <point x="435" y="715" type="line"/>
      <point x="407" y="677"/>
      <point x="362" y="645"/>
      <point x="332" y="645" type="qcurve"/>
      <point x="303" y="645"/>
      <point x="267" y="679"/>
      <point x="253" y="714" type="qcurve"/>
      <point x="241" y="742" type="line"/>
      <point x="206" y="727" type="line"/>
      <point x="216" y="678"/>
      <point x="242" y="640" type="qcurve"/>
      <point x="273" y="600"/>
    </contour>
  </outline>
</glyph>
<glyph name="ohungarumlaut" format="2">
  <advance width="544"/>
  <unicode hex="0151"/>
  <outline>
    <contour>
      <point x="222" y="604" type="line"/>
      <point x="341" y="768" type="line"/>
      <point x="386" y="742" type="line"/>
      <point x="254" y="586" type="line"/>
    </contour>
    <contour>
      <point x="380" y="604" type="line"/>
      <point x="499" y="768" type="line"/>
      <point x="545" y="742" type="line"/>
      <point x="412" y="586" type="line"/>
    </contour>
    <contour>
      <point x="231" y="-12" type="qcurve" smooth="yes"/>
      <point x="150" y="-12"/>
      <point x="53" y="94"/>
      <point x="53" y="188" type="qcurve" smooth="yes"/>
      <point x="53" y="322"/>
      <point x="123" y="423" type="qcurve" smooth="yes"/>
      <point x="156" y="470"/>
      <point x="253" y="524"/>
      <point x="313" y="524" type="qcurve" smooth="yes"/>
      <point x="394" y="524"/>
      <point x="491" y="418"/>
      <point x="491" y="324" type="qcurve" smooth="yes"/>
      <point x="491" y="191"/>
      <point x="422" y="90" type="qcurve"/>
      <point x="388" y="43"/>
      <point x="291" y="-12"/>
    </contour>
    <contour>
      <point x="238" y="37" type="qcurve" smooth="yes"/>
      <point x="305" y="37"/>
      <point x="400" y="133"/>
      <point x="418" y="221" type="qcurve" smooth="yes"/>
      <point x="430" y="282" type="line" smooth="yes"/>
      <point x="435" y="308"/>
      <point x="435" y="338" type="qcurve" smooth="yes"/>
      <point x="435" y="397"/>
      <point x="372" y="475"/>
      <point x="306" y="475" type="qcurve" smooth="yes"/>
      <point x="239" y="475"/>
      <point x="144" y="379"/>
      <point x="126" y="291" type="qcurve" smooth="yes"/>
      <point x="114" y="230" type="line" smooth="yes"/>
      <point x="109" y="204"/>
      <point x="109" y="174" type="qcurve" smooth="yes"/>
      <point x="109" y="115"/>
      <point x="173" y="37"/>
    </contour>
  </outline>
</glyph>
<glyph name="oe" format="2">
  <advance width="876"/>
  <unicode hex="0153"/>
  <outline>
    <contour>
      <point x="238" y="37" type="qcurve"/>
      <point x="173" y="37"/>
      <point x="109" y="115"/>
      <point x="109" y="174" type="qcurve"/>
      <point x="109" y="204"/>
      <point x="114" y="230" type="qcurve"/>
      <point x="126" y="291" type="line"/>
      <point x="144" y="379"/>
      <point x="239" y="475"/>
      <point x="306" y="475" type="qcurve"/>
      <point x="372" y="475"/>
      <point x="435" y="397"/>
      <point x="435" y="338" type="qcurve"/>
      <point x="435" y="308"/>
      <point x="430" y="282" type="qcurve"/>
      <point x="418" y="221" type="line"/>
      <point x="400" y="133"/>
      <point x="305" y="37"/>
    </contour>
    <contour>
      <point x="487" y="270" type="qcurve"/>
      <point x="491" y="294" type="line"/>
      <point x="508" y="375"/>
      <point x="607" y="476"/>
      <point x="677" y="476" type="qcurve"/>
      <point x="728" y="476"/>
      <point x="789" y="436"/>
      <point x="789" y="393" type="qcurve"/>
      <point x="789" y="367"/>
      <point x="764" y="324"/>
      <point x="732" y="308" type="qcurve"/>
      <point x="670" y="276"/>
    </contour>
    <contour>
      <point x="609" y="-12" type="qcurve"/>
      <point x="736" y="-12"/>
      <point x="820" y="106" type="qcurve"/>
      <point x="782" y="136" type="line"/>
      <point x="753" y="91"/>
      <point x="667" y="37"/>
      <point x="613" y="37" type="qcurve"/>
      <point x="480" y="37"/>
      <point x="477" y="183" type="qcurve"/>
      <point x="477" y="213"/>
      <point x="480" y="226" type="qcurve"/>
      <point x="690" y="230"/>
      <point x="770" y="277" type="qcurve"/>
      <point x="845" y="319"/>
      <point x="845" y="397" type="qcurve"/>
      <point x="845" y="453"/>
      <point x="755" y="524"/>
      <point x="683" y="524" type="qcurve"/>
      <point x="613" y="524"/>
      <point x="512" y="451"/>
      <point x="480" y="394" type="qcurve"/>
      <point x="475" y="394" type="line"/>
      <point x="439" y="524"/>
      <point x="313" y="524" type="qcurve"/>
      <point x="253" y="524"/>
      <point x="156" y="470"/>
      <point x="123" y="423" type="qcurve"/>
      <point x="53" y="322"/>
      <point x="53" y="188" type="qcurve"/>
      <point x="53" y="95"/>
      <point x="150" y="-12"/>
      <point x="231" y="-12" type="qcurve"/>
      <point x="363" y="-12"/>
      <point x="431" y="122" type="qcurve"/>
      <point x="435" y="122" type="line"/>
      <point x="467" y="-12"/>
    </contour>
  </outline>
</glyph>
<glyph name="rcedilla" format="2">
  <advance width="354"/>
  <unicode hex="0157"/>
  <outline>
    <contour>
      <point x="98" y="0" type="line"/>
      <point x="158" y="302" type="line"/>
      <point x="171" y="366"/>
      <point x="260" y="457"/>
      <point x="332" y="457" type="qcurve"/>
      <point x="365" y="457" type="line"/>
      <point x="376" y="512" type="line"/>
      <point x="344" y="512" type="line"/>
      <point x="278" y="512"/>
      <point x="205" y="449"/>
      <point x="182" y="405" type="qcurve"/>
      <point x="178" y="405" type="line"/>
      <point x="201" y="512" type="line"/>
      <point x="145" y="512" type="line"/>
      <point x="43" y="0" type="line"/>
    </contour>
    <contour>
      <point x="21" y="-232" type="line"/>
      <point x="73" y="-181"/>
      <point x="87" y="-116" type="qcurve"/>
      <point x="90" y="-100"/>
      <point x="90" y="-94" type="qcurve"/>
      <point x="90" y="-66"/>
      <point x="56" y="-66" type="qcurve"/>
      <point x="35" y="-66"/>
      <point x="25" y="-75" type="qcurve"/>
      <point x="9" y="-88"/>
      <point x="9" y="-122" type="qcurve"/>
      <point x="9" y="-144"/>
      <point x="36" y="-148" type="qcurve"/>
      <point x="23" y="-186"/>
      <point x="-20" y="-232" type="qcurve"/>
    </contour>
  </outline>
</glyph>
<glyph name="uni0162" format="2">
  <advance width="552"/>
  <unicode hex="0162"/>
  <outline>
    <contour>
      <point x="196" y="0" type="line"/>
      <point x="325" y="646" type="line"/>
      <point x="98" y="646" type="line"/>
      <point x="108" y="698" type="line"/>
      <point x="621" y="698" type="line"/>
      <point x="610" y="646" type="line"/>
      <point x="383" y="646" type="line"/>
      <point x="254" y="0" type="line"/>
    </contour>
    <contour>
      <point x="136" y="-232" type="line"/>
      <point x="179" y="-186"/>
      <point x="192" y="-148" type="qcurve"/>
      <point x="165" y="-144"/>
      <point x="165" y="-122" type="qcurve" smooth="yes"/>
      <point x="165" y="-88"/>
      <point x="181" y="-75" type="qcurve" smooth="yes"/>
      <point x="191" y="-66"/>
      <point x="212" y="-66" type="qcurve" smooth="yes"/>
      <point x="246" y="-66"/>
      <point x="246" y="-94" type="qcurve" smooth="yes"/>
      <point x="246" y="-100"/>
      <point x="243" y="-116" type="qcurve" smooth="yes"/>
      <point x="229" y="-181"/>
      <point x="177" y="-232" type="qcurve"/>
    </contour>
  </outline>
</glyph>
<glyph name="tcaron" format="2">
  <advance width="313"/>
  <unicode hex="0165"/>
  <outline>
    <contour>
      <point x="221" y="0" type="line"/>
      <point x="231" y="49" type="line"/>
      <point x="125" y="49" type="line"/>
      <point x="208" y="463" type="line"/>
      <point x="321" y="463" type="line"/>
      <point x="331" y="512" type="line"/>
      <point x="217" y="512" type="line"/>
      <point x="246" y="655" type="line"/>
      <point x="194" y="655" type="line"/>
      <point x="173" y="552" type="line"/>
      <point x="170" y="530"/>
      <point x="153" y="512"/>
      <point x="130" y="512" type="qcurve"/>
      <point x="79" y="512" type="line"/>
      <point x="69" y="462" type="line"/>
      <point x="153" y="462" type="line"/>
      <point x="75" y="73" type="line"/>
      <point x="72" y="62"/>
      <point x="72" y="45" type="qcurve"/>
      <point x="72" y="0"/>
      <point x="124" y="0" type="qcurve"/>
    </contour>
    <contour>
      <point x="342" y="566" type="line"/>
      <point x="409" y="747" type="line"/>
      <point x="342" y="747" type="line"/>
      <point x="303" y="566" type="line"/>
    </contour>
  </outline>
</glyph>
<glyph name="Tbar" format="2">
  <advance width="553"/>
  <unicode hex="0166"/>
  <outline>
    <contour>
      <point x="196" y="0" type="line"/>
      <point x="265" y="347" type="line"/>
      <point x="95" y="347" type="line"/>
      <point x="105" y="394" type="line"/>
      <point x="275" y="394" type="line"/>
      <point x="325" y="646" type="line"/>
      <point x="98" y="646" type="line"/>
      <point x="108" y="698" type="line"/>
      <point x="621" y="698" type="line"/>
      <point x="610" y="646" type="line"/>
      <point x="383" y="646" type="line"/>
      <point x="333" y="394" type="line"/>
      <point x="502" y="394" type="line"/>
      <point x="493" y="347" type="line"/>
      <point x="323" y="347" type="line"/>
      <point x="254" y="0" type="line"/>
    </contour>
  </outline>
</glyph>
<glyph name="tbar" format="2">
  <advance width="319"/>
  <unicode hex="0167"/>
  <outline>
    <contour>
      <point x="127" y="0" type="line" smooth="yes"/>
      <point x="75" y="0"/>
      <point x="75" y="45" type="qcurve" smooth="yes"/>
      <point x="75" y="59"/>
      <point x="78" y="73" type="qcurve" smooth="yes"/>
      <point x="116" y="264" type="line"/>
      <point x="61" y="264" type="line"/>
      <point x="69" y="303" type="line"/>
      <point x="124" y="303" type="line"/>
      <point x="157" y="463" type="line"/>
      <point x="73" y="463" type="line"/>
      <point x="83" y="512" type="line"/>
      <point x="134" y="512" type="line" smooth="yes"/>
      <point x="157" y="512"/>
      <point x="174" y="530"/>
      <point x="177" y="552" type="qcurve"/>
      <point x="198" y="655" type="line"/>
      <point x="250" y="655" type="line"/>
      <point x="221" y="512" type="line"/>
      <point x="335" y="512" type="line"/>
      <point x="325" y="463" type="line"/>
      <point x="212" y="463" type="line"/>
      <point x="179" y="303" type="line"/>
      <point x="273" y="303" type="line"/>
      <point x="265" y="264" type="line"/>
      <point x="171" y="264" type="line"/>
      <point x="128" y="49" type="line"/>
      <point x="234" y="49" type="line"/>
      <point x="224" y="0" type="line"/>
    </contour>
  </outline>
</glyph>
<glyph name="Ubreve" format="2">
  <advance width="650"/>
  <unicode hex="016C"/>
  <outline>
    <contour>
      <point x="278" y="-12" type="qcurve"/>
      <point x="403" y="-12"/>
      <point x="532" y="117"/>
      <point x="563" y="275" type="qcurve"/>
      <point x="648" y="698" type="line"/>
      <point x="590" y="698" type="line"/>
      <point x="506" y="279" type="line"/>
      <point x="482" y="149"/>
      <point x="380" y="40"/>
      <point x="284" y="40" type="qcurve"/>
      <point x="213" y="40"/>
      <point x="140" y="113"/>
      <point x="140" y="178" type="qcurve"/>
      <point x="140" y="197"/>
      <point x="143" y="218" type="qcurve"/>
      <point x="145" y="233"/>
      <point x="237" y="698" type="qcurve"/>
      <point x="179" y="698" type="line"/>
      <point x="97" y="287" type="line"/>
      <point x="83" y="223"/>
      <point x="83" y="173" type="qcurve"/>
      <point x="83" y="83"/>
      <point x="186" y="-12"/>
    </contour>
    <contour>
      <point x="428" y="774" type="qcurve"/>
      <point x="461" y="774"/>
      <point x="485" y="785" type="qcurve"/>
      <point x="544" y="813"/>
      <point x="588" y="901" type="qcurve"/>
      <point x="552" y="916" type="line"/>
      <point x="532" y="889" type="line"/>
      <point x="504" y="850"/>
      <point x="459" y="818"/>
      <point x="429" y="818" type="qcurve"/>
      <point x="400" y="818"/>
      <point x="364" y="853"/>
      <point x="350" y="888" type="qcurve"/>
      <point x="338" y="916" type="line"/>
      <point x="303" y="901" type="line"/>
      <point x="313" y="852"/>
      <point x="339" y="814" type="qcurve"/>
      <point x="370" y="774"/>
    </contour>
  </outline>
</glyph>
<glyph name="ubreve" format="2">
  <advance width="557"/>
  <unicode hex="016D"/>
  <outline>
    <contour>
      <point x="339" y="600" type="qcurve" smooth="yes"/>
      <point x="281" y="600"/>
      <point x="250" y="640" type="qcurve"/>
      <point x="224" y="678"/>
      <point x="214" y="727" type="qcurve"/>
      <point x="249" y="742" type="line"/>
      <point x="261" y="714" type="line" smooth="yes"/>
      <point x="275" y="679"/>
      <point x="311" y="645"/>
      <point x="340" y="645" type="qcurve" smooth="yes"/>
      <point x="370" y="645"/>
      <point x="415" y="677"/>
      <point x="443" y="715" type="qcurve" smooth="yes"/>
      <point x="463" y="742" type="line"/>
      <point x="499" y="727" type="line"/>
      <point x="455" y="639"/>
      <point x="396" y="611" type="qcurve" smooth="yes"/>
      <point x="372" y="600"/>
    </contour>
    <contour>
      <point x="199" y="-12" type="qcurve" smooth="yes"/>
      <point x="133" y="-12"/>
      <point x="67" y="61"/>
      <point x="67" y="127" type="qcurve" smooth="yes"/>
      <point x="67" y="156"/>
      <point x="74" y="193" type="qcurve" smooth="yes"/>
      <point x="138" y="512" type="line"/>
      <point x="193" y="512" type="line"/>
      <point x="129" y="193" type="line" smooth="yes"/>
      <point x="124" y="167"/>
      <point x="124" y="136" type="qcurve" smooth="yes"/>
      <point x="124" y="88"/>
      <point x="167" y="38"/>
      <point x="215" y="38" type="qcurve" smooth="yes"/>
      <point x="279" y="38"/>
      <point x="324" y="87" type="qcurve"/>
      <point x="372" y="142"/>
      <point x="390" y="215" type="qcurve"/>
      <point x="449" y="512" type="line"/>
      <point x="504" y="512" type="line"/>
      <point x="412" y="49" type="line"/>
      <point x="489" y="49" type="line"/>
      <point x="480" y="0" type="line"/>
      <point x="407" y="0" type="line" smooth="yes"/>
      <point x="382" y="0"/>
      <point x="358" y="25"/>
      <point x="358" y="46" type="qcurve" smooth="yes"/>
      <point x="358" y="54"/>
      <point x="367" y="103" type="qcurve"/>
      <point x="363" y="103" type="line"/>
      <point x="336" y="45"/>
      <point x="256" y="-12"/>
    </contour>
  </outline>
</glyph>
<glyph name="Uring" format="2">
  <advance width="650"/>
  <unicode hex="016E"/>
  <outline>
    <contour>
      <point x="278" y="-12" type="qcurve"/>
      <point x="403" y="-12"/>
      <point x="532" y="117"/>
      <point x="563" y="275" type="qcurve"/>
      <point x="648" y="698" type="line"/>
      <point x="590" y="698" type="line"/>
      <point x="506" y="279" type="line"/>
      <point x="482" y="149"/>
      <point x="380" y="40"/>
      <point x="284" y="40" type="qcurve"/>
      <point x="213" y="40"/>
      <point x="140" y="113"/>
      <point x="140" y="178" type="qcurve"/>
      <point x="140" y="197"/>
      <point x="143" y="218" type="qcurve"/>
      <point x="145" y="233"/>
      <point x="237" y="698" type="qcurve"/>
      <point x="179" y="698" type="line"/>
      <point x="97" y="287" type="line"/>
      <point x="83" y="223"/>
      <point x="83" y="173" type="qcurve"/>
      <point x="83" y="83"/>
      <point x="186" y="-12"/>
    </contour>
    <contour>
      <point x="426" y="755" type="qcurve"/>
      <point x="481" y="755"/>
      <point x="546" y="821"/>
      <point x="546" y="877" type="qcurve"/>
      <point x="546" y="913"/>
      <point x="501" y="966"/>
      <point x="456" y="966" type="qcurve"/>
      <point x="401" y="966"/>
      <point x="336" y="900"/>
      <point x="336" y="844" type="qcurve"/>
      <point x="336" y="808"/>
      <point x="381" y="755"/>
    </contour>
    <contour>
      <point x="431" y="791" type="qcurve"/>
      <point x="377" y="791"/>
      <point x="377" y="840" type="qcurve"/>
      <point x="377" y="851"/>
      <point x="381" y="870" type="qcurve"/>
      <point x="393" y="930"/>
      <point x="451" y="930" type="qcurve"/>
      <point x="505" y="930"/>
      <point x="505" y="881" type="qcurve"/>
      <point x="505" y="871"/>
      <point x="501" y="851" type="qcurve"/>
      <point x="490" y="791"/>
    </contour>
  </outline>
</glyph>
<glyph name="uring" format="2">
  <advance width="557"/>
  <unicode hex="016F"/>
  <outline>
    <contour>
      <point x="199" y="-12" type="qcurve"/>
      <point x="256" y="-12"/>
      <point x="336" y="45"/>
      <point x="363" y="103" type="qcurve"/>
      <point x="367" y="103" type="line"/>
      <point x="358" y="54"/>
      <point x="358" y="46" type="qcurve"/>
      <point x="358" y="25"/>
      <point x="382" y="0"/>
      <point x="407" y="0" type="qcurve"/>
      <point x="480" y="0" type="line"/>
      <point x="489" y="49" type="line"/>
      <point x="412" y="49" type="line"/>
      <point x="504" y="512" type="line"/>
      <point x="449" y="512" type="line"/>
      <point x="390" y="215" type="line"/>
      <point x="372" y="142"/>
      <point x="324" y="87" type="qcurve"/>
      <point x="279" y="38"/>
      <point x="215" y="38" type="qcurve"/>
      <point x="167" y="38"/>
      <point x="124" y="88"/>
      <point x="124" y="136" type="qcurve"/>
      <point x="124" y="167"/>
      <point x="129" y="193" type="qcurve"/>
      <point x="193" y="512" type="line"/>
      <point x="138" y="512" type="line"/>
      <point x="74" y="193" type="line"/>
      <point x="67" y="156"/>
      <point x="67" y="127" type="qcurve"/>
      <point x="67" y="61"/>
      <point x="133" y="-12"/>
    </contour>
    <contour>
      <point x="337" y="581" type="qcurve"/>
      <point x="392" y="581"/>
      <point x="457" y="647"/>
      <point x="457" y="703" type="qcurve"/>
      <point x="457" y="739"/>
      <point x="412" y="792"/>
      <point x="367" y="792" type="qcurve"/>
      <point x="312" y="792"/>
      <point x="247" y="726"/>
      <point x="247" y="670" type="qcurve"/>
      <point x="247" y="634"/>
      <point x="292" y="581"/>
    </contour>
    <contour>
      <point x="342" y="617" type="qcurve"/>
      <point x="288" y="617"/>
      <point x="288" y="666" type="qcurve"/>
      <point x="288" y="677"/>
      <point x="292" y="696" type="qcurve"/>
      <point x="304" y="756"/>
      <point x="362" y="756" type="qcurve"/>
      <point x="416" y="756"/>
      <point x="416" y="707" type="qcurve"/>
      <point x="416" y="697"/>
      <point x="412" y="677" type="qcurve"/>
      <point x="401" y="617"/>
    </contour>
  </outline>
</glyph>
<glyph name="Uhungarumlaut" format="2">
  <advance width="650"/>
  <unicode hex="0170"/>
  <outline>
    <contour>
      <point x="300" y="779" type="line"/>
      <point x="419" y="941" type="line"/>
      <point x="465" y="916" type="line"/>
      <point x="332" y="760" type="line"/>
    </contour>
    <contour>
      <point x="458" y="779" type="line"/>
      <point x="577" y="941" type="line"/>
      <point x="622" y="916" type="line"/>
      <point x="491" y="760" type="line"/>
    </contour>
    <contour>
      <point x="278" y="-12" type="qcurve" smooth="yes"/>
      <point x="186" y="-12"/>
      <point x="83" y="83"/>
      <point x="83" y="173" type="qcurve" smooth="yes"/>
      <point x="83" y="223"/>
      <point x="97" y="287" type="qcurve"/>
      <point x="179" y="698" type="line"/>
      <point x="237" y="698" type="line"/>
      <point x="145" y="233"/>
      <point x="143" y="218" type="qcurve" smooth="yes"/>
      <point x="140" y="197"/>
      <point x="140" y="178" type="qcurve" smooth="yes"/>
      <point x="140" y="113"/>
      <point x="213" y="40"/>
      <point x="284" y="40" type="qcurve" smooth="yes"/>
      <point x="380" y="40"/>
      <point x="482" y="149"/>
      <point x="506" y="279" type="qcurve"/>
      <point x="590" y="698" type="line"/>
      <point x="648" y="698" type="line"/>
      <point x="563" y="275" type="line" smooth="yes"/>
      <point x="532" y="117"/>
      <point x="403" y="-12"/>
    </contour>
  </outline>
</glyph>
<glyph name="Uogonek" format="2">
  <advance width="650"/>
  <unicode hex="0172"/>
  <outline>
    <contour>
      <point x="279" y="-205" type="qcurve" smooth="yes"/>
      <point x="244" y="-205"/>
      <point x="192" y="-172"/>
      <point x="192" y="-134" type="qcurve" smooth="yes"/>
      <point x="192" y="-64"/>
      <point x="306" y="-14" type="qcurve"/>
      <point x="305" y="-11" type="line"/>
      <point x="302" y="-12"/>
      <point x="283" y="-12" type="qcurve" smooth="yes"/>
      <point x="183" y="-12"/>
      <point x="83" y="84"/>
      <point x="83" y="173" type="qcurve" smooth="yes"/>
      <point x="83" y="223"/>
      <point x="97" y="287" type="qcurve"/>
      <point x="179" y="698" type="line"/>
      <point x="237" y="698" type="line"/>
      <point x="147" y="244"/>
      <point x="143" y="218" type="qcurve" smooth="yes"/>
      <point x="140" y="197"/>
      <point x="140" y="178" type="qcurve" smooth="yes"/>
      <point x="140" y="113"/>
      <point x="213" y="40"/>
      <point x="284" y="40" type="qcurve" smooth="yes"/>
      <point x="380" y="40"/>
      <point x="482" y="149"/>
      <point x="506" y="279" type="qcurve"/>
      <point x="590" y="698" type="line"/>
      <point x="648" y="698" type="line"/>
      <point x="563" y="275" type="line"/>
      <point x="533" y="130"/>
      <point x="434" y="19"/>
      <point x="371" y="-6" type="qcurve"/>
      <point x="300" y="-39"/>
      <point x="242" y="-103"/>
      <point x="242" y="-127" type="qcurve" smooth="yes"/>
      <point x="242" y="-165"/>
      <point x="282" y="-165" type="qcurve" smooth="yes"/>
      <point x="317" y="-165"/>
      <point x="340" y="-139" type="qcurve"/>
      <point x="368" y="-170" type="line"/>
      <point x="337" y="-205"/>
    </contour>
  </outline>
</glyph>
<glyph name="wcircumflex" format="2">
  <advance width="731"/>
  <unicode hex="0175"/>
  <outline>
    <contour>
      <point x="449" y="714" type="line"/>
      <point x="307" y="594" type="line"/>
      <point x="278" y="618" type="line"/>
      <point x="421" y="756" type="line"/>
      <point x="487" y="756" type="line"/>
      <point x="579" y="617" type="line"/>
      <point x="547" y="594" type="line"/>
    </contour>
    <contour>
      <point x="439" y="0" type="line"/>
      <point x="399" y="429" type="line"/>
      <point x="395" y="429" type="line"/>
      <point x="185" y="0" type="line"/>
      <point x="115" y="0" type="line"/>
      <point x="77" y="512" type="line"/>
      <point x="130" y="512" type="line"/>
      <point x="159" y="60" type="line"/>
      <point x="163" y="60" type="line"/>
      <point x="384" y="512" type="line"/>
      <point x="439" y="512" type="line"/>
      <point x="480" y="62" type="line"/>
      <point x="484" y="62" type="line"/>
      <point x="695" y="512" type="line"/>
      <point x="749" y="512" type="line"/>
      <point x="506" y="0" type="line"/>
    </contour>
  </outline>
</glyph>
<glyph name="Ycircumflex" format="2">
  <advance width="563"/>
  <unicode hex="0176"/>
  <outline>
    <contour>
      <point x="227" y="792" type="line"/>
      <point x="371" y="930" type="line"/>
      <point x="437" y="930" type="line"/>
      <point x="529" y="791" type="line"/>
      <point x="497" y="769" type="line"/>
      <point x="399" y="888" type="line"/>
      <point x="257" y="768" type="line"/>
    </contour>
    <contour>
      <point x="201" y="0" type="line"/>
      <point x="257" y="281" type="line"/>
      <point x="107" y="698" type="line"/>
      <point x="166" y="698" type="line"/>
      <point x="294" y="343" type="line"/>
      <point x="298" y="343" type="line"/>
      <point x="568" y="698" type="line"/>
      <point x="635" y="698" type="line"/>
      <point x="315" y="281" type="line"/>
      <point x="259" y="0" type="line"/>
    </contour>
  </outline>
</glyph>
<glyph name="Ydieresis" format="2">
  <advance width="563"/>
  <unicode hex="0178"/>
  <outline>
    <contour>
      <point x="259" y="0" type="line"/>
      <point x="315" y="281" type="line"/>
      <point x="635" y="698" type="line"/>
      <point x="568" y="698" type="line"/>
      <point x="298" y="343" type="line"/>
      <point x="294" y="343" type="line"/>
      <point x="166" y="698" type="line"/>
      <point x="107" y="698" type="line"/>
      <point x="257" y="281" type="line"/>
      <point x="201" y="0" type="line"/>
    </contour>
    <contour>
      <point x="290" y="800" type="qcurve"/>
      <point x="328" y="800"/>
      <point x="333" y="832" type="qcurve"/>
      <point x="336" y="847" type="line"/>
      <point x="336" y="854" type="line"/>
      <point x="336" y="882"/>
      <point x="302" y="882" type="qcurve"/>
      <point x="265" y="882"/>
      <point x="259" y="850" type="qcurve"/>
      <point x="256" y="828" type="line"/>
      <point x="256" y="800"/>
    </contour>
    <contour>
      <point x="472" y="800" type="qcurve"/>
      <point x="510" y="800"/>
      <point x="515" y="832" type="qcurve"/>
      <point x="518" y="847" type="line"/>
      <point x="518" y="854" type="line"/>
      <point x="518" y="882"/>
      <point x="484" y="882" type="qcurve"/>
      <point x="447" y="882"/>
      <point x="441" y="850" type="qcurve"/>
      <point x="438" y="828" type="line"/>
      <point x="438" y="800"/>
    </contour>
  </outline>
</glyph>
<glyph name="Zdotaccent" format="2">
  <advance width="555"/>
  <unicode hex="017B"/>
  <outline>
    <contour>
      <point x="468" y="0" type="line"/>
      <point x="479" y="52" type="line"/>
      <point x="61" y="52" type="line"/>
      <point x="583" y="642" type="line"/>
      <point x="594" y="698" type="line"/>
      <point x="137" y="698" type="line"/>
      <point x="126" y="646" type="line"/>
      <point x="515" y="646" type="line"/>
      <point x="-6" y="56" type="line"/>
      <point x="-18" y="0" type="line"/>
    </contour>
    <contour>
      <point x="377" y="799" type="qcurve"/>
      <point x="415" y="799"/>
      <point x="420" y="831" type="qcurve"/>
      <point x="423" y="846" type="line"/>
      <point x="423" y="853" type="line"/>
      <point x="423" y="881"/>
      <point x="389" y="881" type="qcurve"/>
      <point x="352" y="881"/>
      <point x="346" y="849" type="qcurve"/>
      <point x="343" y="827" type="line"/>
      <point x="343" y="799"/>
    </contour>
  </outline>
</glyph>
<glyph name="zcaron" format="2">
  <advance width="441"/>
  <unicode hex="017E"/>
  <outline>
    <contour>
      <point x="256" y="601" type="line"/>
      <point x="164" y="740" type="line"/>
      <point x="197" y="763" type="line"/>
      <point x="292" y="643" type="line"/>
      <point x="436" y="763" type="line"/>
      <point x="466" y="739" type="line"/>
      <point x="323" y="601" type="line"/>
    </contour>
    <contour>
      <point x="-3" y="0" type="line"/>
      <point x="6" y="48" type="line"/>
      <point x="371" y="463" type="line"/>
      <point x="88" y="463" type="line"/>
      <point x="97" y="512" type="line"/>
      <point x="446" y="512" type="line"/>
      <point x="437" y="464" type="line"/>
      <point x="72" y="49" type="line"/>
      <point x="369" y="49" type="line"/>
      <point x="359" y="0" type="line"/>
    </contour>
  </outline>
</glyph>
